G04 #@! TF.FileFunction,Soldermask,Top*
%FSLAX46Y46*%
G04 Gerber Fmt 4.6, Leading zero omitted, Abs format (unit mm)*
G04 Created by KiCad (PCBNEW 4.0.4-stable) date 05/02/17 14:03:59*
%MOMM*%
%LPD*%
G01*
G04 APERTURE LIST*
%ADD10C,0.100000*%
%ADD11C,0.150000*%
%ADD12R,1.400760X1.400760*%
%ADD13C,1.200000*%
%ADD14R,2.400000X1.300000*%
%ADD15R,1.300000X2.400000*%
%ADD16R,6.400000X6.400000*%
%ADD17C,2.279600*%
%ADD18R,2.000000X1.400000*%
%ADD19R,1.150000X1.200000*%
%ADD20R,1.200000X1.150000*%
%ADD21R,1.197560X1.197560*%
%ADD22R,1.200100X1.200100*%
%ADD23R,1.300000X0.900000*%
%ADD24R,0.900000X1.300000*%
%ADD25R,1.460000X1.050000*%
%ADD26R,1.395680X3.897580*%
%ADD27R,1.398220X3.897580*%
%ADD28R,1.898600X3.798520*%
%ADD29R,1.898600X3.795980*%
%ADD30R,1.200000X1.400000*%
%ADD31R,1.800000X2.300000*%
%ADD32C,4.400000*%
%ADD33C,4.400000*%
%ADD34O,5.500000X4.400000*%
%ADD35O,4.400000X5.500000*%
G04 APERTURE END LIST*
D10*
D11*
X107358112Y-144526000D02*
G75*
G03X107358112Y-144526000I-23030112J0D01*
G01*
D12*
X68221500Y-140006500D03*
X72621500Y-141806500D03*
X68221500Y-141806500D03*
X72621500Y-140006500D03*
D13*
X81788000Y-147574000D03*
X86360000Y-147574000D03*
X85852000Y-145288000D03*
X84074000Y-143764000D03*
X86360000Y-143002000D03*
X84074000Y-145288000D03*
X82042000Y-145288000D03*
D14*
X74820000Y-137498000D03*
X74820000Y-138768000D03*
X74820000Y-140038000D03*
X74820000Y-141308000D03*
X74820000Y-142578000D03*
X74820000Y-143848000D03*
X74820000Y-145118000D03*
X74820000Y-146388000D03*
X74820000Y-147658000D03*
X74820000Y-148928000D03*
X74820000Y-150198000D03*
X74820000Y-151468000D03*
X74820000Y-152738000D03*
X74820000Y-154008000D03*
X92820000Y-137498000D03*
X92820000Y-154008000D03*
X92820000Y-152738000D03*
X92820000Y-151468000D03*
X92820000Y-150198000D03*
X92820000Y-148928000D03*
X92820000Y-147658000D03*
X92820000Y-146388000D03*
X92820000Y-145118000D03*
X92820000Y-143848000D03*
X92820000Y-142578000D03*
X92820000Y-141308000D03*
X92820000Y-140038000D03*
X92820000Y-138768000D03*
D15*
X78105000Y-155498000D03*
X79390000Y-155498000D03*
X80645000Y-155498000D03*
X81915000Y-155498000D03*
X83185000Y-155498000D03*
X84455000Y-155498000D03*
X85725000Y-155498000D03*
X86995000Y-155498000D03*
X88265000Y-155498000D03*
X89535000Y-155498000D03*
D16*
X84120000Y-145198000D03*
D13*
X81788000Y-143002000D03*
D17*
X96012000Y-152908000D03*
X96012000Y-150368000D03*
X96012000Y-147828000D03*
X96012000Y-145288000D03*
X96012000Y-142748000D03*
X96012000Y-140208000D03*
D18*
X72263000Y-137771000D03*
X72263000Y-134771000D03*
D19*
X70104000Y-136894000D03*
X70104000Y-135394000D03*
D20*
X67830000Y-146431000D03*
X69330000Y-146431000D03*
X72505000Y-146939000D03*
X71005000Y-146939000D03*
D19*
X90932000Y-158484000D03*
X90932000Y-156984000D03*
D20*
X97751200Y-154838400D03*
X99251200Y-154838400D03*
D21*
X75095100Y-156667200D03*
X76593700Y-156667200D03*
D22*
X95062000Y-136382760D03*
X96962000Y-136382760D03*
X96012000Y-134383780D03*
X101280000Y-146573240D03*
X99380000Y-146573240D03*
X100330000Y-148572220D03*
D23*
X94234000Y-131076000D03*
X94234000Y-132576000D03*
D24*
X75094400Y-158419800D03*
X76594400Y-158419800D03*
D23*
X70840600Y-154572400D03*
X70840600Y-153072400D03*
X68859400Y-147865400D03*
X68859400Y-149365400D03*
X72720200Y-154597800D03*
X72720200Y-153097800D03*
D24*
X95262000Y-138176000D03*
X96762000Y-138176000D03*
D23*
X100584000Y-143244000D03*
X100584000Y-141744000D03*
D25*
X92372000Y-156784000D03*
X92372000Y-157734000D03*
X92372000Y-158684000D03*
X94572000Y-158684000D03*
X94572000Y-156784000D03*
D26*
X83327240Y-159258000D03*
D27*
X85328760Y-159258000D03*
D28*
X80982820Y-165006020D03*
D29*
X87675720Y-165006020D03*
D30*
X70788500Y-148664000D03*
X70788500Y-151564000D03*
X72213500Y-148664000D03*
X72213500Y-151564000D03*
D31*
X72320000Y-144145000D03*
X69920000Y-144145000D03*
D10*
G36*
X69769948Y-126254782D02*
X72881218Y-129366052D01*
X69062842Y-133184428D01*
X65951572Y-130073158D01*
X69769948Y-126254782D01*
X69769948Y-126254782D01*
G37*
D32*
X70882934Y-130408328D02*
X70105116Y-131186146D01*
D10*
G36*
X69769948Y-126254782D02*
X72881218Y-129366052D01*
X69062842Y-133184428D01*
X65951572Y-130073158D01*
X69769948Y-126254782D01*
X69769948Y-126254782D01*
G37*
D33*
X69878843Y-130176396D03*
D10*
G36*
X102853218Y-130221948D02*
X99741948Y-133333218D01*
X95923572Y-129514842D01*
X99034842Y-126403572D01*
X102853218Y-130221948D01*
X102853218Y-130221948D01*
G37*
D32*
X98699672Y-131334934D02*
X97921854Y-130557116D01*
D10*
G36*
X102853218Y-130221948D02*
X99741948Y-133333218D01*
X95923572Y-129514842D01*
X99034842Y-126403572D01*
X102853218Y-130221948D01*
X102853218Y-130221948D01*
G37*
D33*
X98931604Y-130330843D03*
D10*
G36*
X95821164Y-124152617D02*
X94101947Y-128202839D01*
X89131220Y-126092891D01*
X90850437Y-122042669D01*
X95821164Y-124152617D01*
X95821164Y-124152617D01*
G37*
D32*
X92386995Y-126740505D02*
X91374439Y-126310701D01*
D10*
G36*
X95821164Y-124152617D02*
X94101947Y-128202839D01*
X89131220Y-126092891D01*
X90850437Y-122042669D01*
X95821164Y-124152617D01*
X95821164Y-124152617D01*
G37*
D33*
X92225899Y-125722645D03*
D10*
G36*
X98886052Y-162797218D02*
X95774782Y-159685948D01*
X99593158Y-155867572D01*
X102704428Y-158978842D01*
X98886052Y-162797218D01*
X98886052Y-162797218D01*
G37*
D32*
X97773066Y-158643672D02*
X98550884Y-157865854D01*
D10*
G36*
X98886052Y-162797218D02*
X95774782Y-159685948D01*
X99593158Y-155867572D01*
X102704428Y-158978842D01*
X98886052Y-162797218D01*
X98886052Y-162797218D01*
G37*
D33*
X98777157Y-158875604D03*
D10*
G36*
X87028000Y-121244000D02*
X87028000Y-125644000D01*
X81628000Y-125644000D01*
X81628000Y-121244000D01*
X87028000Y-121244000D01*
X87028000Y-121244000D01*
G37*
D34*
X84327999Y-124968000D03*
D10*
G36*
X87028000Y-121244000D02*
X87028000Y-125644000D01*
X81628000Y-125644000D01*
X81628000Y-121244000D01*
X87028000Y-121244000D01*
X87028000Y-121244000D01*
G37*
D33*
X84332000Y-124094000D03*
D10*
G36*
X106842092Y-138349757D02*
X102762483Y-139998026D01*
X100739608Y-134991233D01*
X104819217Y-133342964D01*
X106842092Y-138349757D01*
X106842092Y-138349757D01*
G37*
D32*
X102583855Y-137751346D02*
X102171787Y-136731444D01*
D10*
G36*
X106842092Y-138349757D02*
X102762483Y-139998026D01*
X100739608Y-134991233D01*
X104819217Y-133342964D01*
X106842092Y-138349757D01*
X106842092Y-138349757D01*
G37*
D33*
X103189679Y-136917698D03*
D10*
G36*
X107610000Y-147226000D02*
X103210000Y-147226000D01*
X103210000Y-141826000D01*
X107610000Y-141826000D01*
X107610000Y-147226000D01*
X107610000Y-147226000D01*
G37*
D35*
X103886000Y-144525999D03*
D10*
G36*
X107610000Y-147226000D02*
X103210000Y-147226000D01*
X103210000Y-141826000D01*
X107610000Y-141826000D01*
X107610000Y-147226000D01*
X107610000Y-147226000D01*
G37*
D33*
X104760000Y-144530000D03*
D10*
G36*
X61046000Y-141826000D02*
X65446000Y-141826000D01*
X65446000Y-147226000D01*
X61046000Y-147226000D01*
X61046000Y-141826000D01*
X61046000Y-141826000D01*
G37*
D35*
X64770000Y-144526001D03*
D10*
G36*
X61046000Y-141826000D02*
X65446000Y-141826000D01*
X65446000Y-147226000D01*
X61046000Y-147226000D01*
X61046000Y-141826000D01*
X61046000Y-141826000D01*
G37*
D33*
X63896000Y-144522000D03*
D10*
G36*
X63539258Y-133601068D02*
X67673905Y-135105956D01*
X65826996Y-140180296D01*
X61692349Y-138675408D01*
X63539258Y-133601068D01*
X63539258Y-133601068D01*
G37*
D32*
X66303329Y-136895091D02*
X65927107Y-137928753D01*
D10*
G36*
X63539258Y-133601068D02*
X67673905Y-135105956D01*
X65826996Y-140180296D01*
X61692349Y-138675408D01*
X63539258Y-133601068D01*
X63539258Y-133601068D01*
G37*
D33*
X65295295Y-137109236D03*
D10*
G36*
X104755517Y-155746026D02*
X100675908Y-154097757D01*
X102698783Y-149090964D01*
X106778392Y-150739233D01*
X104755517Y-155746026D01*
X104755517Y-155746026D01*
G37*
D32*
X102108088Y-152357545D02*
X102520156Y-151337643D01*
D10*
G36*
X104755517Y-155746026D02*
X100675908Y-154097757D01*
X102698783Y-149090964D01*
X106778392Y-150739233D01*
X104755517Y-155746026D01*
X104755517Y-155746026D01*
G37*
D33*
X103122982Y-152178710D03*
D10*
G36*
X90810053Y-167064839D02*
X89090836Y-163014617D01*
X94061563Y-160904669D01*
X95780780Y-164954891D01*
X90810053Y-167064839D01*
X90810053Y-167064839D01*
G37*
D32*
X91334057Y-162796807D02*
X92346613Y-162367003D01*
D10*
G36*
X90810053Y-167064839D02*
X89090836Y-163014617D01*
X94061563Y-160904669D01*
X95780780Y-164954891D01*
X90810053Y-167064839D01*
X90810053Y-167064839D01*
G37*
D33*
X92178151Y-163387989D03*
D10*
G36*
X73088836Y-164899383D02*
X74808053Y-160849161D01*
X79778780Y-162959109D01*
X78059563Y-167009331D01*
X73088836Y-164899383D01*
X73088836Y-164899383D01*
G37*
D32*
X76523005Y-162311495D02*
X77535561Y-162741299D01*
D10*
G36*
X73088836Y-164899383D02*
X74808053Y-160849161D01*
X79778780Y-162959109D01*
X78059563Y-167009331D01*
X73088836Y-164899383D01*
X73088836Y-164899383D01*
G37*
D33*
X76684101Y-163329355D03*
D10*
G36*
X66056782Y-159084052D02*
X69168052Y-155972782D01*
X72986428Y-159791158D01*
X69875158Y-162902428D01*
X66056782Y-159084052D01*
X66056782Y-159084052D01*
G37*
D32*
X70210328Y-157971066D02*
X70988146Y-158748884D01*
D10*
G36*
X66056782Y-159084052D02*
X69168052Y-155972782D01*
X72986428Y-159791158D01*
X69875158Y-162902428D01*
X66056782Y-159084052D01*
X66056782Y-159084052D01*
G37*
D33*
X69978396Y-158975157D03*
D10*
G36*
X61742399Y-151112931D02*
X65730153Y-149253411D01*
X68012291Y-154147473D01*
X64024537Y-156006993D01*
X61742399Y-151112931D01*
X61742399Y-151112931D01*
G37*
D32*
X66026119Y-151487664D02*
X66490999Y-152484602D01*
D10*
G36*
X61742399Y-151112931D02*
X65730153Y-149253411D01*
X68012291Y-154147473D01*
X64024537Y-156006993D01*
X61742399Y-151112931D01*
X61742399Y-151112931D01*
G37*
D33*
X65464755Y-152351875D03*
D10*
G36*
X78099947Y-121987161D02*
X79819164Y-126037383D01*
X74848437Y-128147331D01*
X73129220Y-124097109D01*
X78099947Y-121987161D01*
X78099947Y-121987161D01*
G37*
D32*
X77575943Y-126255193D02*
X76563387Y-126684997D01*
D10*
G36*
X78099947Y-121987161D02*
X79819164Y-126037383D01*
X74848437Y-128147331D01*
X73129220Y-124097109D01*
X78099947Y-121987161D01*
X78099947Y-121987161D01*
G37*
D33*
X76731849Y-125664011D03*
M02*
