G04 #@! TF.FileFunction,Soldermask,Bot*
%FSLAX46Y46*%
G04 Gerber Fmt 4.6, Leading zero omitted, Abs format (unit mm)*
G04 Created by KiCad (PCBNEW (2015-01-16 BZR 5376)-product) date 27-Apr-17 6:47:25 PM*
%MOMM*%
G01*
G04 APERTURE LIST*
%ADD10C,0.100000*%
%ADD11C,0.150000*%
%ADD12C,1.200000*%
%ADD13C,2.279600*%
%ADD14C,4.400000*%
%ADD15O,5.500000X4.400000*%
%ADD16O,4.400000X5.500000*%
G04 APERTURE END LIST*
D10*
D11*
X107358112Y-144526000D02*
G75*
G03X107358112Y-144526000I-23030112J0D01*
G01*
D12*
X81788000Y-147574000D03*
X86360000Y-147574000D03*
X85852000Y-145288000D03*
X84074000Y-143764000D03*
X86360000Y-143002000D03*
X84074000Y-145288000D03*
X82042000Y-145288000D03*
X81788000Y-143002000D03*
D13*
X96012000Y-152908000D03*
X96012000Y-150368000D03*
X96012000Y-147828000D03*
X96012000Y-145288000D03*
X96012000Y-142748000D03*
X96012000Y-140208000D03*
D14*
X70882934Y-130408328D02*
X70105116Y-131186146D01*
D10*
G36*
X69769948Y-126254782D02*
X72881218Y-129366052D01*
X69062842Y-133184428D01*
X65951572Y-130073158D01*
X69769948Y-126254782D01*
X69769948Y-126254782D01*
G37*
D14*
X98699672Y-131334934D02*
X97921854Y-130557116D01*
D10*
G36*
X102853218Y-130221948D02*
X99741948Y-133333218D01*
X95923572Y-129514842D01*
X99034842Y-126403572D01*
X102853218Y-130221948D01*
X102853218Y-130221948D01*
G37*
D14*
X92386995Y-126740505D02*
X91374439Y-126310701D01*
D10*
G36*
X95821164Y-124152617D02*
X94101947Y-128202839D01*
X89131220Y-126092891D01*
X90850437Y-122042669D01*
X95821164Y-124152617D01*
X95821164Y-124152617D01*
G37*
D14*
X97773066Y-158643672D02*
X98550884Y-157865854D01*
D10*
G36*
X98886052Y-162797218D02*
X95774782Y-159685948D01*
X99593158Y-155867572D01*
X102704428Y-158978842D01*
X98886052Y-162797218D01*
X98886052Y-162797218D01*
G37*
D15*
X84327999Y-124968000D03*
D10*
G36*
X87028000Y-121244000D02*
X87028000Y-125644000D01*
X81628000Y-125644000D01*
X81628000Y-121244000D01*
X87028000Y-121244000D01*
X87028000Y-121244000D01*
G37*
D14*
X102583855Y-137751346D02*
X102171787Y-136731444D01*
D10*
G36*
X106842092Y-138349757D02*
X102762483Y-139998026D01*
X100739608Y-134991233D01*
X104819217Y-133342964D01*
X106842092Y-138349757D01*
X106842092Y-138349757D01*
G37*
D16*
X103886000Y-144525999D03*
D10*
G36*
X107610000Y-147226000D02*
X103210000Y-147226000D01*
X103210000Y-141826000D01*
X107610000Y-141826000D01*
X107610000Y-147226000D01*
X107610000Y-147226000D01*
G37*
D16*
X64770000Y-144526001D03*
D10*
G36*
X61046000Y-141826000D02*
X65446000Y-141826000D01*
X65446000Y-147226000D01*
X61046000Y-147226000D01*
X61046000Y-141826000D01*
X61046000Y-141826000D01*
G37*
D14*
X66303329Y-136895091D02*
X65927107Y-137928753D01*
D10*
G36*
X63539258Y-133601068D02*
X67673905Y-135105956D01*
X65826996Y-140180296D01*
X61692349Y-138675408D01*
X63539258Y-133601068D01*
X63539258Y-133601068D01*
G37*
D14*
X102108088Y-152357545D02*
X102520156Y-151337643D01*
D10*
G36*
X104755517Y-155746026D02*
X100675908Y-154097757D01*
X102698783Y-149090964D01*
X106778392Y-150739233D01*
X104755517Y-155746026D01*
X104755517Y-155746026D01*
G37*
D14*
X91334057Y-162796807D02*
X92346613Y-162367003D01*
D10*
G36*
X90810053Y-167064839D02*
X89090836Y-163014617D01*
X94061563Y-160904669D01*
X95780780Y-164954891D01*
X90810053Y-167064839D01*
X90810053Y-167064839D01*
G37*
D14*
X76523005Y-162311495D02*
X77535561Y-162741299D01*
D10*
G36*
X73088836Y-164899383D02*
X74808053Y-160849161D01*
X79778780Y-162959109D01*
X78059563Y-167009331D01*
X73088836Y-164899383D01*
X73088836Y-164899383D01*
G37*
D14*
X70210328Y-157971066D02*
X70988146Y-158748884D01*
D10*
G36*
X66056782Y-159084052D02*
X69168052Y-155972782D01*
X72986428Y-159791158D01*
X69875158Y-162902428D01*
X66056782Y-159084052D01*
X66056782Y-159084052D01*
G37*
D14*
X66026119Y-151487664D02*
X66490999Y-152484602D01*
D10*
G36*
X61742399Y-151112931D02*
X65730153Y-149253411D01*
X68012291Y-154147473D01*
X64024537Y-156006993D01*
X61742399Y-151112931D01*
X61742399Y-151112931D01*
G37*
D14*
X77575943Y-126255193D02*
X76563387Y-126684997D01*
D10*
G36*
X78099947Y-121987161D02*
X79819164Y-126037383D01*
X74848437Y-128147331D01*
X73129220Y-124097109D01*
X78099947Y-121987161D01*
X78099947Y-121987161D01*
G37*
M02*
