M48
;DRILL file {kicad (2015-01-16 BZR 5376)-product} date 27-Apr-17 6:47:28 PM
;FORMAT={-:-/ absolute / metric / decimal}
FMAT,2
METRIC,TZ
T1C0.300
T2C0.400
T3C1.016
T4C2.000
%
G90
G05
M71
T1
X81.788Y-143.002
X81.788Y-147.574
X82.042Y-145.288
X84.074Y-143.764
X84.074Y-145.288
X85.852Y-145.288
X86.36Y-143.002
X86.36Y-147.574
T2
X67.513Y-147.752
X68.326Y-145.161
X69.342Y-153.086
X70.104Y-149.86
X70.993Y-140.653
X71.057Y-139.446
X71.374Y-155.448
X73.279Y-149.149
X73.279Y-150.266
X74.041Y-155.219
X76.073Y-135.191
X76.683Y-148.184
X76.886Y-140.081
X77.064Y-143.84
X77.546Y-158.369
X77.622Y-142.85
X79.375Y-140.716
X88.214Y-159.588
X88.24Y-157.074
X89.306Y-159.258
X89.408Y-137.414
X89.484Y-148.031
X89.535Y-157.251
X89.865Y-143.942
X90.576Y-148.971
X90.868Y-132.017
X90.881Y-147.93
X90.932Y-138.684
X90.957Y-146.38
X91.084Y-151.486
X92.354Y-155.575
X93.32Y-134.391
X94.564Y-155.829
X94.59Y-151.638
X96.164Y-155.092
X99.238Y-153.441
X99.314Y-140.97
X99.314Y-142.748
X99.365Y-151.638
T3
X96.012Y-140.208
X96.012Y-142.748
X96.012Y-145.288
X96.012Y-147.828
X96.012Y-150.368
X96.012Y-152.908
T4
X64.77Y-144.526
X66.115Y-137.412
X66.259Y-151.986
X70.494Y-130.797
X70.599Y-158.36
X77.029Y-162.526
X77.07Y-126.47
X84.328Y-124.968
X91.84Y-162.582
X91.881Y-126.526
X98.162Y-158.255
X98.311Y-130.946
X102.314Y-151.848
X102.378Y-137.241
X103.886Y-144.526
T0
M30
