G04 #@! TF.FileFunction,Legend,Top*
%FSLAX46Y46*%
G04 Gerber Fmt 4.6, Leading zero omitted, Abs format (unit mm)*
G04 Created by KiCad (PCBNEW 4.0.4-stable) date 06/08/17 10:43:58*
%MOMM*%
%LPD*%
G01*
G04 APERTURE LIST*
%ADD10C,0.100000*%
%ADD11C,0.190500*%
%ADD12C,0.250000*%
%ADD13C,0.200000*%
%ADD14C,0.300000*%
%ADD15C,0.150000*%
%ADD16C,0.254000*%
%ADD17C,0.066040*%
%ADD18C,0.203200*%
%ADD19C,0.381000*%
%ADD20C,0.152400*%
%ADD21C,0.304800*%
G04 APERTURE END LIST*
D10*
D11*
X66003715Y-141505214D02*
X65749715Y-141142357D01*
X65568287Y-141505214D02*
X65568287Y-140743214D01*
X65858572Y-140743214D01*
X65931144Y-140779500D01*
X65967429Y-140815786D01*
X66003715Y-140888357D01*
X66003715Y-140997214D01*
X65967429Y-141069786D01*
X65931144Y-141106071D01*
X65858572Y-141142357D01*
X65568287Y-141142357D01*
X66294001Y-141468929D02*
X66402858Y-141505214D01*
X66584287Y-141505214D01*
X66656858Y-141468929D01*
X66693144Y-141432643D01*
X66729429Y-141360071D01*
X66729429Y-141287500D01*
X66693144Y-141214929D01*
X66656858Y-141178643D01*
X66584287Y-141142357D01*
X66439144Y-141106071D01*
X66366572Y-141069786D01*
X66330287Y-141033500D01*
X66294001Y-140960929D01*
X66294001Y-140888357D01*
X66330287Y-140815786D01*
X66366572Y-140779500D01*
X66439144Y-140743214D01*
X66620572Y-140743214D01*
X66729429Y-140779500D01*
X66947143Y-140743214D02*
X67382572Y-140743214D01*
X67164858Y-141505214D02*
X67164858Y-140743214D01*
D10*
X90149837Y-165963600D02*
G75*
G03X90149837Y-165963600I-741837J0D01*
G01*
X80021697Y-165963600D02*
G75*
G03X80021697Y-165963600I-722897J0D01*
G01*
D12*
X78841657Y-165947714D02*
X79755943Y-165947714D01*
X79298800Y-166404857D02*
X79298800Y-165490571D01*
D13*
X97644000Y-153517523D02*
X97605905Y-153593714D01*
X97605905Y-153707999D01*
X97644000Y-153822285D01*
X97720190Y-153898476D01*
X97796381Y-153936571D01*
X97948762Y-153974666D01*
X98063048Y-153974666D01*
X98215429Y-153936571D01*
X98291619Y-153898476D01*
X98367810Y-153822285D01*
X98405905Y-153707999D01*
X98405905Y-153631809D01*
X98367810Y-153517523D01*
X98329714Y-153479428D01*
X98063048Y-153479428D01*
X98063048Y-153631809D01*
X98405905Y-153136571D02*
X97605905Y-153136571D01*
X98405905Y-152679428D01*
X97605905Y-152679428D01*
X98405905Y-152298476D02*
X97605905Y-152298476D01*
X97605905Y-152108000D01*
X97644000Y-151993714D01*
X97720190Y-151917523D01*
X97796381Y-151879428D01*
X97948762Y-151841333D01*
X98063048Y-151841333D01*
X98215429Y-151879428D01*
X98291619Y-151917523D01*
X98367810Y-151993714D01*
X98405905Y-152108000D01*
X98405905Y-152298476D01*
X97605905Y-150520380D02*
X97605905Y-150901333D01*
X97986857Y-150939428D01*
X97948762Y-150901333D01*
X97910667Y-150825142D01*
X97910667Y-150634666D01*
X97948762Y-150558476D01*
X97986857Y-150520380D01*
X98063048Y-150482285D01*
X98253524Y-150482285D01*
X98329714Y-150520380D01*
X98367810Y-150558476D01*
X98405905Y-150634666D01*
X98405905Y-150825142D01*
X98367810Y-150901333D01*
X98329714Y-150939428D01*
X97605905Y-150253714D02*
X98405905Y-149987047D01*
X97605905Y-149720380D01*
X98405905Y-148342286D02*
X98024952Y-148608953D01*
X98405905Y-148799429D02*
X97605905Y-148799429D01*
X97605905Y-148494667D01*
X97644000Y-148418476D01*
X97682095Y-148380381D01*
X97758286Y-148342286D01*
X97872571Y-148342286D01*
X97948762Y-148380381D01*
X97986857Y-148418476D01*
X98024952Y-148494667D01*
X98024952Y-148799429D01*
X97605905Y-148075619D02*
X98405905Y-147542286D01*
X97605905Y-147542286D02*
X98405905Y-148075619D01*
X97605905Y-147085143D02*
X97605905Y-147008952D01*
X97644000Y-146932762D01*
X97682095Y-146894667D01*
X97758286Y-146856571D01*
X97910667Y-146818476D01*
X98101143Y-146818476D01*
X98253524Y-146856571D01*
X98329714Y-146894667D01*
X98367810Y-146932762D01*
X98405905Y-147008952D01*
X98405905Y-147085143D01*
X98367810Y-147161333D01*
X98329714Y-147199429D01*
X98253524Y-147237524D01*
X98101143Y-147275619D01*
X97910667Y-147275619D01*
X97758286Y-147237524D01*
X97682095Y-147199429D01*
X97644000Y-147161333D01*
X97605905Y-147085143D01*
X97605905Y-146278477D02*
X97605905Y-145821334D01*
X98405905Y-146049905D02*
X97605905Y-146049905D01*
X97605905Y-145630857D02*
X98405905Y-145097524D01*
X97605905Y-145097524D02*
X98405905Y-145630857D01*
X97605905Y-144640381D02*
X97605905Y-144564190D01*
X97644000Y-144488000D01*
X97682095Y-144449905D01*
X97758286Y-144411809D01*
X97910667Y-144373714D01*
X98101143Y-144373714D01*
X98253524Y-144411809D01*
X98329714Y-144449905D01*
X98367810Y-144488000D01*
X98405905Y-144564190D01*
X98405905Y-144640381D01*
X98367810Y-144716571D01*
X98329714Y-144754667D01*
X98253524Y-144792762D01*
X98101143Y-144830857D01*
X97910667Y-144830857D01*
X97758286Y-144792762D01*
X97682095Y-144754667D01*
X97644000Y-144716571D01*
X97605905Y-144640381D01*
X98405905Y-143186095D02*
X98024952Y-143452762D01*
X98405905Y-143643238D02*
X97605905Y-143643238D01*
X97605905Y-143338476D01*
X97644000Y-143262285D01*
X97682095Y-143224190D01*
X97758286Y-143186095D01*
X97872571Y-143186095D01*
X97948762Y-143224190D01*
X97986857Y-143262285D01*
X98024952Y-143338476D01*
X98024952Y-143643238D01*
X97605905Y-142957524D02*
X97605905Y-142500381D01*
X98405905Y-142728952D02*
X97605905Y-142728952D01*
X98367810Y-142271809D02*
X98405905Y-142157523D01*
X98405905Y-141967047D01*
X98367810Y-141890857D01*
X98329714Y-141852761D01*
X98253524Y-141814666D01*
X98177333Y-141814666D01*
X98101143Y-141852761D01*
X98063048Y-141890857D01*
X98024952Y-141967047D01*
X97986857Y-142119428D01*
X97948762Y-142195619D01*
X97910667Y-142233714D01*
X97834476Y-142271809D01*
X97758286Y-142271809D01*
X97682095Y-142233714D01*
X97644000Y-142195619D01*
X97605905Y-142119428D01*
X97605905Y-141928952D01*
X97644000Y-141814666D01*
X98405905Y-141122286D02*
X97605905Y-141122286D01*
X97605905Y-140931810D01*
X97644000Y-140817524D01*
X97720190Y-140741333D01*
X97796381Y-140703238D01*
X97948762Y-140665143D01*
X98063048Y-140665143D01*
X98215429Y-140703238D01*
X98291619Y-140741333D01*
X98367810Y-140817524D01*
X98405905Y-140931810D01*
X98405905Y-141122286D01*
X97605905Y-140436572D02*
X97605905Y-139979429D01*
X98405905Y-140208000D02*
X97605905Y-140208000D01*
X98405905Y-139255619D02*
X98024952Y-139522286D01*
X98405905Y-139712762D02*
X97605905Y-139712762D01*
X97605905Y-139408000D01*
X97644000Y-139331809D01*
X97682095Y-139293714D01*
X97758286Y-139255619D01*
X97872571Y-139255619D01*
X97948762Y-139293714D01*
X97986857Y-139331809D01*
X98024952Y-139408000D01*
X98024952Y-139712762D01*
D12*
X85089905Y-128468381D02*
X85042286Y-128516000D01*
X84947048Y-128563619D01*
X84708952Y-128563619D01*
X84613714Y-128516000D01*
X84566095Y-128468381D01*
X84518476Y-128373143D01*
X84518476Y-128277905D01*
X84566095Y-128135048D01*
X85137524Y-127563619D01*
X84518476Y-127563619D01*
X84185143Y-128563619D02*
X83566095Y-128563619D01*
X83899429Y-128182667D01*
X83756571Y-128182667D01*
X83661333Y-128135048D01*
X83613714Y-128087429D01*
X83566095Y-127992190D01*
X83566095Y-127754095D01*
X83613714Y-127658857D01*
X83661333Y-127611238D01*
X83756571Y-127563619D01*
X84042286Y-127563619D01*
X84137524Y-127611238D01*
X84185143Y-127658857D01*
X90653735Y-160510246D02*
X90116767Y-160705686D01*
X90385250Y-160607966D02*
X90043230Y-159668273D01*
X90002596Y-159835088D01*
X89945674Y-159957156D01*
X89872467Y-160034477D01*
X91161913Y-159261106D02*
X90714439Y-159423973D01*
X90832559Y-159887732D01*
X90861019Y-159826698D01*
X90934227Y-159749378D01*
X91157964Y-159667944D01*
X91263745Y-159680118D01*
X91324779Y-159708578D01*
X91402100Y-159781787D01*
X91483533Y-160005523D01*
X91471359Y-160111304D01*
X91442899Y-160172338D01*
X91369691Y-160249659D01*
X91145954Y-160331092D01*
X91040173Y-160318919D01*
X90979139Y-160290458D01*
X95490088Y-156092149D02*
X95490088Y-156024805D01*
X95523760Y-155923790D01*
X95692119Y-155755431D01*
X95793134Y-155721759D01*
X95860478Y-155721759D01*
X95961493Y-155755431D01*
X96028836Y-155822774D01*
X96096180Y-155957461D01*
X96096180Y-156765584D01*
X96533913Y-156327851D01*
X99431784Y-150369720D02*
X100058246Y-150597734D01*
X98992373Y-150463164D02*
X99582149Y-150931200D01*
X99793875Y-150349485D01*
X101316584Y-144635027D02*
X101415812Y-145197775D01*
X101366198Y-144916401D02*
X100381390Y-145090050D01*
X100538615Y-145159034D01*
X100648944Y-145236287D01*
X100712377Y-145321809D01*
X100654609Y-144171508D02*
X100624251Y-144273568D01*
X100585625Y-144328733D01*
X100500103Y-144392166D01*
X100453207Y-144400435D01*
X100351147Y-144370077D01*
X100295982Y-144331451D01*
X100232549Y-144245929D01*
X100199473Y-144058345D01*
X100229831Y-143956285D01*
X100268457Y-143901121D01*
X100353979Y-143837687D01*
X100400875Y-143829418D01*
X100502935Y-143859776D01*
X100558100Y-143898403D01*
X100621533Y-143983925D01*
X100654609Y-144171508D01*
X100718042Y-144257030D01*
X100773207Y-144295657D01*
X100875268Y-144326014D01*
X101062850Y-144292938D01*
X101148372Y-144229505D01*
X101186999Y-144174340D01*
X101217357Y-144072280D01*
X101184281Y-143884697D01*
X101120847Y-143799175D01*
X101065683Y-143760548D01*
X100963623Y-143730191D01*
X100776040Y-143763267D01*
X100690517Y-143826700D01*
X100651891Y-143881865D01*
X100621533Y-143983925D01*
X100058495Y-138411445D02*
X100299991Y-138929336D01*
X100179243Y-138670391D02*
X99272936Y-139093009D01*
X99442657Y-139118950D01*
X99569222Y-139165016D01*
X99652628Y-139231206D01*
X99857248Y-137979871D02*
X99776750Y-137807241D01*
X99693343Y-137741050D01*
X99630060Y-137718017D01*
X99460339Y-137692076D01*
X99267584Y-137729417D01*
X98922324Y-137890415D01*
X98856133Y-137973822D01*
X98833100Y-138037104D01*
X98830192Y-138143543D01*
X98910691Y-138316174D01*
X98994098Y-138382364D01*
X99057380Y-138405397D01*
X99163820Y-138408305D01*
X99379607Y-138307682D01*
X99445798Y-138224275D01*
X99468831Y-138160993D01*
X99471739Y-138054553D01*
X99391240Y-137881922D01*
X99307834Y-137815732D01*
X99244551Y-137792700D01*
X99138111Y-137789791D01*
X96409199Y-133970438D02*
X96342112Y-133964569D01*
X96244416Y-133922221D01*
X96091371Y-133739829D01*
X96066631Y-133636263D01*
X96072501Y-133569176D01*
X96114848Y-133471480D01*
X96187805Y-133410262D01*
X96327848Y-133354914D01*
X97132896Y-133425346D01*
X96734980Y-132951128D01*
X96122801Y-132221562D02*
X96490108Y-132659302D01*
X96306455Y-132440432D02*
X95540410Y-133083220D01*
X95711063Y-133064350D01*
X95845237Y-133076089D01*
X95942934Y-133118436D01*
X90897486Y-129780972D02*
X90833438Y-129801782D01*
X90726962Y-129800974D01*
X90514817Y-129692881D01*
X90451578Y-129607215D01*
X90430768Y-129543167D01*
X90431576Y-129436691D01*
X90474813Y-129351833D01*
X90582098Y-129246165D01*
X91350668Y-128996442D01*
X90799092Y-128715400D01*
X90048908Y-129348600D02*
X89984861Y-129369410D01*
X89878384Y-129368602D01*
X89666239Y-129260509D01*
X89603000Y-129174843D01*
X89582190Y-129110795D01*
X89582998Y-129004319D01*
X89626235Y-128919461D01*
X89733520Y-128813793D01*
X90502090Y-128564070D01*
X89950514Y-128283028D01*
X79880966Y-128987260D02*
X79986747Y-128999434D01*
X80120988Y-128950574D01*
X80238944Y-128856966D01*
X80295865Y-128734898D01*
X80308039Y-128629117D01*
X80287640Y-128433842D01*
X80238780Y-128299599D01*
X80128886Y-128136897D01*
X80051565Y-128063689D01*
X79929498Y-128006768D01*
X79778968Y-128010881D01*
X79689474Y-128043454D01*
X79571519Y-128137062D01*
X79543058Y-128198096D01*
X79657065Y-128511326D01*
X79836054Y-128446179D01*
X79107760Y-128255181D02*
X79449780Y-129194874D01*
X78570792Y-128450621D01*
X78912812Y-129390314D01*
X78123320Y-128613488D02*
X78465340Y-129553180D01*
X78241604Y-129634614D01*
X78091075Y-129638727D01*
X77969007Y-129581806D01*
X77891687Y-129508598D01*
X77781793Y-129345896D01*
X77732932Y-129211653D01*
X77712533Y-129016377D01*
X77724707Y-128910596D01*
X77781628Y-128788529D01*
X77899584Y-128694921D01*
X78123320Y-128613488D01*
X73873019Y-132387431D02*
X73435286Y-132825164D01*
X73401615Y-132320088D01*
X73300599Y-132421104D01*
X73199584Y-132454776D01*
X73132240Y-132454776D01*
X73031224Y-132421103D01*
X72862866Y-132252745D01*
X72829194Y-132151729D01*
X72829194Y-132084386D01*
X72862866Y-131983371D01*
X73064897Y-131781340D01*
X73165912Y-131747668D01*
X73233255Y-131747668D01*
X72963882Y-132825164D02*
X72324118Y-132522118D01*
X72627164Y-133161882D01*
X72660836Y-133599615D02*
X72223102Y-134037348D01*
X72189431Y-133532271D01*
X72088416Y-133633287D01*
X71987400Y-133666959D01*
X71920057Y-133666959D01*
X71819041Y-133633286D01*
X71650683Y-133464928D01*
X71617011Y-133363913D01*
X71617011Y-133296569D01*
X71650683Y-133195554D01*
X71852714Y-132993523D01*
X71953729Y-132959851D01*
X72021072Y-132959851D01*
X69625467Y-138110593D02*
X69413740Y-138692308D01*
X69169769Y-138248783D01*
X69120909Y-138383026D01*
X69043588Y-138456233D01*
X68982555Y-138484694D01*
X68876773Y-138496868D01*
X68653036Y-138415434D01*
X68579829Y-138338114D01*
X68551368Y-138277080D01*
X68539194Y-138171299D01*
X68636914Y-137902815D01*
X68714235Y-137829607D01*
X68775269Y-137801146D01*
X69104293Y-139542506D02*
X69267160Y-139095033D01*
X68835975Y-138887419D01*
X68864435Y-138948453D01*
X68876609Y-139054234D01*
X68795176Y-139277971D01*
X68717855Y-139351179D01*
X68656821Y-139379639D01*
X68551039Y-139391813D01*
X68327303Y-139310380D01*
X68254095Y-139233059D01*
X68225635Y-139172025D01*
X68213461Y-139066244D01*
X68294894Y-138842507D01*
X68372215Y-138769299D01*
X68433249Y-138740839D01*
X68216727Y-143379681D02*
X68324224Y-143989325D01*
X67891176Y-143727206D01*
X67915983Y-143867894D01*
X67885626Y-143969954D01*
X67846999Y-144025119D01*
X67761476Y-144088552D01*
X67526998Y-144129897D01*
X67424938Y-144099539D01*
X67369774Y-144060913D01*
X67306340Y-143975391D01*
X67256726Y-143694016D01*
X67287084Y-143591956D01*
X67325710Y-143536792D01*
X68144796Y-144891328D02*
X67488257Y-145007094D01*
X68478616Y-144590698D02*
X67733836Y-144480255D01*
X67841333Y-145089898D01*
X69176001Y-149994295D02*
X69239284Y-150017328D01*
X69322690Y-150083518D01*
X69423314Y-150299306D01*
X69420406Y-150405746D01*
X69397373Y-150469028D01*
X69331183Y-150552435D01*
X69244868Y-150592684D01*
X69095271Y-150609901D01*
X68335884Y-150333507D01*
X68597505Y-150894555D01*
X69866057Y-151248772D02*
X69785558Y-151076141D01*
X69702151Y-151009951D01*
X69638869Y-150986918D01*
X69469147Y-150960977D01*
X69276393Y-150998318D01*
X68931132Y-151159316D01*
X68864942Y-151242723D01*
X68841909Y-151306005D01*
X68839001Y-151412444D01*
X68919500Y-151585075D01*
X69002907Y-151651265D01*
X69066189Y-151674298D01*
X69172628Y-151677206D01*
X69388416Y-151576583D01*
X69454607Y-151493176D01*
X69477640Y-151429894D01*
X69480548Y-151323454D01*
X69400049Y-151150823D01*
X69316642Y-151084633D01*
X69253360Y-151061600D01*
X69146919Y-151058692D01*
X78364908Y-160336600D02*
X77855761Y-160077177D01*
X78110334Y-160206888D02*
X78564325Y-159315882D01*
X78414611Y-159399931D01*
X78286516Y-159441552D01*
X78180040Y-159440743D01*
X79115900Y-159596924D02*
X79667476Y-159877966D01*
X79197525Y-160066066D01*
X79324812Y-160130922D01*
X79388051Y-160216588D01*
X79408862Y-160280635D01*
X79408053Y-160387112D01*
X79299960Y-160599257D01*
X79214294Y-160662496D01*
X79150247Y-160683306D01*
X79043770Y-160682498D01*
X78789196Y-160552786D01*
X78725957Y-160467120D01*
X78705147Y-160403072D01*
X88950857Y-165947714D02*
X89865143Y-165947714D01*
D14*
X72719001Y-155116953D02*
X72802860Y-155124290D01*
X72924981Y-155177224D01*
X73116287Y-155405214D01*
X73147211Y-155534670D01*
X73139874Y-155618530D01*
X73086940Y-155740650D01*
X72995744Y-155817172D01*
X72820689Y-155886357D01*
X71814380Y-155798317D01*
X72311776Y-156391090D01*
X73996293Y-156453965D02*
X73613682Y-155997986D01*
X73119442Y-156334999D01*
X73203301Y-156342336D01*
X73325421Y-156395272D01*
X73516727Y-156623261D01*
X73547651Y-156752717D01*
X73540314Y-156836576D01*
X73487380Y-156958697D01*
X73259390Y-157150003D01*
X73129933Y-157180927D01*
X73046074Y-157173590D01*
X72923954Y-157120656D01*
X72732649Y-156892666D01*
X72701724Y-156763209D01*
X72709060Y-156679350D01*
D15*
X107358112Y-144526000D02*
G75*
G03X107358112Y-144526000I-23030112J0D01*
G01*
D16*
X68921500Y-139656500D02*
X68921500Y-142156500D01*
X68921500Y-142156500D02*
X71921500Y-142156500D01*
X71921500Y-142156500D02*
X71921500Y-139656500D01*
X71921500Y-139656500D02*
X68921500Y-139656500D01*
D15*
X74820000Y-135998000D02*
X74820000Y-136898000D01*
X92820000Y-155498000D02*
X92820000Y-154598000D01*
X74820000Y-155498000D02*
X74820000Y-154598000D01*
X74820000Y-135998000D02*
X92820000Y-135998000D01*
X92820000Y-135998000D02*
X92820000Y-136898000D01*
X92820000Y-155498000D02*
X90120000Y-155498000D01*
X74820000Y-155498000D02*
X77520000Y-155498000D01*
X74820000Y-135998000D02*
X92820000Y-135998000D01*
X74820000Y-129998000D02*
X92820000Y-129998000D01*
D17*
X96266000Y-140462000D02*
X96266000Y-139954000D01*
X96266000Y-139954000D02*
X95758000Y-139954000D01*
X95758000Y-140462000D02*
X95758000Y-139954000D01*
X96266000Y-140462000D02*
X95758000Y-140462000D01*
X96266000Y-143002000D02*
X96266000Y-142494000D01*
X96266000Y-142494000D02*
X95758000Y-142494000D01*
X95758000Y-143002000D02*
X95758000Y-142494000D01*
X96266000Y-143002000D02*
X95758000Y-143002000D01*
X96266000Y-145542000D02*
X96266000Y-145034000D01*
X96266000Y-145034000D02*
X95758000Y-145034000D01*
X95758000Y-145542000D02*
X95758000Y-145034000D01*
X96266000Y-145542000D02*
X95758000Y-145542000D01*
X96266000Y-148082000D02*
X96266000Y-147574000D01*
X96266000Y-147574000D02*
X95758000Y-147574000D01*
X95758000Y-148082000D02*
X95758000Y-147574000D01*
X96266000Y-148082000D02*
X95758000Y-148082000D01*
X96266000Y-150622000D02*
X96266000Y-150114000D01*
X96266000Y-150114000D02*
X95758000Y-150114000D01*
X95758000Y-150622000D02*
X95758000Y-150114000D01*
X96266000Y-150622000D02*
X95758000Y-150622000D01*
D18*
X95377000Y-141478000D02*
X94742000Y-140843000D01*
X94742000Y-140843000D02*
X94742000Y-139573000D01*
X94742000Y-139573000D02*
X95377000Y-138938000D01*
X96647000Y-138938000D02*
X97282000Y-139573000D01*
X97282000Y-139573000D02*
X97282000Y-140843000D01*
X97282000Y-140843000D02*
X96647000Y-141478000D01*
X94742000Y-145923000D02*
X94742000Y-144653000D01*
X94742000Y-144653000D02*
X95377000Y-144018000D01*
X96647000Y-144018000D02*
X97282000Y-144653000D01*
X95377000Y-144018000D02*
X94742000Y-143383000D01*
X94742000Y-143383000D02*
X94742000Y-142113000D01*
X94742000Y-142113000D02*
X95377000Y-141478000D01*
X96647000Y-141478000D02*
X97282000Y-142113000D01*
X97282000Y-142113000D02*
X97282000Y-143383000D01*
X97282000Y-143383000D02*
X96647000Y-144018000D01*
X95377000Y-149098000D02*
X94742000Y-148463000D01*
X94742000Y-148463000D02*
X94742000Y-147193000D01*
X94742000Y-147193000D02*
X95377000Y-146558000D01*
X96647000Y-146558000D02*
X97282000Y-147193000D01*
X97282000Y-147193000D02*
X97282000Y-148463000D01*
X97282000Y-148463000D02*
X96647000Y-149098000D01*
X94742000Y-145923000D02*
X95377000Y-146558000D01*
X96647000Y-146558000D02*
X97282000Y-145923000D01*
X97282000Y-144653000D02*
X97282000Y-145923000D01*
X94742000Y-153543000D02*
X94742000Y-152273000D01*
X94742000Y-152273000D02*
X95377000Y-151638000D01*
X96647000Y-151638000D02*
X97282000Y-152273000D01*
X95377000Y-151638000D02*
X94742000Y-151003000D01*
X94742000Y-151003000D02*
X94742000Y-149733000D01*
X94742000Y-149733000D02*
X95377000Y-149098000D01*
X96647000Y-149098000D02*
X97282000Y-149733000D01*
X97282000Y-149733000D02*
X97282000Y-151003000D01*
X97282000Y-151003000D02*
X96647000Y-151638000D01*
X95377000Y-154178000D02*
X96647000Y-154178000D01*
X94742000Y-153543000D02*
X95377000Y-154178000D01*
X96647000Y-154178000D02*
X97282000Y-153543000D01*
X97282000Y-152273000D02*
X97282000Y-153543000D01*
X95377000Y-138938000D02*
X96647000Y-138938000D01*
D15*
X71238000Y-135271000D02*
X71238000Y-137271000D01*
X73288000Y-137271000D02*
X73288000Y-135271000D01*
X69504000Y-136494000D02*
X69504000Y-135794000D01*
X70704000Y-135794000D02*
X70704000Y-136494000D01*
X68230000Y-145831000D02*
X68930000Y-145831000D01*
X68930000Y-147031000D02*
X68230000Y-147031000D01*
X72105000Y-147539000D02*
X71405000Y-147539000D01*
X71405000Y-146339000D02*
X72105000Y-146339000D01*
X90332000Y-158084000D02*
X90332000Y-157384000D01*
X91532000Y-157384000D02*
X91532000Y-158084000D01*
X98151200Y-154238400D02*
X98851200Y-154238400D01*
X98851200Y-155438400D02*
X98151200Y-155438400D01*
X76944400Y-156117200D02*
X75044400Y-156117200D01*
X76944400Y-157217200D02*
X75044400Y-157217200D01*
X76044400Y-156667200D02*
X75594400Y-156667200D01*
X76094400Y-156917200D02*
X76094400Y-156417200D01*
X76094400Y-156667200D02*
X75844400Y-156917200D01*
X75844400Y-156917200D02*
X75844400Y-156417200D01*
X75844400Y-156417200D02*
X76094400Y-156667200D01*
X97311160Y-134731760D02*
X97262900Y-134731760D01*
X94512180Y-135432800D02*
X94512180Y-134731760D01*
X94512180Y-134731760D02*
X94761100Y-134731760D01*
X97311160Y-134731760D02*
X97511820Y-134731760D01*
X97511820Y-134731760D02*
X97511820Y-135432800D01*
X99030840Y-148224240D02*
X99079100Y-148224240D01*
X101829820Y-147523200D02*
X101829820Y-148224240D01*
X101829820Y-148224240D02*
X101580900Y-148224240D01*
X99030840Y-148224240D02*
X98830180Y-148224240D01*
X98830180Y-148224240D02*
X98830180Y-147523200D01*
X93559000Y-132326000D02*
X93559000Y-131326000D01*
X94909000Y-131326000D02*
X94909000Y-132326000D01*
X76344400Y-159094800D02*
X75344400Y-159094800D01*
X75344400Y-157744800D02*
X76344400Y-157744800D01*
X71515600Y-153322400D02*
X71515600Y-154322400D01*
X70165600Y-154322400D02*
X70165600Y-153322400D01*
X68184400Y-149115400D02*
X68184400Y-148115400D01*
X69534400Y-148115400D02*
X69534400Y-149115400D01*
X73395200Y-153347800D02*
X73395200Y-154347800D01*
X72045200Y-154347800D02*
X72045200Y-153347800D01*
X96512000Y-138851000D02*
X95512000Y-138851000D01*
X95512000Y-137501000D02*
X96512000Y-137501000D01*
X101259000Y-141994000D02*
X101259000Y-142994000D01*
X99909000Y-142994000D02*
X99909000Y-141994000D01*
X93272000Y-156034000D02*
G75*
G03X93272000Y-156034000I-100000J0D01*
G01*
X93722000Y-156284000D02*
X93222000Y-156284000D01*
X93722000Y-159184000D02*
X93722000Y-156284000D01*
X93222000Y-159184000D02*
X93722000Y-159184000D01*
X93222000Y-156284000D02*
X93222000Y-159184000D01*
D19*
X80327500Y-166258240D02*
X80327500Y-158757620D01*
X88328500Y-158757620D02*
X88328500Y-166258240D01*
X88328500Y-158757620D02*
X87927180Y-158757620D01*
X88127840Y-160258760D02*
X88127840Y-158757620D01*
X87927180Y-158757620D02*
X87927180Y-160258760D01*
X80528160Y-158757620D02*
X80528160Y-160258760D01*
X80728820Y-160258760D02*
X80728820Y-158757620D01*
X80728820Y-158757620D02*
X80327500Y-158757620D01*
X83827620Y-166258240D02*
X83827620Y-165257480D01*
X83827620Y-165257480D02*
X84828380Y-165257480D01*
X84828380Y-165257480D02*
X84828380Y-166258240D01*
X82329020Y-160258760D02*
X82329020Y-164757100D01*
X82329020Y-164757100D02*
X81627980Y-164757100D01*
X81627980Y-164757100D02*
X81627980Y-160258760D01*
X86326980Y-160258760D02*
X86326980Y-164757100D01*
X86326980Y-164757100D02*
X87028020Y-164757100D01*
X87028020Y-164757100D02*
X87028020Y-160258760D01*
X80327500Y-166258240D02*
X88328500Y-166258240D01*
X88328500Y-160258760D02*
X80327500Y-160258760D01*
X83027520Y-166258240D02*
X82727800Y-166258240D01*
D20*
X69253267Y-141407243D02*
X69396124Y-141461671D01*
X69634220Y-141461671D01*
X69729458Y-141407243D01*
X69777077Y-141352814D01*
X69824696Y-141243957D01*
X69824696Y-141135100D01*
X69777077Y-141026243D01*
X69729458Y-140971814D01*
X69634220Y-140917386D01*
X69443743Y-140862957D01*
X69348505Y-140808529D01*
X69300886Y-140754100D01*
X69253267Y-140645243D01*
X69253267Y-140536386D01*
X69300886Y-140427529D01*
X69348505Y-140373100D01*
X69443743Y-140318671D01*
X69681839Y-140318671D01*
X69824696Y-140373100D01*
X70158029Y-140318671D02*
X70396124Y-141461671D01*
X70586601Y-140645243D01*
X70777077Y-141461671D01*
X71015172Y-140318671D01*
X71919934Y-141461671D02*
X71348505Y-141461671D01*
X71634219Y-141461671D02*
X71634219Y-140318671D01*
X71538981Y-140481957D01*
X71443743Y-140590814D01*
X71348505Y-140645243D01*
D15*
X83010476Y-135700381D02*
X83010476Y-134700381D01*
X83343810Y-135414667D01*
X83677143Y-134700381D01*
X83677143Y-135700381D01*
X84677143Y-135700381D02*
X84105714Y-135700381D01*
X84391428Y-135700381D02*
X84391428Y-134700381D01*
X84296190Y-134843238D01*
X84200952Y-134938476D01*
X84105714Y-134986095D01*
X72096334Y-135256543D02*
X72048715Y-135304162D01*
X71905858Y-135351781D01*
X71810620Y-135351781D01*
X71667762Y-135304162D01*
X71572524Y-135208924D01*
X71524905Y-135113686D01*
X71477286Y-134923210D01*
X71477286Y-134780352D01*
X71524905Y-134589876D01*
X71572524Y-134494638D01*
X71667762Y-134399400D01*
X71810620Y-134351781D01*
X71905858Y-134351781D01*
X72048715Y-134399400D01*
X72096334Y-134447019D01*
X73048715Y-135351781D02*
X72477286Y-135351781D01*
X72763000Y-135351781D02*
X72763000Y-134351781D01*
X72667762Y-134494638D01*
X72572524Y-134589876D01*
X72477286Y-134637495D01*
X69961934Y-135505000D02*
X69928600Y-135538333D01*
X69828600Y-135571667D01*
X69761934Y-135571667D01*
X69661934Y-135538333D01*
X69595267Y-135471667D01*
X69561934Y-135405000D01*
X69528600Y-135271667D01*
X69528600Y-135171667D01*
X69561934Y-135038333D01*
X69595267Y-134971667D01*
X69661934Y-134905000D01*
X69761934Y-134871667D01*
X69828600Y-134871667D01*
X69928600Y-134905000D01*
X69961934Y-134938333D01*
X70228600Y-134938333D02*
X70261934Y-134905000D01*
X70328600Y-134871667D01*
X70495267Y-134871667D01*
X70561934Y-134905000D01*
X70595267Y-134938333D01*
X70628600Y-135005000D01*
X70628600Y-135071667D01*
X70595267Y-135171667D01*
X70195267Y-135571667D01*
X70628600Y-135571667D01*
X68412534Y-146706400D02*
X68379200Y-146739733D01*
X68279200Y-146773067D01*
X68212534Y-146773067D01*
X68112534Y-146739733D01*
X68045867Y-146673067D01*
X68012534Y-146606400D01*
X67979200Y-146473067D01*
X67979200Y-146373067D01*
X68012534Y-146239733D01*
X68045867Y-146173067D01*
X68112534Y-146106400D01*
X68212534Y-146073067D01*
X68279200Y-146073067D01*
X68379200Y-146106400D01*
X68412534Y-146139733D01*
X68645867Y-146073067D02*
X69079200Y-146073067D01*
X68845867Y-146339733D01*
X68945867Y-146339733D01*
X69012534Y-146373067D01*
X69045867Y-146406400D01*
X69079200Y-146473067D01*
X69079200Y-146639733D01*
X69045867Y-146706400D01*
X69012534Y-146739733D01*
X68945867Y-146773067D01*
X68745867Y-146773067D01*
X68679200Y-146739733D01*
X68645867Y-146706400D01*
X71562134Y-147239800D02*
X71528800Y-147273133D01*
X71428800Y-147306467D01*
X71362134Y-147306467D01*
X71262134Y-147273133D01*
X71195467Y-147206467D01*
X71162134Y-147139800D01*
X71128800Y-147006467D01*
X71128800Y-146906467D01*
X71162134Y-146773133D01*
X71195467Y-146706467D01*
X71262134Y-146639800D01*
X71362134Y-146606467D01*
X71428800Y-146606467D01*
X71528800Y-146639800D01*
X71562134Y-146673133D01*
X72162134Y-146839800D02*
X72162134Y-147306467D01*
X71995467Y-146573133D02*
X71828800Y-147073133D01*
X72262134Y-147073133D01*
X90789934Y-157120400D02*
X90756600Y-157153733D01*
X90656600Y-157187067D01*
X90589934Y-157187067D01*
X90489934Y-157153733D01*
X90423267Y-157087067D01*
X90389934Y-157020400D01*
X90356600Y-156887067D01*
X90356600Y-156787067D01*
X90389934Y-156653733D01*
X90423267Y-156587067D01*
X90489934Y-156520400D01*
X90589934Y-156487067D01*
X90656600Y-156487067D01*
X90756600Y-156520400D01*
X90789934Y-156553733D01*
X91423267Y-156487067D02*
X91089934Y-156487067D01*
X91056600Y-156820400D01*
X91089934Y-156787067D01*
X91156600Y-156753733D01*
X91323267Y-156753733D01*
X91389934Y-156787067D01*
X91423267Y-156820400D01*
X91456600Y-156887067D01*
X91456600Y-157053733D01*
X91423267Y-157120400D01*
X91389934Y-157153733D01*
X91323267Y-157187067D01*
X91156600Y-157187067D01*
X91089934Y-157153733D01*
X91056600Y-157120400D01*
X99349734Y-155139200D02*
X99316400Y-155172533D01*
X99216400Y-155205867D01*
X99149734Y-155205867D01*
X99049734Y-155172533D01*
X98983067Y-155105867D01*
X98949734Y-155039200D01*
X98916400Y-154905867D01*
X98916400Y-154805867D01*
X98949734Y-154672533D01*
X98983067Y-154605867D01*
X99049734Y-154539200D01*
X99149734Y-154505867D01*
X99216400Y-154505867D01*
X99316400Y-154539200D01*
X99349734Y-154572533D01*
X99949734Y-154505867D02*
X99816400Y-154505867D01*
X99749734Y-154539200D01*
X99716400Y-154572533D01*
X99649734Y-154672533D01*
X99616400Y-154805867D01*
X99616400Y-155072533D01*
X99649734Y-155139200D01*
X99683067Y-155172533D01*
X99749734Y-155205867D01*
X99883067Y-155205867D01*
X99949734Y-155172533D01*
X99983067Y-155139200D01*
X100016400Y-155072533D01*
X100016400Y-154905867D01*
X99983067Y-154839200D01*
X99949734Y-154805867D01*
X99883067Y-154772533D01*
X99749734Y-154772533D01*
X99683067Y-154805867D01*
X99649734Y-154839200D01*
X99616400Y-154905867D01*
X76521534Y-157034667D02*
X76521534Y-156334667D01*
X76688200Y-156334667D01*
X76788200Y-156368000D01*
X76854867Y-156434667D01*
X76888200Y-156501333D01*
X76921534Y-156634667D01*
X76921534Y-156734667D01*
X76888200Y-156868000D01*
X76854867Y-156934667D01*
X76788200Y-157001333D01*
X76688200Y-157034667D01*
X76521534Y-157034667D01*
X77154867Y-156334667D02*
X77588200Y-156334667D01*
X77354867Y-156601333D01*
X77454867Y-156601333D01*
X77521534Y-156634667D01*
X77554867Y-156668000D01*
X77588200Y-156734667D01*
X77588200Y-156901333D01*
X77554867Y-156968000D01*
X77521534Y-157001333D01*
X77454867Y-157034667D01*
X77254867Y-157034667D01*
X77188200Y-157001333D01*
X77154867Y-156968000D01*
X95869133Y-135739933D02*
X95802467Y-135706600D01*
X95735800Y-135639933D01*
X95635800Y-135539933D01*
X95569133Y-135506600D01*
X95502467Y-135506600D01*
X95535800Y-135673267D02*
X95469133Y-135639933D01*
X95402467Y-135573267D01*
X95369133Y-135439933D01*
X95369133Y-135206600D01*
X95402467Y-135073267D01*
X95469133Y-135006600D01*
X95535800Y-134973267D01*
X95669133Y-134973267D01*
X95735800Y-135006600D01*
X95802467Y-135073267D01*
X95835800Y-135206600D01*
X95835800Y-135439933D01*
X95802467Y-135573267D01*
X95735800Y-135639933D01*
X95669133Y-135673267D01*
X95535800Y-135673267D01*
X96069133Y-134973267D02*
X96502466Y-134973267D01*
X96269133Y-135239933D01*
X96369133Y-135239933D01*
X96435800Y-135273267D01*
X96469133Y-135306600D01*
X96502466Y-135373267D01*
X96502466Y-135539933D01*
X96469133Y-135606600D01*
X96435800Y-135639933D01*
X96369133Y-135673267D01*
X96169133Y-135673267D01*
X96102466Y-135639933D01*
X96069133Y-135606600D01*
X100339533Y-147804933D02*
X100272867Y-147771600D01*
X100206200Y-147704933D01*
X100106200Y-147604933D01*
X100039533Y-147571600D01*
X99972867Y-147571600D01*
X100006200Y-147738267D02*
X99939533Y-147704933D01*
X99872867Y-147638267D01*
X99839533Y-147504933D01*
X99839533Y-147271600D01*
X99872867Y-147138267D01*
X99939533Y-147071600D01*
X100006200Y-147038267D01*
X100139533Y-147038267D01*
X100206200Y-147071600D01*
X100272867Y-147138267D01*
X100306200Y-147271600D01*
X100306200Y-147504933D01*
X100272867Y-147638267D01*
X100206200Y-147704933D01*
X100139533Y-147738267D01*
X100006200Y-147738267D01*
X100906200Y-147271600D02*
X100906200Y-147738267D01*
X100739533Y-147004933D02*
X100572866Y-147504933D01*
X101006200Y-147504933D01*
X94117334Y-131126667D02*
X93884000Y-130793333D01*
X93717334Y-131126667D02*
X93717334Y-130426667D01*
X93984000Y-130426667D01*
X94050667Y-130460000D01*
X94084000Y-130493333D01*
X94117334Y-130560000D01*
X94117334Y-130660000D01*
X94084000Y-130726667D01*
X94050667Y-130760000D01*
X93984000Y-130793333D01*
X93717334Y-130793333D01*
X94784000Y-131126667D02*
X94384000Y-131126667D01*
X94584000Y-131126667D02*
X94584000Y-130426667D01*
X94517334Y-130526667D01*
X94450667Y-130593333D01*
X94384000Y-130626667D01*
X75753134Y-158787267D02*
X75519800Y-158453933D01*
X75353134Y-158787267D02*
X75353134Y-158087267D01*
X75619800Y-158087267D01*
X75686467Y-158120600D01*
X75719800Y-158153933D01*
X75753134Y-158220600D01*
X75753134Y-158320600D01*
X75719800Y-158387267D01*
X75686467Y-158420600D01*
X75619800Y-158453933D01*
X75353134Y-158453933D01*
X76386467Y-158087267D02*
X76053134Y-158087267D01*
X76019800Y-158420600D01*
X76053134Y-158387267D01*
X76119800Y-158353933D01*
X76286467Y-158353933D01*
X76353134Y-158387267D01*
X76386467Y-158420600D01*
X76419800Y-158487267D01*
X76419800Y-158653933D01*
X76386467Y-158720600D01*
X76353134Y-158753933D01*
X76286467Y-158787267D01*
X76119800Y-158787267D01*
X76053134Y-158753933D01*
X76019800Y-158720600D01*
X70800134Y-153275467D02*
X70566800Y-152942133D01*
X70400134Y-153275467D02*
X70400134Y-152575467D01*
X70666800Y-152575467D01*
X70733467Y-152608800D01*
X70766800Y-152642133D01*
X70800134Y-152708800D01*
X70800134Y-152808800D01*
X70766800Y-152875467D01*
X70733467Y-152908800D01*
X70666800Y-152942133D01*
X70400134Y-152942133D01*
X71033467Y-152575467D02*
X71500134Y-152575467D01*
X71200134Y-153275467D01*
X68742734Y-148068467D02*
X68509400Y-147735133D01*
X68342734Y-148068467D02*
X68342734Y-147368467D01*
X68609400Y-147368467D01*
X68676067Y-147401800D01*
X68709400Y-147435133D01*
X68742734Y-147501800D01*
X68742734Y-147601800D01*
X68709400Y-147668467D01*
X68676067Y-147701800D01*
X68609400Y-147735133D01*
X68342734Y-147735133D01*
X69142734Y-147668467D02*
X69076067Y-147635133D01*
X69042734Y-147601800D01*
X69009400Y-147535133D01*
X69009400Y-147501800D01*
X69042734Y-147435133D01*
X69076067Y-147401800D01*
X69142734Y-147368467D01*
X69276067Y-147368467D01*
X69342734Y-147401800D01*
X69376067Y-147435133D01*
X69409400Y-147501800D01*
X69409400Y-147535133D01*
X69376067Y-147601800D01*
X69342734Y-147635133D01*
X69276067Y-147668467D01*
X69142734Y-147668467D01*
X69076067Y-147701800D01*
X69042734Y-147735133D01*
X69009400Y-147801800D01*
X69009400Y-147935133D01*
X69042734Y-148001800D01*
X69076067Y-148035133D01*
X69142734Y-148068467D01*
X69276067Y-148068467D01*
X69342734Y-148035133D01*
X69376067Y-148001800D01*
X69409400Y-147935133D01*
X69409400Y-147801800D01*
X69376067Y-147735133D01*
X69342734Y-147701800D01*
X69276067Y-147668467D01*
X72603534Y-153224667D02*
X72370200Y-152891333D01*
X72203534Y-153224667D02*
X72203534Y-152524667D01*
X72470200Y-152524667D01*
X72536867Y-152558000D01*
X72570200Y-152591333D01*
X72603534Y-152658000D01*
X72603534Y-152758000D01*
X72570200Y-152824667D01*
X72536867Y-152858000D01*
X72470200Y-152891333D01*
X72203534Y-152891333D01*
X72936867Y-153224667D02*
X73070200Y-153224667D01*
X73136867Y-153191333D01*
X73170200Y-153158000D01*
X73236867Y-153058000D01*
X73270200Y-152924667D01*
X73270200Y-152658000D01*
X73236867Y-152591333D01*
X73203534Y-152558000D01*
X73136867Y-152524667D01*
X73003534Y-152524667D01*
X72936867Y-152558000D01*
X72903534Y-152591333D01*
X72870200Y-152658000D01*
X72870200Y-152824667D01*
X72903534Y-152891333D01*
X72936867Y-152924667D01*
X73003534Y-152958000D01*
X73136867Y-152958000D01*
X73203534Y-152924667D01*
X73236867Y-152891333D01*
X73270200Y-152824667D01*
X95638200Y-138492667D02*
X95404866Y-138159333D01*
X95238200Y-138492667D02*
X95238200Y-137792667D01*
X95504866Y-137792667D01*
X95571533Y-137826000D01*
X95604866Y-137859333D01*
X95638200Y-137926000D01*
X95638200Y-138026000D01*
X95604866Y-138092667D01*
X95571533Y-138126000D01*
X95504866Y-138159333D01*
X95238200Y-138159333D01*
X96304866Y-138492667D02*
X95904866Y-138492667D01*
X96104866Y-138492667D02*
X96104866Y-137792667D01*
X96038200Y-137892667D01*
X95971533Y-137959333D01*
X95904866Y-137992667D01*
X96971533Y-138492667D02*
X96571533Y-138492667D01*
X96771533Y-138492667D02*
X96771533Y-137792667D01*
X96704867Y-137892667D01*
X96638200Y-137959333D01*
X96571533Y-137992667D01*
X100108600Y-141718467D02*
X99875266Y-141385133D01*
X99708600Y-141718467D02*
X99708600Y-141018467D01*
X99975266Y-141018467D01*
X100041933Y-141051800D01*
X100075266Y-141085133D01*
X100108600Y-141151800D01*
X100108600Y-141251800D01*
X100075266Y-141318467D01*
X100041933Y-141351800D01*
X99975266Y-141385133D01*
X99708600Y-141385133D01*
X100775266Y-141718467D02*
X100375266Y-141718467D01*
X100575266Y-141718467D02*
X100575266Y-141018467D01*
X100508600Y-141118467D01*
X100441933Y-141185133D01*
X100375266Y-141218467D01*
X101041933Y-141085133D02*
X101075267Y-141051800D01*
X101141933Y-141018467D01*
X101308600Y-141018467D01*
X101375267Y-141051800D01*
X101408600Y-141085133D01*
X101441933Y-141151800D01*
X101441933Y-141218467D01*
X101408600Y-141318467D01*
X101008600Y-141718467D01*
X101441933Y-141718467D01*
X93980067Y-157401467D02*
X93980067Y-157968133D01*
X94013400Y-158034800D01*
X94046733Y-158068133D01*
X94113400Y-158101467D01*
X94246733Y-158101467D01*
X94313400Y-158068133D01*
X94346733Y-158034800D01*
X94380067Y-157968133D01*
X94380067Y-157401467D01*
X95080066Y-158101467D02*
X94680066Y-158101467D01*
X94880066Y-158101467D02*
X94880066Y-157401467D01*
X94813400Y-157501467D01*
X94746733Y-157568133D01*
X94680066Y-157601467D01*
D21*
X82553628Y-159642629D02*
X82553628Y-158118629D01*
X83134200Y-158118629D01*
X83279342Y-158191200D01*
X83351914Y-158263771D01*
X83424485Y-158408914D01*
X83424485Y-158626629D01*
X83351914Y-158771771D01*
X83279342Y-158844343D01*
X83134200Y-158916914D01*
X82553628Y-158916914D01*
X84875914Y-159642629D02*
X84005057Y-159642629D01*
X84440485Y-159642629D02*
X84440485Y-158118629D01*
X84295342Y-158336343D01*
X84150200Y-158481486D01*
X84005057Y-158554057D01*
X85383914Y-158118629D02*
X86399914Y-158118629D01*
X85746771Y-159642629D01*
D15*
X70764495Y-149566381D02*
X70764495Y-150375905D01*
X70812114Y-150471143D01*
X70859733Y-150518762D01*
X70954971Y-150566381D01*
X71145448Y-150566381D01*
X71240686Y-150518762D01*
X71288305Y-150471143D01*
X71335924Y-150375905D01*
X71335924Y-149566381D01*
X71716876Y-149566381D02*
X72383543Y-149566381D01*
X71954971Y-150566381D01*
X70507315Y-144160086D02*
X70507315Y-144874371D01*
X70007315Y-143374371D02*
X70507315Y-144160086D01*
X71007315Y-143374371D01*
X72293029Y-144874371D02*
X71435886Y-144874371D01*
X71864458Y-144874371D02*
X71864458Y-143374371D01*
X71721601Y-143588657D01*
X71578743Y-143731514D01*
X71435886Y-143802943D01*
M02*
