G04 #@! TF.FileFunction,Legend,Bot*
%FSLAX46Y46*%
G04 Gerber Fmt 4.6, Leading zero omitted, Abs format (unit mm)*
G04 Created by KiCad (PCBNEW (2015-01-16 BZR 5376)-product) date 27-Apr-17 6:47:25 PM*
%MOMM*%
G01*
G04 APERTURE LIST*
%ADD10C,0.100000*%
%ADD11C,0.300000*%
%ADD12C,0.225000*%
%ADD13C,0.150000*%
%ADD14C,0.010000*%
%ADD15C,0.002540*%
G04 APERTURE END LIST*
D10*
D11*
X86496256Y-163102171D02*
X86139113Y-164102171D01*
X85781971Y-163102171D01*
X84424828Y-164102171D02*
X85281971Y-164102171D01*
X84853399Y-164102171D02*
X84853399Y-162602171D01*
X84996256Y-162816457D01*
X85139114Y-162959314D01*
X85281971Y-163030743D01*
X83781971Y-163959314D02*
X83710543Y-164030743D01*
X83781971Y-164102171D01*
X83853400Y-164030743D01*
X83781971Y-163959314D01*
X83781971Y-164102171D01*
X82781971Y-162602171D02*
X82639114Y-162602171D01*
X82496257Y-162673600D01*
X82424828Y-162745029D01*
X82353399Y-162887886D01*
X82281971Y-163173600D01*
X82281971Y-163530743D01*
X82353399Y-163816457D01*
X82424828Y-163959314D01*
X82496257Y-164030743D01*
X82639114Y-164102171D01*
X82781971Y-164102171D01*
X82924828Y-164030743D01*
X82996257Y-163959314D01*
X83067685Y-163816457D01*
X83139114Y-163530743D01*
X83139114Y-163173600D01*
X83067685Y-162887886D01*
X82996257Y-162745029D01*
X82924828Y-162673600D01*
X82781971Y-162602171D01*
D12*
X85289116Y-151548314D02*
X84989116Y-151548314D01*
X84860545Y-152019743D02*
X85289116Y-152019743D01*
X85289116Y-151119743D01*
X84860545Y-151119743D01*
X84560545Y-152019743D02*
X84089116Y-151419743D01*
X84560545Y-151419743D02*
X84089116Y-152019743D01*
X83746259Y-151419743D02*
X83746259Y-152319743D01*
X83746259Y-151462600D02*
X83660545Y-151419743D01*
X83489116Y-151419743D01*
X83403402Y-151462600D01*
X83360545Y-151505457D01*
X83317688Y-151591171D01*
X83317688Y-151848314D01*
X83360545Y-151934029D01*
X83403402Y-151976886D01*
X83489116Y-152019743D01*
X83660545Y-152019743D01*
X83746259Y-151976886D01*
X82803402Y-152019743D02*
X82889116Y-151976886D01*
X82931973Y-151891171D01*
X82931973Y-151119743D01*
X82331973Y-152019743D02*
X82417687Y-151976886D01*
X82460544Y-151934029D01*
X82503401Y-151848314D01*
X82503401Y-151591171D01*
X82460544Y-151505457D01*
X82417687Y-151462600D01*
X82331973Y-151419743D01*
X82203401Y-151419743D01*
X82117687Y-151462600D01*
X82074830Y-151505457D01*
X82031973Y-151591171D01*
X82031973Y-151848314D01*
X82074830Y-151934029D01*
X82117687Y-151976886D01*
X82203401Y-152019743D01*
X82331973Y-152019743D01*
X81646258Y-152019743D02*
X81646258Y-151419743D01*
X81646258Y-151591171D02*
X81603401Y-151505457D01*
X81560544Y-151462600D01*
X81474830Y-151419743D01*
X81389115Y-151419743D01*
X80746258Y-151976886D02*
X80831972Y-152019743D01*
X81003401Y-152019743D01*
X81089115Y-151976886D01*
X81131972Y-151891171D01*
X81131972Y-151548314D01*
X81089115Y-151462600D01*
X81003401Y-151419743D01*
X80831972Y-151419743D01*
X80746258Y-151462600D01*
X80703401Y-151548314D01*
X80703401Y-151634029D01*
X81131972Y-151719743D01*
X80317686Y-151548314D02*
X80017686Y-151548314D01*
X79889115Y-152019743D02*
X80317686Y-152019743D01*
X80317686Y-151119743D01*
X79889115Y-151119743D01*
X79503400Y-152019743D02*
X79503400Y-151419743D01*
X79503400Y-151505457D02*
X79460543Y-151462600D01*
X79374829Y-151419743D01*
X79246257Y-151419743D01*
X79160543Y-151462600D01*
X79117686Y-151548314D01*
X79117686Y-152019743D01*
X79117686Y-151548314D02*
X79074829Y-151462600D01*
X78989115Y-151419743D01*
X78860543Y-151419743D01*
X78774829Y-151462600D01*
X78731972Y-151548314D01*
X78731972Y-152019743D01*
X78303400Y-152019743D02*
X78303400Y-151119743D01*
X78303400Y-151462600D02*
X78217686Y-151419743D01*
X78046257Y-151419743D01*
X77960543Y-151462600D01*
X77917686Y-151505457D01*
X77874829Y-151591171D01*
X77874829Y-151848314D01*
X77917686Y-151934029D01*
X77960543Y-151976886D01*
X78046257Y-152019743D01*
X78217686Y-152019743D01*
X78303400Y-151976886D01*
X77146257Y-151976886D02*
X77231971Y-152019743D01*
X77403400Y-152019743D01*
X77489114Y-151976886D01*
X77531971Y-151891171D01*
X77531971Y-151548314D01*
X77489114Y-151462600D01*
X77403400Y-151419743D01*
X77231971Y-151419743D01*
X77146257Y-151462600D01*
X77103400Y-151548314D01*
X77103400Y-151634029D01*
X77531971Y-151719743D01*
X76331971Y-152019743D02*
X76331971Y-151119743D01*
X76331971Y-151976886D02*
X76417685Y-152019743D01*
X76589114Y-152019743D01*
X76674828Y-151976886D01*
X76717685Y-151934029D01*
X76760542Y-151848314D01*
X76760542Y-151591171D01*
X76717685Y-151505457D01*
X76674828Y-151462600D01*
X76589114Y-151419743D01*
X76417685Y-151419743D01*
X76331971Y-151462600D01*
X75517685Y-152019743D02*
X75517685Y-151119743D01*
X75517685Y-151976886D02*
X75603399Y-152019743D01*
X75774828Y-152019743D01*
X75860542Y-151976886D01*
X75903399Y-151934029D01*
X75946256Y-151848314D01*
X75946256Y-151591171D01*
X75903399Y-151505457D01*
X75860542Y-151462600D01*
X75774828Y-151419743D01*
X75603399Y-151419743D01*
X75517685Y-151462600D01*
X74746256Y-151976886D02*
X74831970Y-152019743D01*
X75003399Y-152019743D01*
X75089113Y-151976886D01*
X75131970Y-151891171D01*
X75131970Y-151548314D01*
X75089113Y-151462600D01*
X75003399Y-151419743D01*
X74831970Y-151419743D01*
X74746256Y-151462600D01*
X74703399Y-151548314D01*
X74703399Y-151634029D01*
X75131970Y-151719743D01*
X73931970Y-152019743D02*
X73931970Y-151119743D01*
X73931970Y-151976886D02*
X74017684Y-152019743D01*
X74189113Y-152019743D01*
X74274827Y-151976886D01*
X74317684Y-151934029D01*
X74360541Y-151848314D01*
X74360541Y-151591171D01*
X74317684Y-151505457D01*
X74274827Y-151462600D01*
X74189113Y-151419743D01*
X74017684Y-151419743D01*
X73931970Y-151462600D01*
X73503398Y-151934029D02*
X73460541Y-151976886D01*
X73503398Y-152019743D01*
X73546255Y-151976886D01*
X73503398Y-151934029D01*
X73503398Y-152019743D01*
X72689113Y-151976886D02*
X72774827Y-152019743D01*
X72946256Y-152019743D01*
X73031970Y-151976886D01*
X73074827Y-151934029D01*
X73117684Y-151848314D01*
X73117684Y-151591171D01*
X73074827Y-151505457D01*
X73031970Y-151462600D01*
X72946256Y-151419743D01*
X72774827Y-151419743D01*
X72689113Y-151462600D01*
X72174827Y-152019743D02*
X72260541Y-151976886D01*
X72303398Y-151934029D01*
X72346255Y-151848314D01*
X72346255Y-151591171D01*
X72303398Y-151505457D01*
X72260541Y-151462600D01*
X72174827Y-151419743D01*
X72046255Y-151419743D01*
X71960541Y-151462600D01*
X71917684Y-151505457D01*
X71874827Y-151591171D01*
X71874827Y-151848314D01*
X71917684Y-151934029D01*
X71960541Y-151976886D01*
X72046255Y-152019743D01*
X72174827Y-152019743D01*
X71489112Y-152019743D02*
X71489112Y-151419743D01*
X71489112Y-151505457D02*
X71446255Y-151462600D01*
X71360541Y-151419743D01*
X71231969Y-151419743D01*
X71146255Y-151462600D01*
X71103398Y-151548314D01*
X71103398Y-152019743D01*
X71103398Y-151548314D02*
X71060541Y-151462600D01*
X70974827Y-151419743D01*
X70846255Y-151419743D01*
X70760541Y-151462600D01*
X70717684Y-151548314D01*
X70717684Y-152019743D01*
D13*
X107358112Y-144526000D02*
G75*
G03X107358112Y-144526000I-23030112J0D01*
G01*
D14*
G36*
X90476546Y-139346328D02*
X90561667Y-139555998D01*
X90699908Y-139855955D01*
X90876499Y-140217450D01*
X91076668Y-140611733D01*
X91285645Y-141010055D01*
X91488661Y-141383666D01*
X91670943Y-141703816D01*
X91817723Y-141941755D01*
X91892490Y-142045267D01*
X92073618Y-142307760D01*
X92270162Y-142685376D01*
X92487629Y-143190843D01*
X92731524Y-143836893D01*
X92988516Y-144579904D01*
X93195941Y-145190017D01*
X93394448Y-145756603D01*
X93575141Y-146255512D01*
X93729123Y-146662593D01*
X93847497Y-146953696D01*
X93914456Y-147093582D01*
X93989085Y-147123268D01*
X94109824Y-147162340D01*
X94297624Y-147162731D01*
X94492533Y-147026688D01*
X94504479Y-147014885D01*
X94694967Y-146710401D01*
X94782562Y-146299877D01*
X94767887Y-145811286D01*
X94651562Y-145272599D01*
X94454281Y-144754600D01*
X94322405Y-144467160D01*
X94161113Y-144112944D01*
X94038283Y-143841604D01*
X93668504Y-143135335D01*
X93156883Y-142340795D01*
X92504786Y-141460072D01*
X92372319Y-141292204D01*
X92062155Y-140913053D01*
X91733656Y-140529303D01*
X91406112Y-140161491D01*
X91098816Y-139830155D01*
X90831060Y-139555832D01*
X90622135Y-139359059D01*
X90491334Y-139260375D01*
X90459314Y-139255696D01*
X90476546Y-139346328D01*
X90476546Y-139346328D01*
G37*
X90476546Y-139346328D02*
X90561667Y-139555998D01*
X90699908Y-139855955D01*
X90876499Y-140217450D01*
X91076668Y-140611733D01*
X91285645Y-141010055D01*
X91488661Y-141383666D01*
X91670943Y-141703816D01*
X91817723Y-141941755D01*
X91892490Y-142045267D01*
X92073618Y-142307760D01*
X92270162Y-142685376D01*
X92487629Y-143190843D01*
X92731524Y-143836893D01*
X92988516Y-144579904D01*
X93195941Y-145190017D01*
X93394448Y-145756603D01*
X93575141Y-146255512D01*
X93729123Y-146662593D01*
X93847497Y-146953696D01*
X93914456Y-147093582D01*
X93989085Y-147123268D01*
X94109824Y-147162340D01*
X94297624Y-147162731D01*
X94492533Y-147026688D01*
X94504479Y-147014885D01*
X94694967Y-146710401D01*
X94782562Y-146299877D01*
X94767887Y-145811286D01*
X94651562Y-145272599D01*
X94454281Y-144754600D01*
X94322405Y-144467160D01*
X94161113Y-144112944D01*
X94038283Y-143841604D01*
X93668504Y-143135335D01*
X93156883Y-142340795D01*
X92504786Y-141460072D01*
X92372319Y-141292204D01*
X92062155Y-140913053D01*
X91733656Y-140529303D01*
X91406112Y-140161491D01*
X91098816Y-139830155D01*
X90831060Y-139555832D01*
X90622135Y-139359059D01*
X90491334Y-139260375D01*
X90459314Y-139255696D01*
X90476546Y-139346328D01*
G36*
X89575924Y-139900067D02*
X89644402Y-140135515D01*
X89790043Y-140504276D01*
X90014679Y-141010947D01*
X90320145Y-141660125D01*
X90362856Y-141748934D01*
X90599108Y-142246195D01*
X90774968Y-142642125D01*
X90907085Y-142986185D01*
X91012104Y-143327839D01*
X91106674Y-143716549D01*
X91207440Y-144201777D01*
X91234591Y-144339082D01*
X91333006Y-144817511D01*
X91432019Y-145260661D01*
X91522688Y-145631081D01*
X91596074Y-145891320D01*
X91623698Y-145968915D01*
X91729233Y-146173497D01*
X91855252Y-146261093D01*
X92043379Y-146278600D01*
X92264864Y-146249811D01*
X92411868Y-146179799D01*
X92418118Y-146172767D01*
X92607310Y-145863026D01*
X92737536Y-145511653D01*
X92776817Y-145245638D01*
X92740962Y-144966372D01*
X92644864Y-144579349D01*
X92503644Y-144128447D01*
X92332426Y-143657545D01*
X92146333Y-143210522D01*
X91960488Y-142831257D01*
X91919747Y-142758876D01*
X91709785Y-142419797D01*
X91449602Y-142033628D01*
X91156004Y-141621692D01*
X90845794Y-141205313D01*
X90535776Y-140805817D01*
X90242757Y-140444527D01*
X89983539Y-140142767D01*
X89774927Y-139921862D01*
X89633726Y-139803136D01*
X89582776Y-139793336D01*
X89575924Y-139900067D01*
X89575924Y-139900067D01*
G37*
X89575924Y-139900067D02*
X89644402Y-140135515D01*
X89790043Y-140504276D01*
X90014679Y-141010947D01*
X90320145Y-141660125D01*
X90362856Y-141748934D01*
X90599108Y-142246195D01*
X90774968Y-142642125D01*
X90907085Y-142986185D01*
X91012104Y-143327839D01*
X91106674Y-143716549D01*
X91207440Y-144201777D01*
X91234591Y-144339082D01*
X91333006Y-144817511D01*
X91432019Y-145260661D01*
X91522688Y-145631081D01*
X91596074Y-145891320D01*
X91623698Y-145968915D01*
X91729233Y-146173497D01*
X91855252Y-146261093D01*
X92043379Y-146278600D01*
X92264864Y-146249811D01*
X92411868Y-146179799D01*
X92418118Y-146172767D01*
X92607310Y-145863026D01*
X92737536Y-145511653D01*
X92776817Y-145245638D01*
X92740962Y-144966372D01*
X92644864Y-144579349D01*
X92503644Y-144128447D01*
X92332426Y-143657545D01*
X92146333Y-143210522D01*
X91960488Y-142831257D01*
X91919747Y-142758876D01*
X91709785Y-142419797D01*
X91449602Y-142033628D01*
X91156004Y-141621692D01*
X90845794Y-141205313D01*
X90535776Y-140805817D01*
X90242757Y-140444527D01*
X89983539Y-140142767D01*
X89774927Y-139921862D01*
X89633726Y-139803136D01*
X89582776Y-139793336D01*
X89575924Y-139900067D01*
G36*
X88780064Y-140255888D02*
X88794068Y-140440160D01*
X88832181Y-140682033D01*
X88886109Y-140928122D01*
X88943169Y-141113934D01*
X89109248Y-141547101D01*
X89230924Y-141886536D01*
X89316294Y-142174186D01*
X89373457Y-142451998D01*
X89410510Y-142761919D01*
X89435552Y-143145896D01*
X89456679Y-143645876D01*
X89462729Y-143805290D01*
X89486084Y-144367102D01*
X89511923Y-144781896D01*
X89546803Y-145071938D01*
X89597284Y-145259493D01*
X89669924Y-145366827D01*
X89771282Y-145416207D01*
X89907917Y-145429898D01*
X89941400Y-145430321D01*
X90128805Y-145387876D01*
X90352195Y-145283635D01*
X90364733Y-145276097D01*
X90652187Y-145010663D01*
X90831831Y-144624998D01*
X90859948Y-144513323D01*
X90873224Y-144223755D01*
X90824054Y-143829664D01*
X90724859Y-143378411D01*
X90588058Y-142917358D01*
X90426071Y-142493868D01*
X90251317Y-142155300D01*
X90234940Y-142129934D01*
X90117719Y-141949824D01*
X89947758Y-141685556D01*
X89771999Y-141410267D01*
X89544273Y-141068549D01*
X89310884Y-140745743D01*
X89095167Y-140471276D01*
X88920458Y-140274573D01*
X88810091Y-140185061D01*
X88798465Y-140182600D01*
X88780064Y-140255888D01*
X88780064Y-140255888D01*
G37*
X88780064Y-140255888D02*
X88794068Y-140440160D01*
X88832181Y-140682033D01*
X88886109Y-140928122D01*
X88943169Y-141113934D01*
X89109248Y-141547101D01*
X89230924Y-141886536D01*
X89316294Y-142174186D01*
X89373457Y-142451998D01*
X89410510Y-142761919D01*
X89435552Y-143145896D01*
X89456679Y-143645876D01*
X89462729Y-143805290D01*
X89486084Y-144367102D01*
X89511923Y-144781896D01*
X89546803Y-145071938D01*
X89597284Y-145259493D01*
X89669924Y-145366827D01*
X89771282Y-145416207D01*
X89907917Y-145429898D01*
X89941400Y-145430321D01*
X90128805Y-145387876D01*
X90352195Y-145283635D01*
X90364733Y-145276097D01*
X90652187Y-145010663D01*
X90831831Y-144624998D01*
X90859948Y-144513323D01*
X90873224Y-144223755D01*
X90824054Y-143829664D01*
X90724859Y-143378411D01*
X90588058Y-142917358D01*
X90426071Y-142493868D01*
X90251317Y-142155300D01*
X90234940Y-142129934D01*
X90117719Y-141949824D01*
X89947758Y-141685556D01*
X89771999Y-141410267D01*
X89544273Y-141068549D01*
X89310884Y-140745743D01*
X89095167Y-140471276D01*
X88920458Y-140274573D01*
X88810091Y-140185061D01*
X88798465Y-140182600D01*
X88780064Y-140255888D01*
G36*
X88029711Y-140790227D02*
X88013988Y-140922733D01*
X88028656Y-141174779D01*
X88070308Y-141499977D01*
X88090920Y-141624136D01*
X88149145Y-141983105D01*
X88175910Y-142268756D01*
X88167434Y-142532329D01*
X88119936Y-142825064D01*
X88029636Y-143198201D01*
X87954017Y-143479502D01*
X87868926Y-143817681D01*
X87836995Y-144027878D01*
X87855219Y-144141858D01*
X87888068Y-144176705D01*
X88139870Y-144242153D01*
X88477184Y-144188826D01*
X88776217Y-144068855D01*
X89019348Y-143921921D01*
X89156225Y-143748479D01*
X89229444Y-143540631D01*
X89279063Y-143217698D01*
X89279375Y-142875263D01*
X89273356Y-142821594D01*
X89206778Y-142549749D01*
X89083270Y-142227914D01*
X88919364Y-141883094D01*
X88731593Y-141542294D01*
X88536490Y-141232519D01*
X88350589Y-140980775D01*
X88190422Y-140814066D01*
X88072524Y-140759399D01*
X88029711Y-140790227D01*
X88029711Y-140790227D01*
G37*
X88029711Y-140790227D02*
X88013988Y-140922733D01*
X88028656Y-141174779D01*
X88070308Y-141499977D01*
X88090920Y-141624136D01*
X88149145Y-141983105D01*
X88175910Y-142268756D01*
X88167434Y-142532329D01*
X88119936Y-142825064D01*
X88029636Y-143198201D01*
X87954017Y-143479502D01*
X87868926Y-143817681D01*
X87836995Y-144027878D01*
X87855219Y-144141858D01*
X87888068Y-144176705D01*
X88139870Y-144242153D01*
X88477184Y-144188826D01*
X88776217Y-144068855D01*
X89019348Y-143921921D01*
X89156225Y-143748479D01*
X89229444Y-143540631D01*
X89279063Y-143217698D01*
X89279375Y-142875263D01*
X89273356Y-142821594D01*
X89206778Y-142549749D01*
X89083270Y-142227914D01*
X88919364Y-141883094D01*
X88731593Y-141542294D01*
X88536490Y-141232519D01*
X88350589Y-140980775D01*
X88190422Y-140814066D01*
X88072524Y-140759399D01*
X88029711Y-140790227D01*
G36*
X85275178Y-140803424D02*
X85342418Y-140937719D01*
X85385985Y-141050150D01*
X85351135Y-141171637D01*
X85219432Y-141346592D01*
X85131469Y-141445963D01*
X84955907Y-141669713D01*
X84842575Y-141870644D01*
X84819066Y-141960844D01*
X84894074Y-142191763D01*
X85087975Y-142364041D01*
X85354087Y-142454511D01*
X85645728Y-142440007D01*
X85729233Y-142412527D01*
X85814741Y-142303312D01*
X85835066Y-142188706D01*
X85835066Y-142007589D01*
X85703266Y-142195761D01*
X85526018Y-142340227D01*
X85314277Y-142375029D01*
X85122065Y-142310446D01*
X85003408Y-142156754D01*
X84988400Y-142059762D01*
X85041854Y-141931498D01*
X85178489Y-141736469D01*
X85284733Y-141610785D01*
X85490561Y-141354463D01*
X85569141Y-141164558D01*
X85528661Y-141005845D01*
X85448019Y-140908314D01*
X85312408Y-140791515D01*
X85275178Y-140803424D01*
X85275178Y-140803424D01*
G37*
X85275178Y-140803424D02*
X85342418Y-140937719D01*
X85385985Y-141050150D01*
X85351135Y-141171637D01*
X85219432Y-141346592D01*
X85131469Y-141445963D01*
X84955907Y-141669713D01*
X84842575Y-141870644D01*
X84819066Y-141960844D01*
X84894074Y-142191763D01*
X85087975Y-142364041D01*
X85354087Y-142454511D01*
X85645728Y-142440007D01*
X85729233Y-142412527D01*
X85814741Y-142303312D01*
X85835066Y-142188706D01*
X85835066Y-142007589D01*
X85703266Y-142195761D01*
X85526018Y-142340227D01*
X85314277Y-142375029D01*
X85122065Y-142310446D01*
X85003408Y-142156754D01*
X84988400Y-142059762D01*
X85041854Y-141931498D01*
X85178489Y-141736469D01*
X85284733Y-141610785D01*
X85490561Y-141354463D01*
X85569141Y-141164558D01*
X85528661Y-141005845D01*
X85448019Y-140908314D01*
X85312408Y-140791515D01*
X85275178Y-140803424D01*
G36*
X83256780Y-140819639D02*
X83090316Y-140963366D01*
X83058949Y-141041270D01*
X83098907Y-141223811D01*
X83249085Y-141430840D01*
X83465171Y-141617613D01*
X83702854Y-141739385D01*
X83766359Y-141755575D01*
X83961325Y-141811790D01*
X84058857Y-141921296D01*
X84110743Y-142139454D01*
X84167702Y-142347781D01*
X84244781Y-142461483D01*
X84267424Y-142468600D01*
X84312751Y-142427906D01*
X84317640Y-142289354D01*
X84280865Y-142028237D01*
X84233099Y-141776377D01*
X84155824Y-141450218D01*
X84075947Y-141206008D01*
X84004399Y-141059617D01*
X83952108Y-141026915D01*
X83930006Y-141123772D01*
X83948657Y-141363359D01*
X83960222Y-141603573D01*
X83915092Y-141704586D01*
X83902865Y-141706600D01*
X83657428Y-141638679D01*
X83423750Y-141471516D01*
X83299761Y-141302091D01*
X83264265Y-141084130D01*
X83356066Y-140923027D01*
X83539984Y-140827943D01*
X83780837Y-140808041D01*
X84043445Y-140872485D01*
X84292628Y-141030436D01*
X84303740Y-141040613D01*
X84427748Y-141131245D01*
X84480385Y-141120285D01*
X84480400Y-141119184D01*
X84405321Y-140997241D01*
X84212779Y-140872104D01*
X83951813Y-140771408D01*
X83803066Y-140737488D01*
X83512289Y-140737029D01*
X83256780Y-140819639D01*
X83256780Y-140819639D01*
G37*
X83256780Y-140819639D02*
X83090316Y-140963366D01*
X83058949Y-141041270D01*
X83098907Y-141223811D01*
X83249085Y-141430840D01*
X83465171Y-141617613D01*
X83702854Y-141739385D01*
X83766359Y-141755575D01*
X83961325Y-141811790D01*
X84058857Y-141921296D01*
X84110743Y-142139454D01*
X84167702Y-142347781D01*
X84244781Y-142461483D01*
X84267424Y-142468600D01*
X84312751Y-142427906D01*
X84317640Y-142289354D01*
X84280865Y-142028237D01*
X84233099Y-141776377D01*
X84155824Y-141450218D01*
X84075947Y-141206008D01*
X84004399Y-141059617D01*
X83952108Y-141026915D01*
X83930006Y-141123772D01*
X83948657Y-141363359D01*
X83960222Y-141603573D01*
X83915092Y-141704586D01*
X83902865Y-141706600D01*
X83657428Y-141638679D01*
X83423750Y-141471516D01*
X83299761Y-141302091D01*
X83264265Y-141084130D01*
X83356066Y-140923027D01*
X83539984Y-140827943D01*
X83780837Y-140808041D01*
X84043445Y-140872485D01*
X84292628Y-141030436D01*
X84303740Y-141040613D01*
X84427748Y-141131245D01*
X84480385Y-141120285D01*
X84480400Y-141119184D01*
X84405321Y-140997241D01*
X84212779Y-140872104D01*
X83951813Y-140771408D01*
X83803066Y-140737488D01*
X83512289Y-140737029D01*
X83256780Y-140819639D01*
G36*
X78788979Y-140603898D02*
X78720823Y-140743024D01*
X78623274Y-140995394D01*
X78510135Y-141310696D01*
X78385379Y-141604519D01*
X78261431Y-141753034D01*
X78125903Y-141752929D01*
X77966410Y-141600894D01*
X77770565Y-141293621D01*
X77656052Y-141082475D01*
X77527416Y-140870124D01*
X77420381Y-140751182D01*
X77371660Y-140743808D01*
X77348771Y-140858172D01*
X77350761Y-141092696D01*
X77376862Y-141400158D01*
X77383178Y-141452600D01*
X77417658Y-141788794D01*
X77433968Y-142080230D01*
X77428967Y-142268193D01*
X77427351Y-142278100D01*
X77439772Y-142434806D01*
X77518073Y-142468600D01*
X77579015Y-142443909D01*
X77609531Y-142348982D01*
X77612727Y-142152544D01*
X77591711Y-141823316D01*
X77587441Y-141770100D01*
X77530618Y-141071600D01*
X77792898Y-141521370D01*
X78003560Y-141817756D01*
X78193901Y-141946808D01*
X78366584Y-141908958D01*
X78524270Y-141704638D01*
X78553733Y-141644933D01*
X78652765Y-141463507D01*
X78731380Y-141372253D01*
X78740029Y-141369766D01*
X78779915Y-141445421D01*
X78823936Y-141643977D01*
X78856798Y-141875934D01*
X78898209Y-142143539D01*
X78947979Y-142327586D01*
X78988003Y-142383934D01*
X79052142Y-142307582D01*
X79044497Y-142079720D01*
X78965210Y-141702136D01*
X78920962Y-141536385D01*
X78844177Y-141213615D01*
X78829558Y-140994057D01*
X78873735Y-140824785D01*
X78875436Y-140821020D01*
X78923942Y-140636196D01*
X78889567Y-140561849D01*
X78840856Y-140552133D01*
X78788979Y-140603898D01*
X78788979Y-140603898D01*
G37*
X78788979Y-140603898D02*
X78720823Y-140743024D01*
X78623274Y-140995394D01*
X78510135Y-141310696D01*
X78385379Y-141604519D01*
X78261431Y-141753034D01*
X78125903Y-141752929D01*
X77966410Y-141600894D01*
X77770565Y-141293621D01*
X77656052Y-141082475D01*
X77527416Y-140870124D01*
X77420381Y-140751182D01*
X77371660Y-140743808D01*
X77348771Y-140858172D01*
X77350761Y-141092696D01*
X77376862Y-141400158D01*
X77383178Y-141452600D01*
X77417658Y-141788794D01*
X77433968Y-142080230D01*
X77428967Y-142268193D01*
X77427351Y-142278100D01*
X77439772Y-142434806D01*
X77518073Y-142468600D01*
X77579015Y-142443909D01*
X77609531Y-142348982D01*
X77612727Y-142152544D01*
X77591711Y-141823316D01*
X77587441Y-141770100D01*
X77530618Y-141071600D01*
X77792898Y-141521370D01*
X78003560Y-141817756D01*
X78193901Y-141946808D01*
X78366584Y-141908958D01*
X78524270Y-141704638D01*
X78553733Y-141644933D01*
X78652765Y-141463507D01*
X78731380Y-141372253D01*
X78740029Y-141369766D01*
X78779915Y-141445421D01*
X78823936Y-141643977D01*
X78856798Y-141875934D01*
X78898209Y-142143539D01*
X78947979Y-142327586D01*
X78988003Y-142383934D01*
X79052142Y-142307582D01*
X79044497Y-142079720D01*
X78965210Y-141702136D01*
X78920962Y-141536385D01*
X78844177Y-141213615D01*
X78829558Y-140994057D01*
X78873735Y-140824785D01*
X78875436Y-140821020D01*
X78923942Y-140636196D01*
X78889567Y-140561849D01*
X78840856Y-140552133D01*
X78788979Y-140603898D01*
G36*
X86052023Y-140755834D02*
X85910504Y-140772253D01*
X85889002Y-140794039D01*
X85992207Y-140836519D01*
X86196697Y-140858909D01*
X86254338Y-140859934D01*
X86509529Y-140895300D01*
X86641516Y-141022853D01*
X86681564Y-141274771D01*
X86681733Y-141299801D01*
X86652493Y-141418547D01*
X86532797Y-141446191D01*
X86432205Y-141435196D01*
X86271483Y-141429261D01*
X86223952Y-141465036D01*
X86225535Y-141467920D01*
X86332913Y-141518589D01*
X86506813Y-141537267D01*
X86682772Y-141566736D01*
X86770007Y-141689167D01*
X86797772Y-141799963D01*
X86823066Y-142033687D01*
X86759416Y-142160268D01*
X86576366Y-142212035D01*
X86401570Y-142220551D01*
X86196703Y-142231098D01*
X86145515Y-142257473D01*
X86216066Y-142299267D01*
X86464077Y-142365873D01*
X86716859Y-142374101D01*
X86914102Y-142327301D01*
X86990027Y-142256296D01*
X87008439Y-142089728D01*
X86987540Y-141855401D01*
X86983533Y-141832963D01*
X86964258Y-141618390D01*
X87016938Y-141538800D01*
X87032746Y-141537267D01*
X87073240Y-141501910D01*
X87004404Y-141431434D01*
X86887256Y-141272926D01*
X86814592Y-141082075D01*
X86788295Y-140913528D01*
X86846280Y-140863838D01*
X86980190Y-140881062D01*
X87117741Y-140891660D01*
X87132653Y-140857993D01*
X87024625Y-140821111D01*
X86815197Y-140790019D01*
X86551720Y-140767153D01*
X86281545Y-140754946D01*
X86052023Y-140755834D01*
X86052023Y-140755834D01*
G37*
X86052023Y-140755834D02*
X85910504Y-140772253D01*
X85889002Y-140794039D01*
X85992207Y-140836519D01*
X86196697Y-140858909D01*
X86254338Y-140859934D01*
X86509529Y-140895300D01*
X86641516Y-141022853D01*
X86681564Y-141274771D01*
X86681733Y-141299801D01*
X86652493Y-141418547D01*
X86532797Y-141446191D01*
X86432205Y-141435196D01*
X86271483Y-141429261D01*
X86223952Y-141465036D01*
X86225535Y-141467920D01*
X86332913Y-141518589D01*
X86506813Y-141537267D01*
X86682772Y-141566736D01*
X86770007Y-141689167D01*
X86797772Y-141799963D01*
X86823066Y-142033687D01*
X86759416Y-142160268D01*
X86576366Y-142212035D01*
X86401570Y-142220551D01*
X86196703Y-142231098D01*
X86145515Y-142257473D01*
X86216066Y-142299267D01*
X86464077Y-142365873D01*
X86716859Y-142374101D01*
X86914102Y-142327301D01*
X86990027Y-142256296D01*
X87008439Y-142089728D01*
X86987540Y-141855401D01*
X86983533Y-141832963D01*
X86964258Y-141618390D01*
X87016938Y-141538800D01*
X87032746Y-141537267D01*
X87073240Y-141501910D01*
X87004404Y-141431434D01*
X86887256Y-141272926D01*
X86814592Y-141082075D01*
X86788295Y-140913528D01*
X86846280Y-140863838D01*
X86980190Y-140881062D01*
X87117741Y-140891660D01*
X87132653Y-140857993D01*
X87024625Y-140821111D01*
X86815197Y-140790019D01*
X86551720Y-140767153D01*
X86281545Y-140754946D01*
X86052023Y-140755834D01*
G36*
X81982010Y-140760191D02*
X81806560Y-140897583D01*
X81795662Y-141074908D01*
X81949318Y-141292178D01*
X81951813Y-141294680D01*
X82068305Y-141427523D01*
X82065295Y-141503437D01*
X81994147Y-141552888D01*
X81878215Y-141702133D01*
X81860189Y-141918569D01*
X81935271Y-142134758D01*
X82043905Y-142252133D01*
X82315755Y-142363554D01*
X82608338Y-142366768D01*
X82787066Y-142298089D01*
X82831245Y-142249057D01*
X82726255Y-142252030D01*
X82649243Y-142265566D01*
X82348140Y-142270932D01*
X82135798Y-142170053D01*
X82040821Y-141980528D01*
X82041159Y-141891406D01*
X82090787Y-141727778D01*
X82224721Y-141654880D01*
X82344174Y-141637616D01*
X82522039Y-141588500D01*
X82565333Y-141515640D01*
X82467846Y-141460549D01*
X82371859Y-141452600D01*
X82204823Y-141393316D01*
X82062915Y-141278311D01*
X81965039Y-141086100D01*
X82015588Y-140928203D01*
X82193652Y-140839152D01*
X82333316Y-140831719D01*
X82494505Y-140836957D01*
X82498273Y-140812699D01*
X82384177Y-140754958D01*
X82149972Y-140709499D01*
X81982010Y-140760191D01*
X81982010Y-140760191D01*
G37*
X81982010Y-140760191D02*
X81806560Y-140897583D01*
X81795662Y-141074908D01*
X81949318Y-141292178D01*
X81951813Y-141294680D01*
X82068305Y-141427523D01*
X82065295Y-141503437D01*
X81994147Y-141552888D01*
X81878215Y-141702133D01*
X81860189Y-141918569D01*
X81935271Y-142134758D01*
X82043905Y-142252133D01*
X82315755Y-142363554D01*
X82608338Y-142366768D01*
X82787066Y-142298089D01*
X82831245Y-142249057D01*
X82726255Y-142252030D01*
X82649243Y-142265566D01*
X82348140Y-142270932D01*
X82135798Y-142170053D01*
X82040821Y-141980528D01*
X82041159Y-141891406D01*
X82090787Y-141727778D01*
X82224721Y-141654880D01*
X82344174Y-141637616D01*
X82522039Y-141588500D01*
X82565333Y-141515640D01*
X82467846Y-141460549D01*
X82371859Y-141452600D01*
X82204823Y-141393316D01*
X82062915Y-141278311D01*
X81965039Y-141086100D01*
X82015588Y-140928203D01*
X82193652Y-140839152D01*
X82333316Y-140831719D01*
X82494505Y-140836957D01*
X82498273Y-140812699D01*
X82384177Y-140754958D01*
X82149972Y-140709499D01*
X81982010Y-140760191D01*
G36*
X80386979Y-140823916D02*
X80331733Y-141031502D01*
X80386335Y-141239899D01*
X80559168Y-141504703D01*
X80747130Y-141724131D01*
X81162527Y-142178642D01*
X80734206Y-142175454D01*
X80484224Y-142188910D01*
X80315614Y-142226804D01*
X80276476Y-142256934D01*
X80337508Y-142295359D01*
X80516221Y-142323531D01*
X80761186Y-142339919D01*
X81020977Y-142342991D01*
X81244164Y-142331216D01*
X81379321Y-142303064D01*
X81395639Y-142290251D01*
X81354633Y-142212585D01*
X81214712Y-142072429D01*
X81110937Y-141984606D01*
X80858385Y-141738938D01*
X80659214Y-141465867D01*
X80538988Y-141208613D01*
X80523267Y-141010399D01*
X80527442Y-140997988D01*
X80644425Y-140895276D01*
X80838446Y-140859834D01*
X81026600Y-140903322D01*
X81057424Y-140923434D01*
X81067781Y-140923763D01*
X80980311Y-140838767D01*
X80754130Y-140705692D01*
X80542012Y-140705003D01*
X80386979Y-140823916D01*
X80386979Y-140823916D01*
G37*
X80386979Y-140823916D02*
X80331733Y-141031502D01*
X80386335Y-141239899D01*
X80559168Y-141504703D01*
X80747130Y-141724131D01*
X81162527Y-142178642D01*
X80734206Y-142175454D01*
X80484224Y-142188910D01*
X80315614Y-142226804D01*
X80276476Y-142256934D01*
X80337508Y-142295359D01*
X80516221Y-142323531D01*
X80761186Y-142339919D01*
X81020977Y-142342991D01*
X81244164Y-142331216D01*
X81379321Y-142303064D01*
X81395639Y-142290251D01*
X81354633Y-142212585D01*
X81214712Y-142072429D01*
X81110937Y-141984606D01*
X80858385Y-141738938D01*
X80659214Y-141465867D01*
X80538988Y-141208613D01*
X80523267Y-141010399D01*
X80527442Y-140997988D01*
X80644425Y-140895276D01*
X80838446Y-140859834D01*
X81026600Y-140903322D01*
X81057424Y-140923434D01*
X81067781Y-140923763D01*
X80980311Y-140838767D01*
X80754130Y-140705692D01*
X80542012Y-140705003D01*
X80386979Y-140823916D01*
G36*
X71256425Y-141212317D02*
X71213225Y-141279402D01*
X71210394Y-141438761D01*
X71236798Y-141706600D01*
X71262740Y-141991361D01*
X71254852Y-142145979D01*
X71207470Y-142207284D01*
X71158663Y-142214600D01*
X71046624Y-142148250D01*
X70952650Y-142048438D01*
X70548519Y-142048438D01*
X70493941Y-142189197D01*
X70436210Y-142214600D01*
X70325214Y-142166906D01*
X70243377Y-142108767D01*
X70082462Y-141943168D01*
X69931011Y-141733388D01*
X69820875Y-141531474D01*
X69783903Y-141389474D01*
X69790376Y-141368511D01*
X69904905Y-141307506D01*
X70096384Y-141283267D01*
X70280059Y-141312124D01*
X70400143Y-141429297D01*
X70476120Y-141585815D01*
X70543684Y-141829890D01*
X70548519Y-142048438D01*
X70952650Y-142048438D01*
X70882779Y-141974228D01*
X70702426Y-141730071D01*
X70700900Y-141727767D01*
X70525745Y-141471229D01*
X70394842Y-141324650D01*
X70260337Y-141255895D01*
X70074380Y-141232828D01*
X69957739Y-141228693D01*
X69536733Y-141216452D01*
X69565736Y-141673193D01*
X69564688Y-141968521D01*
X69508339Y-142112369D01*
X69387686Y-142106603D01*
X69193729Y-141953086D01*
X69032003Y-141783738D01*
X68854063Y-141601261D01*
X68722723Y-141493251D01*
X68677307Y-141479471D01*
X68709384Y-141556638D01*
X68834110Y-141717680D01*
X69015325Y-141917934D01*
X69298591Y-142175289D01*
X69510284Y-142280221D01*
X69652251Y-142232898D01*
X69726334Y-142033486D01*
X69732454Y-141982997D01*
X69758842Y-141710447D01*
X70079178Y-142047190D01*
X70311613Y-142271454D01*
X70472397Y-142366082D01*
X70589012Y-142338725D01*
X70679861Y-142214362D01*
X70747444Y-142106892D01*
X70821868Y-142096585D01*
X70960276Y-142185150D01*
X71013457Y-142224333D01*
X71228007Y-142346415D01*
X71363017Y-142329411D01*
X71424698Y-142167116D01*
X71419261Y-141853326D01*
X71416167Y-141822021D01*
X71402630Y-141559235D01*
X71422107Y-141398657D01*
X71449595Y-141367934D01*
X71538384Y-141432066D01*
X71683285Y-141597532D01*
X71803311Y-141758840D01*
X72027739Y-142077862D01*
X72169826Y-142263802D01*
X72245300Y-142321621D01*
X72269888Y-142256283D01*
X72259318Y-142072750D01*
X72241525Y-141897100D01*
X72223585Y-141612791D01*
X72234284Y-141424109D01*
X72264518Y-141367934D01*
X72342426Y-141435665D01*
X72475599Y-141614162D01*
X72636682Y-141866380D01*
X72653831Y-141895174D01*
X72804787Y-142138306D01*
X72918092Y-142298005D01*
X72972482Y-142344779D01*
X72974311Y-142339674D01*
X72977154Y-142204483D01*
X72972627Y-141985329D01*
X72971736Y-141960600D01*
X72960583Y-141664267D01*
X73161672Y-141886530D01*
X73451344Y-142161699D01*
X73704365Y-142316899D01*
X73903222Y-142348607D01*
X74030404Y-142253300D01*
X74069082Y-142069091D01*
X74071764Y-141833600D01*
X74245477Y-142066434D01*
X74426793Y-142235966D01*
X74614300Y-142303741D01*
X74764324Y-142266616D01*
X74833193Y-142121449D01*
X74833805Y-142108767D01*
X74855129Y-141753635D01*
X74893430Y-141474833D01*
X74942478Y-141314448D01*
X74953509Y-141299802D01*
X75039749Y-141318269D01*
X75177759Y-141453212D01*
X75340662Y-141671146D01*
X75501576Y-141938590D01*
X75562439Y-142058332D01*
X75695302Y-142292928D01*
X75788172Y-142369572D01*
X75833062Y-142288667D01*
X75821983Y-142050617D01*
X75821271Y-142045267D01*
X75798283Y-141834029D01*
X75795783Y-141715741D01*
X75800162Y-141706600D01*
X75868031Y-141761264D01*
X76018116Y-141902518D01*
X76163145Y-142045267D01*
X76444515Y-142285815D01*
X76656580Y-142376571D01*
X76796822Y-142316753D01*
X76831331Y-142252898D01*
X76851271Y-142093164D01*
X76841782Y-141855259D01*
X76810375Y-141610629D01*
X76764562Y-141430718D01*
X76740519Y-141389163D01*
X76663036Y-141364528D01*
X76637283Y-141481493D01*
X76666382Y-141719452D01*
X76680394Y-141785719D01*
X76720495Y-142022249D01*
X76699064Y-142144171D01*
X76640344Y-142187202D01*
X76458140Y-142173439D01*
X76240273Y-142033232D01*
X76022030Y-141793888D01*
X75910155Y-141622111D01*
X75753656Y-141381535D01*
X75650988Y-141299736D01*
X75604159Y-141376571D01*
X75615175Y-141611894D01*
X75619389Y-141643100D01*
X75643769Y-141853981D01*
X75631489Y-141919128D01*
X75577105Y-141859235D01*
X75566710Y-141843425D01*
X75332134Y-141521468D01*
X75115896Y-141299225D01*
X74942648Y-141201173D01*
X74917385Y-141198600D01*
X74825381Y-141232931D01*
X74766151Y-141359568D01*
X74724828Y-141613975D01*
X74718442Y-141673181D01*
X74683729Y-141941079D01*
X74645621Y-142133776D01*
X74621597Y-142195625D01*
X74531105Y-142182382D01*
X74388179Y-142066955D01*
X74231646Y-141889797D01*
X74100334Y-141691363D01*
X74062936Y-141613570D01*
X73956639Y-141414214D01*
X73878397Y-141374352D01*
X73838663Y-141485064D01*
X73847890Y-141737428D01*
X73854733Y-141791267D01*
X73882897Y-142041695D01*
X73870058Y-142167503D01*
X73805040Y-142210757D01*
X73742276Y-142214600D01*
X73597946Y-142151666D01*
X73404333Y-141993803D01*
X73205412Y-141787423D01*
X73045159Y-141578937D01*
X72967546Y-141414758D01*
X72965733Y-141395027D01*
X72940492Y-141277688D01*
X72883021Y-141289761D01*
X72820695Y-141402164D01*
X72780892Y-141585814D01*
X72780344Y-141591973D01*
X72754066Y-141900680D01*
X72542371Y-141571960D01*
X72381061Y-141366350D01*
X72222750Y-141233584D01*
X72170567Y-141212407D01*
X72075637Y-141211664D01*
X72037510Y-141284695D01*
X72043813Y-141470758D01*
X72055192Y-141578450D01*
X72070184Y-141793529D01*
X72059020Y-141903981D01*
X72041325Y-141904463D01*
X71958906Y-141797419D01*
X71819017Y-141609632D01*
X71750253Y-141516100D01*
X71565581Y-141313283D01*
X71393000Y-141206080D01*
X71348553Y-141198600D01*
X71256425Y-141212317D01*
X71256425Y-141212317D01*
G37*
X71256425Y-141212317D02*
X71213225Y-141279402D01*
X71210394Y-141438761D01*
X71236798Y-141706600D01*
X71262740Y-141991361D01*
X71254852Y-142145979D01*
X71207470Y-142207284D01*
X71158663Y-142214600D01*
X71046624Y-142148250D01*
X70952650Y-142048438D01*
X70548519Y-142048438D01*
X70493941Y-142189197D01*
X70436210Y-142214600D01*
X70325214Y-142166906D01*
X70243377Y-142108767D01*
X70082462Y-141943168D01*
X69931011Y-141733388D01*
X69820875Y-141531474D01*
X69783903Y-141389474D01*
X69790376Y-141368511D01*
X69904905Y-141307506D01*
X70096384Y-141283267D01*
X70280059Y-141312124D01*
X70400143Y-141429297D01*
X70476120Y-141585815D01*
X70543684Y-141829890D01*
X70548519Y-142048438D01*
X70952650Y-142048438D01*
X70882779Y-141974228D01*
X70702426Y-141730071D01*
X70700900Y-141727767D01*
X70525745Y-141471229D01*
X70394842Y-141324650D01*
X70260337Y-141255895D01*
X70074380Y-141232828D01*
X69957739Y-141228693D01*
X69536733Y-141216452D01*
X69565736Y-141673193D01*
X69564688Y-141968521D01*
X69508339Y-142112369D01*
X69387686Y-142106603D01*
X69193729Y-141953086D01*
X69032003Y-141783738D01*
X68854063Y-141601261D01*
X68722723Y-141493251D01*
X68677307Y-141479471D01*
X68709384Y-141556638D01*
X68834110Y-141717680D01*
X69015325Y-141917934D01*
X69298591Y-142175289D01*
X69510284Y-142280221D01*
X69652251Y-142232898D01*
X69726334Y-142033486D01*
X69732454Y-141982997D01*
X69758842Y-141710447D01*
X70079178Y-142047190D01*
X70311613Y-142271454D01*
X70472397Y-142366082D01*
X70589012Y-142338725D01*
X70679861Y-142214362D01*
X70747444Y-142106892D01*
X70821868Y-142096585D01*
X70960276Y-142185150D01*
X71013457Y-142224333D01*
X71228007Y-142346415D01*
X71363017Y-142329411D01*
X71424698Y-142167116D01*
X71419261Y-141853326D01*
X71416167Y-141822021D01*
X71402630Y-141559235D01*
X71422107Y-141398657D01*
X71449595Y-141367934D01*
X71538384Y-141432066D01*
X71683285Y-141597532D01*
X71803311Y-141758840D01*
X72027739Y-142077862D01*
X72169826Y-142263802D01*
X72245300Y-142321621D01*
X72269888Y-142256283D01*
X72259318Y-142072750D01*
X72241525Y-141897100D01*
X72223585Y-141612791D01*
X72234284Y-141424109D01*
X72264518Y-141367934D01*
X72342426Y-141435665D01*
X72475599Y-141614162D01*
X72636682Y-141866380D01*
X72653831Y-141895174D01*
X72804787Y-142138306D01*
X72918092Y-142298005D01*
X72972482Y-142344779D01*
X72974311Y-142339674D01*
X72977154Y-142204483D01*
X72972627Y-141985329D01*
X72971736Y-141960600D01*
X72960583Y-141664267D01*
X73161672Y-141886530D01*
X73451344Y-142161699D01*
X73704365Y-142316899D01*
X73903222Y-142348607D01*
X74030404Y-142253300D01*
X74069082Y-142069091D01*
X74071764Y-141833600D01*
X74245477Y-142066434D01*
X74426793Y-142235966D01*
X74614300Y-142303741D01*
X74764324Y-142266616D01*
X74833193Y-142121449D01*
X74833805Y-142108767D01*
X74855129Y-141753635D01*
X74893430Y-141474833D01*
X74942478Y-141314448D01*
X74953509Y-141299802D01*
X75039749Y-141318269D01*
X75177759Y-141453212D01*
X75340662Y-141671146D01*
X75501576Y-141938590D01*
X75562439Y-142058332D01*
X75695302Y-142292928D01*
X75788172Y-142369572D01*
X75833062Y-142288667D01*
X75821983Y-142050617D01*
X75821271Y-142045267D01*
X75798283Y-141834029D01*
X75795783Y-141715741D01*
X75800162Y-141706600D01*
X75868031Y-141761264D01*
X76018116Y-141902518D01*
X76163145Y-142045267D01*
X76444515Y-142285815D01*
X76656580Y-142376571D01*
X76796822Y-142316753D01*
X76831331Y-142252898D01*
X76851271Y-142093164D01*
X76841782Y-141855259D01*
X76810375Y-141610629D01*
X76764562Y-141430718D01*
X76740519Y-141389163D01*
X76663036Y-141364528D01*
X76637283Y-141481493D01*
X76666382Y-141719452D01*
X76680394Y-141785719D01*
X76720495Y-142022249D01*
X76699064Y-142144171D01*
X76640344Y-142187202D01*
X76458140Y-142173439D01*
X76240273Y-142033232D01*
X76022030Y-141793888D01*
X75910155Y-141622111D01*
X75753656Y-141381535D01*
X75650988Y-141299736D01*
X75604159Y-141376571D01*
X75615175Y-141611894D01*
X75619389Y-141643100D01*
X75643769Y-141853981D01*
X75631489Y-141919128D01*
X75577105Y-141859235D01*
X75566710Y-141843425D01*
X75332134Y-141521468D01*
X75115896Y-141299225D01*
X74942648Y-141201173D01*
X74917385Y-141198600D01*
X74825381Y-141232931D01*
X74766151Y-141359568D01*
X74724828Y-141613975D01*
X74718442Y-141673181D01*
X74683729Y-141941079D01*
X74645621Y-142133776D01*
X74621597Y-142195625D01*
X74531105Y-142182382D01*
X74388179Y-142066955D01*
X74231646Y-141889797D01*
X74100334Y-141691363D01*
X74062936Y-141613570D01*
X73956639Y-141414214D01*
X73878397Y-141374352D01*
X73838663Y-141485064D01*
X73847890Y-141737428D01*
X73854733Y-141791267D01*
X73882897Y-142041695D01*
X73870058Y-142167503D01*
X73805040Y-142210757D01*
X73742276Y-142214600D01*
X73597946Y-142151666D01*
X73404333Y-141993803D01*
X73205412Y-141787423D01*
X73045159Y-141578937D01*
X72967546Y-141414758D01*
X72965733Y-141395027D01*
X72940492Y-141277688D01*
X72883021Y-141289761D01*
X72820695Y-141402164D01*
X72780892Y-141585814D01*
X72780344Y-141591973D01*
X72754066Y-141900680D01*
X72542371Y-141571960D01*
X72381061Y-141366350D01*
X72222750Y-141233584D01*
X72170567Y-141212407D01*
X72075637Y-141211664D01*
X72037510Y-141284695D01*
X72043813Y-141470758D01*
X72055192Y-141578450D01*
X72070184Y-141793529D01*
X72059020Y-141903981D01*
X72041325Y-141904463D01*
X71958906Y-141797419D01*
X71819017Y-141609632D01*
X71750253Y-141516100D01*
X71565581Y-141313283D01*
X71393000Y-141206080D01*
X71348553Y-141198600D01*
X71256425Y-141212317D01*
G36*
X84339289Y-141650156D02*
X84350911Y-141700490D01*
X84395733Y-141706600D01*
X84465423Y-141675622D01*
X84452178Y-141650156D01*
X84351698Y-141640023D01*
X84339289Y-141650156D01*
X84339289Y-141650156D01*
G37*
X84339289Y-141650156D02*
X84350911Y-141700490D01*
X84395733Y-141706600D01*
X84465423Y-141675622D01*
X84452178Y-141650156D01*
X84351698Y-141640023D01*
X84339289Y-141650156D01*
G36*
X76297013Y-140821071D02*
X76389749Y-140897596D01*
X76510934Y-140974254D01*
X76634266Y-141027739D01*
X76707507Y-141040158D01*
X76684011Y-140998402D01*
X76589116Y-140942848D01*
X76437066Y-140866731D01*
X76296490Y-140803000D01*
X76297013Y-140821071D01*
X76297013Y-140821071D01*
G37*
X76297013Y-140821071D02*
X76389749Y-140897596D01*
X76510934Y-140974254D01*
X76634266Y-141027739D01*
X76707507Y-141040158D01*
X76684011Y-140998402D01*
X76589116Y-140942848D01*
X76437066Y-140866731D01*
X76296490Y-140803000D01*
X76297013Y-140821071D01*
G36*
X73493048Y-140819159D02*
X73547600Y-140888405D01*
X73674025Y-140998923D01*
X73780459Y-141031687D01*
X73812400Y-140989912D01*
X73747015Y-140925457D01*
X73621900Y-140849051D01*
X73493234Y-140786965D01*
X73493048Y-140819159D01*
X73493048Y-140819159D01*
G37*
X73493048Y-140819159D02*
X73547600Y-140888405D01*
X73674025Y-140998923D01*
X73780459Y-141031687D01*
X73812400Y-140989912D01*
X73747015Y-140925457D01*
X73621900Y-140849051D01*
X73493234Y-140786965D01*
X73493048Y-140819159D01*
G36*
X84842151Y-140727863D02*
X84773252Y-140780900D01*
X84741701Y-140880672D01*
X84837816Y-140874662D01*
X84988400Y-140804645D01*
X85128915Y-140725255D01*
X85124454Y-140696300D01*
X85014563Y-140691848D01*
X84842151Y-140727863D01*
X84842151Y-140727863D01*
G37*
X84842151Y-140727863D02*
X84773252Y-140780900D01*
X84741701Y-140880672D01*
X84837816Y-140874662D01*
X84988400Y-140804645D01*
X85128915Y-140725255D01*
X85124454Y-140696300D01*
X85014563Y-140691848D01*
X84842151Y-140727863D01*
G36*
X87563599Y-135683601D02*
X87149602Y-135920495D01*
X86836270Y-136277424D01*
X86639735Y-136741466D01*
X86575900Y-137266524D01*
X86645504Y-137804958D01*
X86840038Y-138276935D01*
X87138080Y-138663195D01*
X87518212Y-138944473D01*
X87959013Y-139101509D01*
X88439063Y-139115039D01*
X88598739Y-139085613D01*
X89078727Y-138889841D01*
X89460932Y-138556947D01*
X89681429Y-138215428D01*
X89857022Y-137707105D01*
X89894359Y-137197550D01*
X89819680Y-136795482D01*
X89216541Y-136795482D01*
X89208756Y-137191489D01*
X89198282Y-137344515D01*
X89113504Y-137887264D01*
X88954675Y-138339906D01*
X88733928Y-138672766D01*
X88611361Y-138780005D01*
X88310149Y-138901647D01*
X87977230Y-138901194D01*
X87678378Y-138784130D01*
X87571048Y-138693272D01*
X87369659Y-138366122D01*
X87251416Y-137933891D01*
X87225486Y-137443815D01*
X87263758Y-137109644D01*
X87395845Y-136570250D01*
X87570095Y-136182747D01*
X87798475Y-135932407D01*
X88092949Y-135804504D01*
X88344046Y-135779934D01*
X88608701Y-135806443D01*
X88797094Y-135912716D01*
X88917898Y-136040459D01*
X89081299Y-136267348D01*
X89177451Y-136503229D01*
X89216541Y-136795482D01*
X89819680Y-136795482D01*
X89804589Y-136714239D01*
X89598860Y-136284651D01*
X89288319Y-135936262D01*
X88884116Y-135696551D01*
X88629066Y-135621615D01*
X88062131Y-135579667D01*
X87563599Y-135683601D01*
X87563599Y-135683601D01*
G37*
X87563599Y-135683601D02*
X87149602Y-135920495D01*
X86836270Y-136277424D01*
X86639735Y-136741466D01*
X86575900Y-137266524D01*
X86645504Y-137804958D01*
X86840038Y-138276935D01*
X87138080Y-138663195D01*
X87518212Y-138944473D01*
X87959013Y-139101509D01*
X88439063Y-139115039D01*
X88598739Y-139085613D01*
X89078727Y-138889841D01*
X89460932Y-138556947D01*
X89681429Y-138215428D01*
X89857022Y-137707105D01*
X89894359Y-137197550D01*
X89819680Y-136795482D01*
X89216541Y-136795482D01*
X89208756Y-137191489D01*
X89198282Y-137344515D01*
X89113504Y-137887264D01*
X88954675Y-138339906D01*
X88733928Y-138672766D01*
X88611361Y-138780005D01*
X88310149Y-138901647D01*
X87977230Y-138901194D01*
X87678378Y-138784130D01*
X87571048Y-138693272D01*
X87369659Y-138366122D01*
X87251416Y-137933891D01*
X87225486Y-137443815D01*
X87263758Y-137109644D01*
X87395845Y-136570250D01*
X87570095Y-136182747D01*
X87798475Y-135932407D01*
X88092949Y-135804504D01*
X88344046Y-135779934D01*
X88608701Y-135806443D01*
X88797094Y-135912716D01*
X88917898Y-136040459D01*
X89081299Y-136267348D01*
X89177451Y-136503229D01*
X89216541Y-136795482D01*
X89819680Y-136795482D01*
X89804589Y-136714239D01*
X89598860Y-136284651D01*
X89288319Y-135936262D01*
X88884116Y-135696551D01*
X88629066Y-135621615D01*
X88062131Y-135579667D01*
X87563599Y-135683601D01*
G36*
X78686612Y-133898779D02*
X78660514Y-134008153D01*
X78645965Y-134214909D01*
X78639688Y-134543564D01*
X78638400Y-134982382D01*
X78638400Y-136150281D01*
X78393852Y-135915989D01*
X78056004Y-135695268D01*
X77647745Y-135578573D01*
X77261163Y-135585481D01*
X76916964Y-135735554D01*
X76625023Y-136017234D01*
X76402166Y-136396542D01*
X76265222Y-136839500D01*
X76231017Y-137312128D01*
X76266446Y-137594065D01*
X76454918Y-138139447D01*
X76759783Y-138577408D01*
X77160651Y-138895070D01*
X77637131Y-139079553D01*
X78168836Y-139117981D01*
X78570175Y-139049135D01*
X78768710Y-138995909D01*
X78922978Y-138943544D01*
X79038547Y-138871677D01*
X79120988Y-138759942D01*
X79175868Y-138587976D01*
X79208758Y-138335414D01*
X79225225Y-137981892D01*
X79230769Y-137512896D01*
X78638400Y-137512896D01*
X78638400Y-138653192D01*
X78405566Y-138779506D01*
X78045562Y-138895558D01*
X77673647Y-138883942D01*
X77351877Y-138747561D01*
X77327225Y-138729051D01*
X77053056Y-138406844D01*
X76897596Y-137967906D01*
X76860400Y-137549309D01*
X76911870Y-136992379D01*
X77062456Y-136546171D01*
X77274707Y-136257119D01*
X77562732Y-136079387D01*
X77898039Y-136011407D01*
X78223130Y-136055772D01*
X78469066Y-136203267D01*
X78538070Y-136287382D01*
X78585443Y-136397958D01*
X78615165Y-136565775D01*
X78631217Y-136821616D01*
X78637577Y-137196261D01*
X78638400Y-137512896D01*
X79230769Y-137512896D01*
X79230839Y-137507044D01*
X79231169Y-136890508D01*
X79231066Y-136632415D01*
X79232434Y-135944322D01*
X79238579Y-135406293D01*
X79252563Y-134999069D01*
X79277446Y-134703392D01*
X79316291Y-134500000D01*
X79372159Y-134369635D01*
X79448113Y-134293037D01*
X79547213Y-134250946D01*
X79612066Y-134235655D01*
X79662205Y-134198646D01*
X79556248Y-134136650D01*
X79358066Y-134067407D01*
X79085217Y-133978856D01*
X78862128Y-133902321D01*
X78786566Y-133874104D01*
X78727537Y-133862269D01*
X78686612Y-133898779D01*
X78686612Y-133898779D01*
G37*
X78686612Y-133898779D02*
X78660514Y-134008153D01*
X78645965Y-134214909D01*
X78639688Y-134543564D01*
X78638400Y-134982382D01*
X78638400Y-136150281D01*
X78393852Y-135915989D01*
X78056004Y-135695268D01*
X77647745Y-135578573D01*
X77261163Y-135585481D01*
X76916964Y-135735554D01*
X76625023Y-136017234D01*
X76402166Y-136396542D01*
X76265222Y-136839500D01*
X76231017Y-137312128D01*
X76266446Y-137594065D01*
X76454918Y-138139447D01*
X76759783Y-138577408D01*
X77160651Y-138895070D01*
X77637131Y-139079553D01*
X78168836Y-139117981D01*
X78570175Y-139049135D01*
X78768710Y-138995909D01*
X78922978Y-138943544D01*
X79038547Y-138871677D01*
X79120988Y-138759942D01*
X79175868Y-138587976D01*
X79208758Y-138335414D01*
X79225225Y-137981892D01*
X79230769Y-137512896D01*
X78638400Y-137512896D01*
X78638400Y-138653192D01*
X78405566Y-138779506D01*
X78045562Y-138895558D01*
X77673647Y-138883942D01*
X77351877Y-138747561D01*
X77327225Y-138729051D01*
X77053056Y-138406844D01*
X76897596Y-137967906D01*
X76860400Y-137549309D01*
X76911870Y-136992379D01*
X77062456Y-136546171D01*
X77274707Y-136257119D01*
X77562732Y-136079387D01*
X77898039Y-136011407D01*
X78223130Y-136055772D01*
X78469066Y-136203267D01*
X78538070Y-136287382D01*
X78585443Y-136397958D01*
X78615165Y-136565775D01*
X78631217Y-136821616D01*
X78637577Y-137196261D01*
X78638400Y-137512896D01*
X79230769Y-137512896D01*
X79230839Y-137507044D01*
X79231169Y-136890508D01*
X79231066Y-136632415D01*
X79232434Y-135944322D01*
X79238579Y-135406293D01*
X79252563Y-134999069D01*
X79277446Y-134703392D01*
X79316291Y-134500000D01*
X79372159Y-134369635D01*
X79448113Y-134293037D01*
X79547213Y-134250946D01*
X79612066Y-134235655D01*
X79662205Y-134198646D01*
X79556248Y-134136650D01*
X79358066Y-134067407D01*
X79085217Y-133978856D01*
X78862128Y-133902321D01*
X78786566Y-133874104D01*
X78727537Y-133862269D01*
X78686612Y-133898779D01*
G36*
X90914432Y-134021016D02*
X90615008Y-134034558D01*
X90483206Y-134057052D01*
X90518313Y-134088003D01*
X90661973Y-134132410D01*
X90773784Y-134182374D01*
X90857733Y-134257914D01*
X90917810Y-134379049D01*
X90958005Y-134565798D01*
X90982306Y-134838180D01*
X90994704Y-135216214D01*
X90999186Y-135719919D01*
X90999742Y-136369316D01*
X90999733Y-136503920D01*
X90998525Y-137204968D01*
X90992513Y-137754979D01*
X90978113Y-138172246D01*
X90951745Y-138475061D01*
X90909825Y-138681716D01*
X90848771Y-138810503D01*
X90765001Y-138879714D01*
X90654933Y-138907643D01*
X90528019Y-138912600D01*
X90371821Y-138942357D01*
X90322400Y-138997267D01*
X90403912Y-139033945D01*
X90636200Y-139061221D01*
X91000895Y-139077625D01*
X91380733Y-139081934D01*
X91839208Y-139075413D01*
X92180156Y-139056829D01*
X92385208Y-139027654D01*
X92439066Y-138997267D01*
X92367032Y-138932140D01*
X92240522Y-138912600D01*
X92054279Y-138887018D01*
X91921868Y-138795175D01*
X91834934Y-138614424D01*
X91785123Y-138322118D01*
X91764080Y-137895610D01*
X91761733Y-137614767D01*
X91761733Y-136626600D01*
X94132400Y-136626600D01*
X94132400Y-137629478D01*
X94129107Y-138068402D01*
X94116333Y-138370111D01*
X94089740Y-138566642D01*
X94044986Y-138690034D01*
X93977732Y-138772328D01*
X93977566Y-138772478D01*
X93781238Y-138884083D01*
X93638900Y-138912600D01*
X93493631Y-138945533D01*
X93455066Y-138997267D01*
X93536578Y-139033945D01*
X93768867Y-139061221D01*
X94133562Y-139077625D01*
X94513400Y-139081934D01*
X94971874Y-139075413D01*
X95312823Y-139056829D01*
X95517874Y-139027654D01*
X95571733Y-138997267D01*
X95499466Y-138932950D01*
X95366114Y-138912600D01*
X95228821Y-138906431D01*
X95121107Y-138875730D01*
X95039390Y-138802204D01*
X94980087Y-138667560D01*
X94939616Y-138453508D01*
X94914394Y-138141754D01*
X94900840Y-137714006D01*
X94895371Y-137151973D01*
X94894400Y-136503920D01*
X94894672Y-135826027D01*
X94898148Y-135297447D01*
X94908818Y-134898160D01*
X94930670Y-134608147D01*
X94967694Y-134407389D01*
X95023879Y-134275867D01*
X95103214Y-134193562D01*
X95209688Y-134140454D01*
X95347291Y-134096525D01*
X95375820Y-134088003D01*
X95410334Y-134056725D01*
X95276489Y-134034339D01*
X94975032Y-134020907D01*
X94513400Y-134016488D01*
X94047098Y-134021016D01*
X93747675Y-134034558D01*
X93615873Y-134057052D01*
X93650979Y-134088003D01*
X93848692Y-134156534D01*
X93983316Y-134242754D01*
X94066924Y-134377674D01*
X94111588Y-134592304D01*
X94129382Y-134917656D01*
X94132400Y-135324634D01*
X94132400Y-136287934D01*
X91761733Y-136287934D01*
X91761733Y-135324634D01*
X91765781Y-134874899D01*
X91785975Y-134563438D01*
X91834386Y-134359239D01*
X91923088Y-134231290D01*
X92064152Y-134148581D01*
X92243154Y-134088003D01*
X92277667Y-134056725D01*
X92143823Y-134034339D01*
X91842365Y-134020907D01*
X91380733Y-134016488D01*
X90914432Y-134021016D01*
X90914432Y-134021016D01*
G37*
X90914432Y-134021016D02*
X90615008Y-134034558D01*
X90483206Y-134057052D01*
X90518313Y-134088003D01*
X90661973Y-134132410D01*
X90773784Y-134182374D01*
X90857733Y-134257914D01*
X90917810Y-134379049D01*
X90958005Y-134565798D01*
X90982306Y-134838180D01*
X90994704Y-135216214D01*
X90999186Y-135719919D01*
X90999742Y-136369316D01*
X90999733Y-136503920D01*
X90998525Y-137204968D01*
X90992513Y-137754979D01*
X90978113Y-138172246D01*
X90951745Y-138475061D01*
X90909825Y-138681716D01*
X90848771Y-138810503D01*
X90765001Y-138879714D01*
X90654933Y-138907643D01*
X90528019Y-138912600D01*
X90371821Y-138942357D01*
X90322400Y-138997267D01*
X90403912Y-139033945D01*
X90636200Y-139061221D01*
X91000895Y-139077625D01*
X91380733Y-139081934D01*
X91839208Y-139075413D01*
X92180156Y-139056829D01*
X92385208Y-139027654D01*
X92439066Y-138997267D01*
X92367032Y-138932140D01*
X92240522Y-138912600D01*
X92054279Y-138887018D01*
X91921868Y-138795175D01*
X91834934Y-138614424D01*
X91785123Y-138322118D01*
X91764080Y-137895610D01*
X91761733Y-137614767D01*
X91761733Y-136626600D01*
X94132400Y-136626600D01*
X94132400Y-137629478D01*
X94129107Y-138068402D01*
X94116333Y-138370111D01*
X94089740Y-138566642D01*
X94044986Y-138690034D01*
X93977732Y-138772328D01*
X93977566Y-138772478D01*
X93781238Y-138884083D01*
X93638900Y-138912600D01*
X93493631Y-138945533D01*
X93455066Y-138997267D01*
X93536578Y-139033945D01*
X93768867Y-139061221D01*
X94133562Y-139077625D01*
X94513400Y-139081934D01*
X94971874Y-139075413D01*
X95312823Y-139056829D01*
X95517874Y-139027654D01*
X95571733Y-138997267D01*
X95499466Y-138932950D01*
X95366114Y-138912600D01*
X95228821Y-138906431D01*
X95121107Y-138875730D01*
X95039390Y-138802204D01*
X94980087Y-138667560D01*
X94939616Y-138453508D01*
X94914394Y-138141754D01*
X94900840Y-137714006D01*
X94895371Y-137151973D01*
X94894400Y-136503920D01*
X94894672Y-135826027D01*
X94898148Y-135297447D01*
X94908818Y-134898160D01*
X94930670Y-134608147D01*
X94967694Y-134407389D01*
X95023879Y-134275867D01*
X95103214Y-134193562D01*
X95209688Y-134140454D01*
X95347291Y-134096525D01*
X95375820Y-134088003D01*
X95410334Y-134056725D01*
X95276489Y-134034339D01*
X94975032Y-134020907D01*
X94513400Y-134016488D01*
X94047098Y-134021016D01*
X93747675Y-134034558D01*
X93615873Y-134057052D01*
X93650979Y-134088003D01*
X93848692Y-134156534D01*
X93983316Y-134242754D01*
X94066924Y-134377674D01*
X94111588Y-134592304D01*
X94129382Y-134917656D01*
X94132400Y-135324634D01*
X94132400Y-136287934D01*
X91761733Y-136287934D01*
X91761733Y-135324634D01*
X91765781Y-134874899D01*
X91785975Y-134563438D01*
X91834386Y-134359239D01*
X91923088Y-134231290D01*
X92064152Y-134148581D01*
X92243154Y-134088003D01*
X92277667Y-134056725D01*
X92143823Y-134034339D01*
X91842365Y-134020907D01*
X91380733Y-134016488D01*
X90914432Y-134021016D01*
G36*
X83974518Y-135609474D02*
X83972590Y-135610498D01*
X83800303Y-135775643D01*
X83748235Y-135986504D01*
X83830407Y-136181842D01*
X83839602Y-136191422D01*
X83947134Y-136276815D01*
X84057799Y-136273144D01*
X84236165Y-136181981D01*
X84491179Y-136061283D01*
X84672434Y-136058634D01*
X84833167Y-136180072D01*
X84897588Y-136257018D01*
X84971462Y-136367526D01*
X85021243Y-136499281D01*
X85051497Y-136686124D01*
X85066788Y-136961896D01*
X85071683Y-137360437D01*
X85071770Y-137548185D01*
X85065511Y-137964914D01*
X85049377Y-138325656D01*
X85025758Y-138593562D01*
X84997044Y-138731779D01*
X84994741Y-138735906D01*
X84865793Y-138855058D01*
X84678537Y-138961863D01*
X84591138Y-139008143D01*
X84590778Y-139039279D01*
X84697415Y-139058537D01*
X84931009Y-139069183D01*
X85311515Y-139074483D01*
X85369400Y-139074925D01*
X86300733Y-139081670D01*
X86004400Y-138933635D01*
X85708066Y-138785600D01*
X85684739Y-137502642D01*
X85679889Y-136941389D01*
X85692172Y-136529763D01*
X85726789Y-136248483D01*
X85788941Y-136078262D01*
X85883828Y-135999817D01*
X86016652Y-135993864D01*
X86087577Y-136009012D01*
X86223976Y-136026917D01*
X86258400Y-136009248D01*
X86185885Y-135964800D01*
X86001625Y-135887809D01*
X85755544Y-135796089D01*
X85497568Y-135707456D01*
X85277623Y-135639728D01*
X85145634Y-135610721D01*
X85141293Y-135610600D01*
X85096185Y-135685078D01*
X85073651Y-135868197D01*
X85073066Y-135906934D01*
X85061046Y-136102908D01*
X85031492Y-136200747D01*
X85025267Y-136203267D01*
X84945803Y-136144595D01*
X84806077Y-135998246D01*
X84757608Y-135941978D01*
X84482882Y-135688194D01*
X84213697Y-135573916D01*
X83974518Y-135609474D01*
X83974518Y-135609474D01*
G37*
X83974518Y-135609474D02*
X83972590Y-135610498D01*
X83800303Y-135775643D01*
X83748235Y-135986504D01*
X83830407Y-136181842D01*
X83839602Y-136191422D01*
X83947134Y-136276815D01*
X84057799Y-136273144D01*
X84236165Y-136181981D01*
X84491179Y-136061283D01*
X84672434Y-136058634D01*
X84833167Y-136180072D01*
X84897588Y-136257018D01*
X84971462Y-136367526D01*
X85021243Y-136499281D01*
X85051497Y-136686124D01*
X85066788Y-136961896D01*
X85071683Y-137360437D01*
X85071770Y-137548185D01*
X85065511Y-137964914D01*
X85049377Y-138325656D01*
X85025758Y-138593562D01*
X84997044Y-138731779D01*
X84994741Y-138735906D01*
X84865793Y-138855058D01*
X84678537Y-138961863D01*
X84591138Y-139008143D01*
X84590778Y-139039279D01*
X84697415Y-139058537D01*
X84931009Y-139069183D01*
X85311515Y-139074483D01*
X85369400Y-139074925D01*
X86300733Y-139081670D01*
X86004400Y-138933635D01*
X85708066Y-138785600D01*
X85684739Y-137502642D01*
X85679889Y-136941389D01*
X85692172Y-136529763D01*
X85726789Y-136248483D01*
X85788941Y-136078262D01*
X85883828Y-135999817D01*
X86016652Y-135993864D01*
X86087577Y-136009012D01*
X86223976Y-136026917D01*
X86258400Y-136009248D01*
X86185885Y-135964800D01*
X86001625Y-135887809D01*
X85755544Y-135796089D01*
X85497568Y-135707456D01*
X85277623Y-135639728D01*
X85145634Y-135610721D01*
X85141293Y-135610600D01*
X85096185Y-135685078D01*
X85073651Y-135868197D01*
X85073066Y-135906934D01*
X85061046Y-136102908D01*
X85031492Y-136200747D01*
X85025267Y-136203267D01*
X84945803Y-136144595D01*
X84806077Y-135998246D01*
X84757608Y-135941978D01*
X84482882Y-135688194D01*
X84213697Y-135573916D01*
X83974518Y-135609474D01*
G36*
X81057351Y-135607619D02*
X81018904Y-135619858D01*
X80831003Y-135708411D01*
X80688681Y-135840964D01*
X80584651Y-136040740D01*
X80511625Y-136330961D01*
X80462315Y-136734849D01*
X80429433Y-137275629D01*
X80419439Y-137530025D01*
X80401042Y-137978190D01*
X80380374Y-138363154D01*
X80359438Y-138654715D01*
X80340240Y-138822674D01*
X80331733Y-138851038D01*
X80231236Y-138917456D01*
X80120066Y-138982206D01*
X80072803Y-139026498D01*
X80133769Y-139055018D01*
X80321844Y-139070553D01*
X80655908Y-139075890D01*
X80755066Y-139075969D01*
X81122570Y-139073912D01*
X81342618Y-139065476D01*
X81437080Y-139045901D01*
X81427827Y-139010427D01*
X81336728Y-138954294D01*
X81330259Y-138950774D01*
X81194289Y-138846840D01*
X81099063Y-138689972D01*
X81040236Y-138455623D01*
X81013461Y-138119245D01*
X81014393Y-137656292D01*
X81028969Y-137249038D01*
X81054173Y-136799434D01*
X81086702Y-136487543D01*
X81131963Y-136281758D01*
X81195366Y-136150469D01*
X81222780Y-136116338D01*
X81455731Y-135975596D01*
X81756750Y-135956883D01*
X82078876Y-136057964D01*
X82249908Y-136165242D01*
X82533066Y-136381218D01*
X82533066Y-137503727D01*
X82529084Y-137999884D01*
X82512053Y-138356433D01*
X82474345Y-138603013D01*
X82408332Y-138769262D01*
X82306387Y-138884818D01*
X82160883Y-138979320D01*
X82152066Y-138984166D01*
X82108466Y-139026978D01*
X82175703Y-139055298D01*
X82371687Y-139071636D01*
X82714329Y-139078501D01*
X82829400Y-139079042D01*
X83676066Y-139081301D01*
X83400900Y-138913528D01*
X83125733Y-138745756D01*
X83127030Y-137495678D01*
X83131522Y-137047818D01*
X83143006Y-136657762D01*
X83159947Y-136358050D01*
X83180806Y-136181225D01*
X83190530Y-136151178D01*
X83314069Y-136054758D01*
X83459803Y-135992047D01*
X83554659Y-135951667D01*
X83543331Y-135909006D01*
X83406042Y-135849261D01*
X83163470Y-135770216D01*
X82847282Y-135673236D01*
X82659687Y-135630136D01*
X82567145Y-135645936D01*
X82536116Y-135725659D01*
X82533066Y-135864600D01*
X82521076Y-136047282D01*
X82465803Y-136102991D01*
X82338296Y-136035398D01*
X82181606Y-135909160D01*
X81817987Y-135685357D01*
X81425424Y-135580411D01*
X81057351Y-135607619D01*
X81057351Y-135607619D01*
G37*
X81057351Y-135607619D02*
X81018904Y-135619858D01*
X80831003Y-135708411D01*
X80688681Y-135840964D01*
X80584651Y-136040740D01*
X80511625Y-136330961D01*
X80462315Y-136734849D01*
X80429433Y-137275629D01*
X80419439Y-137530025D01*
X80401042Y-137978190D01*
X80380374Y-138363154D01*
X80359438Y-138654715D01*
X80340240Y-138822674D01*
X80331733Y-138851038D01*
X80231236Y-138917456D01*
X80120066Y-138982206D01*
X80072803Y-139026498D01*
X80133769Y-139055018D01*
X80321844Y-139070553D01*
X80655908Y-139075890D01*
X80755066Y-139075969D01*
X81122570Y-139073912D01*
X81342618Y-139065476D01*
X81437080Y-139045901D01*
X81427827Y-139010427D01*
X81336728Y-138954294D01*
X81330259Y-138950774D01*
X81194289Y-138846840D01*
X81099063Y-138689972D01*
X81040236Y-138455623D01*
X81013461Y-138119245D01*
X81014393Y-137656292D01*
X81028969Y-137249038D01*
X81054173Y-136799434D01*
X81086702Y-136487543D01*
X81131963Y-136281758D01*
X81195366Y-136150469D01*
X81222780Y-136116338D01*
X81455731Y-135975596D01*
X81756750Y-135956883D01*
X82078876Y-136057964D01*
X82249908Y-136165242D01*
X82533066Y-136381218D01*
X82533066Y-137503727D01*
X82529084Y-137999884D01*
X82512053Y-138356433D01*
X82474345Y-138603013D01*
X82408332Y-138769262D01*
X82306387Y-138884818D01*
X82160883Y-138979320D01*
X82152066Y-138984166D01*
X82108466Y-139026978D01*
X82175703Y-139055298D01*
X82371687Y-139071636D01*
X82714329Y-139078501D01*
X82829400Y-139079042D01*
X83676066Y-139081301D01*
X83400900Y-138913528D01*
X83125733Y-138745756D01*
X83127030Y-137495678D01*
X83131522Y-137047818D01*
X83143006Y-136657762D01*
X83159947Y-136358050D01*
X83180806Y-136181225D01*
X83190530Y-136151178D01*
X83314069Y-136054758D01*
X83459803Y-135992047D01*
X83554659Y-135951667D01*
X83543331Y-135909006D01*
X83406042Y-135849261D01*
X83163470Y-135770216D01*
X82847282Y-135673236D01*
X82659687Y-135630136D01*
X82567145Y-135645936D01*
X82536116Y-135725659D01*
X82533066Y-135864600D01*
X82521076Y-136047282D01*
X82465803Y-136102991D01*
X82338296Y-136035398D01*
X82181606Y-135909160D01*
X81817987Y-135685357D01*
X81425424Y-135580411D01*
X81057351Y-135607619D01*
G36*
X74619292Y-135691745D02*
X74599216Y-135914824D01*
X74580935Y-136254934D01*
X74565846Y-136685926D01*
X74555343Y-137181650D01*
X74555101Y-137198100D01*
X74532066Y-138785600D01*
X73939400Y-139081670D01*
X74870733Y-139074925D01*
X75270965Y-139070331D01*
X75522004Y-139061180D01*
X75643986Y-139043964D01*
X75657050Y-139015170D01*
X75581330Y-138971288D01*
X75548923Y-138956683D01*
X75408854Y-138878824D01*
X75309623Y-138770166D01*
X75244453Y-138603039D01*
X75206566Y-138349774D01*
X75189181Y-137982698D01*
X75185522Y-137474143D01*
X75185523Y-137473267D01*
X75190680Y-136933600D01*
X75207541Y-136540900D01*
X75241210Y-136272930D01*
X75296789Y-136107452D01*
X75379383Y-136022229D01*
X75494095Y-135995023D01*
X75524860Y-135994625D01*
X75675971Y-135984028D01*
X75710502Y-135956480D01*
X75614794Y-135912505D01*
X75411653Y-135839558D01*
X75156390Y-135755441D01*
X74904316Y-135677956D01*
X74710743Y-135624907D01*
X74639768Y-135611847D01*
X74619292Y-135691745D01*
X74619292Y-135691745D01*
G37*
X74619292Y-135691745D02*
X74599216Y-135914824D01*
X74580935Y-136254934D01*
X74565846Y-136685926D01*
X74555343Y-137181650D01*
X74555101Y-137198100D01*
X74532066Y-138785600D01*
X73939400Y-139081670D01*
X74870733Y-139074925D01*
X75270965Y-139070331D01*
X75522004Y-139061180D01*
X75643986Y-139043964D01*
X75657050Y-139015170D01*
X75581330Y-138971288D01*
X75548923Y-138956683D01*
X75408854Y-138878824D01*
X75309623Y-138770166D01*
X75244453Y-138603039D01*
X75206566Y-138349774D01*
X75189181Y-137982698D01*
X75185522Y-137474143D01*
X75185523Y-137473267D01*
X75190680Y-136933600D01*
X75207541Y-136540900D01*
X75241210Y-136272930D01*
X75296789Y-136107452D01*
X75379383Y-136022229D01*
X75494095Y-135995023D01*
X75524860Y-135994625D01*
X75675971Y-135984028D01*
X75710502Y-135956480D01*
X75614794Y-135912505D01*
X75411653Y-135839558D01*
X75156390Y-135755441D01*
X74904316Y-135677956D01*
X74710743Y-135624907D01*
X74639768Y-135611847D01*
X74619292Y-135691745D01*
G36*
X72437835Y-136315439D02*
X72415400Y-138785600D01*
X72119066Y-138933635D01*
X71822733Y-139081670D01*
X72754066Y-139074925D01*
X73154009Y-139070057D01*
X73404584Y-139060244D01*
X73525751Y-139042220D01*
X73537467Y-139012720D01*
X73459691Y-138968478D01*
X73444929Y-138961863D01*
X73248079Y-138848201D01*
X73128725Y-138735906D01*
X73108557Y-138622068D01*
X73091151Y-138367540D01*
X73076687Y-138000942D01*
X73065341Y-137550897D01*
X73057290Y-137046027D01*
X73052712Y-136514955D01*
X73051784Y-135986302D01*
X73054685Y-135488691D01*
X73061590Y-135050744D01*
X73072678Y-134701083D01*
X73088125Y-134468330D01*
X73101792Y-134389858D01*
X73225085Y-134285962D01*
X73412236Y-134255934D01*
X73583834Y-134245703D01*
X73611407Y-134212400D01*
X73488829Y-134152109D01*
X73209977Y-134060911D01*
X73020728Y-134005555D01*
X72460271Y-133845278D01*
X72437835Y-136315439D01*
X72437835Y-136315439D01*
G37*
X72437835Y-136315439D02*
X72415400Y-138785600D01*
X72119066Y-138933635D01*
X71822733Y-139081670D01*
X72754066Y-139074925D01*
X73154009Y-139070057D01*
X73404584Y-139060244D01*
X73525751Y-139042220D01*
X73537467Y-139012720D01*
X73459691Y-138968478D01*
X73444929Y-138961863D01*
X73248079Y-138848201D01*
X73128725Y-138735906D01*
X73108557Y-138622068D01*
X73091151Y-138367540D01*
X73076687Y-138000942D01*
X73065341Y-137550897D01*
X73057290Y-137046027D01*
X73052712Y-136514955D01*
X73051784Y-135986302D01*
X73054685Y-135488691D01*
X73061590Y-135050744D01*
X73072678Y-134701083D01*
X73088125Y-134468330D01*
X73101792Y-134389858D01*
X73225085Y-134285962D01*
X73412236Y-134255934D01*
X73583834Y-134245703D01*
X73611407Y-134212400D01*
X73488829Y-134152109D01*
X73209977Y-134060911D01*
X73020728Y-134005555D01*
X72460271Y-133845278D01*
X72437835Y-136315439D01*
G36*
X70339770Y-136228838D02*
X70336832Y-136852348D01*
X70329184Y-137423592D01*
X70317525Y-137919774D01*
X70302556Y-138318100D01*
X70284978Y-138595774D01*
X70265490Y-138730002D01*
X70262741Y-138735906D01*
X70133877Y-138855204D01*
X69946537Y-138962528D01*
X69858569Y-139009245D01*
X69858464Y-139040035D01*
X69966188Y-139058011D01*
X70201706Y-139066289D01*
X70584983Y-139067984D01*
X70622158Y-139067929D01*
X71022812Y-139066392D01*
X71274672Y-139060384D01*
X71398274Y-139045315D01*
X71414156Y-139016592D01*
X71342857Y-138969625D01*
X71257158Y-138925974D01*
X70976066Y-138785600D01*
X70976066Y-134298267D01*
X71272400Y-134250670D01*
X71568733Y-134203074D01*
X71187733Y-134098364D01*
X70898188Y-134016109D01*
X70636795Y-133937574D01*
X70573900Y-133917531D01*
X70341066Y-133841409D01*
X70339770Y-136228838D01*
X70339770Y-136228838D01*
G37*
X70339770Y-136228838D02*
X70336832Y-136852348D01*
X70329184Y-137423592D01*
X70317525Y-137919774D01*
X70302556Y-138318100D01*
X70284978Y-138595774D01*
X70265490Y-138730002D01*
X70262741Y-138735906D01*
X70133877Y-138855204D01*
X69946537Y-138962528D01*
X69858569Y-139009245D01*
X69858464Y-139040035D01*
X69966188Y-139058011D01*
X70201706Y-139066289D01*
X70584983Y-139067984D01*
X70622158Y-139067929D01*
X71022812Y-139066392D01*
X71274672Y-139060384D01*
X71398274Y-139045315D01*
X71414156Y-139016592D01*
X71342857Y-138969625D01*
X71257158Y-138925974D01*
X70976066Y-138785600D01*
X70976066Y-134298267D01*
X71272400Y-134250670D01*
X71568733Y-134203074D01*
X71187733Y-134098364D01*
X70898188Y-134016109D01*
X70636795Y-133937574D01*
X70573900Y-133917531D01*
X70341066Y-133841409D01*
X70339770Y-136228838D01*
G36*
X82829372Y-132840950D02*
X82555501Y-132908479D01*
X82306628Y-132991947D01*
X82127592Y-133075988D01*
X82063233Y-133145233D01*
X82066207Y-133153336D01*
X82162345Y-133186722D01*
X82385840Y-133222745D01*
X82694946Y-133255217D01*
X82817901Y-133264758D01*
X83441404Y-133344214D01*
X83936018Y-133495519D01*
X84333152Y-133735937D01*
X84664213Y-134082738D01*
X84870670Y-134393301D01*
X85049125Y-134625772D01*
X85277062Y-134766540D01*
X85596613Y-134834053D01*
X85908176Y-134847668D01*
X86041054Y-134830112D01*
X86078168Y-134742423D01*
X86053800Y-134573434D01*
X86014341Y-134334829D01*
X85996499Y-134151378D01*
X85923299Y-134001167D01*
X85726490Y-133797450D01*
X85433598Y-133563093D01*
X85072146Y-133320960D01*
X84819066Y-133173308D01*
X84245179Y-132939053D01*
X83603399Y-132814525D01*
X83083400Y-132804729D01*
X82829372Y-132840950D01*
X82829372Y-132840950D01*
G37*
X82829372Y-132840950D02*
X82555501Y-132908479D01*
X82306628Y-132991947D01*
X82127592Y-133075988D01*
X82063233Y-133145233D01*
X82066207Y-133153336D01*
X82162345Y-133186722D01*
X82385840Y-133222745D01*
X82694946Y-133255217D01*
X82817901Y-133264758D01*
X83441404Y-133344214D01*
X83936018Y-133495519D01*
X84333152Y-133735937D01*
X84664213Y-134082738D01*
X84870670Y-134393301D01*
X85049125Y-134625772D01*
X85277062Y-134766540D01*
X85596613Y-134834053D01*
X85908176Y-134847668D01*
X86041054Y-134830112D01*
X86078168Y-134742423D01*
X86053800Y-134573434D01*
X86014341Y-134334829D01*
X85996499Y-134151378D01*
X85923299Y-134001167D01*
X85726490Y-133797450D01*
X85433598Y-133563093D01*
X85072146Y-133320960D01*
X84819066Y-133173308D01*
X84245179Y-132939053D01*
X83603399Y-132814525D01*
X83083400Y-132804729D01*
X82829372Y-132840950D01*
G36*
X74847200Y-133850731D02*
X74690621Y-133965941D01*
X74609044Y-134139635D01*
X74640110Y-134337204D01*
X74701089Y-134424923D01*
X74895000Y-134573396D01*
X75077147Y-134558907D01*
X75203352Y-134461553D01*
X75323232Y-134248619D01*
X75301281Y-134028995D01*
X75234800Y-133934200D01*
X75041140Y-133828615D01*
X74847200Y-133850731D01*
X74847200Y-133850731D01*
G37*
X74847200Y-133850731D02*
X74690621Y-133965941D01*
X74609044Y-134139635D01*
X74640110Y-134337204D01*
X74701089Y-134424923D01*
X74895000Y-134573396D01*
X75077147Y-134558907D01*
X75203352Y-134461553D01*
X75323232Y-134248619D01*
X75301281Y-134028995D01*
X75234800Y-133934200D01*
X75041140Y-133828615D01*
X74847200Y-133850731D01*
G36*
X86406945Y-133847829D02*
X86255315Y-133921324D01*
X86216066Y-134085441D01*
X86273819Y-134266862D01*
X86410846Y-134325117D01*
X86572800Y-134241059D01*
X86593158Y-134218310D01*
X86664501Y-134040555D01*
X86603257Y-133897779D01*
X86437041Y-133844923D01*
X86406945Y-133847829D01*
X86406945Y-133847829D01*
G37*
X86406945Y-133847829D02*
X86255315Y-133921324D01*
X86216066Y-134085441D01*
X86273819Y-134266862D01*
X86410846Y-134325117D01*
X86572800Y-134241059D01*
X86593158Y-134218310D01*
X86664501Y-134040555D01*
X86603257Y-133897779D01*
X86437041Y-133844923D01*
X86406945Y-133847829D01*
G36*
X85780709Y-132051223D02*
X85723411Y-132247400D01*
X85658290Y-132355524D01*
X85657612Y-132355953D01*
X85547112Y-132361198D01*
X85313823Y-132337273D01*
X85000821Y-132289106D01*
X84874303Y-132266291D01*
X84496284Y-132201743D01*
X84213219Y-132176004D01*
X83955333Y-132188664D01*
X83652851Y-132239317D01*
X83558655Y-132258583D01*
X83232697Y-132338334D01*
X82953423Y-132427499D01*
X82780280Y-132507044D01*
X82778212Y-132508472D01*
X82704238Y-132570042D01*
X82715483Y-132606690D01*
X82836126Y-132624367D01*
X83090345Y-132629022D01*
X83265546Y-132628387D01*
X83889768Y-132671647D01*
X84469450Y-132819375D01*
X85042438Y-133086015D01*
X85646577Y-133486009D01*
X85781153Y-133588464D01*
X85964937Y-133707915D01*
X86099144Y-133717745D01*
X86185270Y-133675711D01*
X86404305Y-133628996D01*
X86636773Y-133743053D01*
X86762564Y-133870311D01*
X86953255Y-133989380D01*
X87165783Y-133965679D01*
X87257466Y-133900334D01*
X87342891Y-133710806D01*
X87346632Y-133439675D01*
X87270162Y-133152846D01*
X87239290Y-133087562D01*
X87090188Y-132862837D01*
X86894855Y-132644002D01*
X86691279Y-132465126D01*
X86642324Y-132435600D01*
X83379733Y-132435600D01*
X83337400Y-132477934D01*
X83295066Y-132435600D01*
X83337400Y-132393267D01*
X83379733Y-132435600D01*
X86642324Y-132435600D01*
X86517445Y-132360283D01*
X86421967Y-132354497D01*
X86355922Y-132371558D01*
X86371493Y-132331102D01*
X86344014Y-132231768D01*
X86211060Y-132084082D01*
X86129486Y-132016547D01*
X85832889Y-131790322D01*
X85780709Y-132051223D01*
X85780709Y-132051223D01*
G37*
X85780709Y-132051223D02*
X85723411Y-132247400D01*
X85658290Y-132355524D01*
X85657612Y-132355953D01*
X85547112Y-132361198D01*
X85313823Y-132337273D01*
X85000821Y-132289106D01*
X84874303Y-132266291D01*
X84496284Y-132201743D01*
X84213219Y-132176004D01*
X83955333Y-132188664D01*
X83652851Y-132239317D01*
X83558655Y-132258583D01*
X83232697Y-132338334D01*
X82953423Y-132427499D01*
X82780280Y-132507044D01*
X82778212Y-132508472D01*
X82704238Y-132570042D01*
X82715483Y-132606690D01*
X82836126Y-132624367D01*
X83090345Y-132629022D01*
X83265546Y-132628387D01*
X83889768Y-132671647D01*
X84469450Y-132819375D01*
X85042438Y-133086015D01*
X85646577Y-133486009D01*
X85781153Y-133588464D01*
X85964937Y-133707915D01*
X86099144Y-133717745D01*
X86185270Y-133675711D01*
X86404305Y-133628996D01*
X86636773Y-133743053D01*
X86762564Y-133870311D01*
X86953255Y-133989380D01*
X87165783Y-133965679D01*
X87257466Y-133900334D01*
X87342891Y-133710806D01*
X87346632Y-133439675D01*
X87270162Y-133152846D01*
X87239290Y-133087562D01*
X87090188Y-132862837D01*
X86894855Y-132644002D01*
X86691279Y-132465126D01*
X86642324Y-132435600D01*
X83379733Y-132435600D01*
X83337400Y-132477934D01*
X83295066Y-132435600D01*
X83337400Y-132393267D01*
X83379733Y-132435600D01*
X86642324Y-132435600D01*
X86517445Y-132360283D01*
X86421967Y-132354497D01*
X86355922Y-132371558D01*
X86371493Y-132331102D01*
X86344014Y-132231768D01*
X86211060Y-132084082D01*
X86129486Y-132016547D01*
X85832889Y-131790322D01*
X85780709Y-132051223D01*
G36*
X82279066Y-132774267D02*
X82321400Y-132816600D01*
X82363733Y-132774267D01*
X82321400Y-132731934D01*
X82279066Y-132774267D01*
X82279066Y-132774267D01*
G37*
X82279066Y-132774267D02*
X82321400Y-132816600D01*
X82363733Y-132774267D01*
X82321400Y-132731934D01*
X82279066Y-132774267D01*
G36*
X82448400Y-132689600D02*
X82490733Y-132731934D01*
X82533066Y-132689600D01*
X82490733Y-132647267D01*
X82448400Y-132689600D01*
X82448400Y-132689600D01*
G37*
X82448400Y-132689600D02*
X82490733Y-132731934D01*
X82533066Y-132689600D01*
X82490733Y-132647267D01*
X82448400Y-132689600D01*
D15*
G36*
X85811360Y-151396700D02*
X85818980Y-151724360D01*
X85834220Y-151958040D01*
X85869780Y-152138380D01*
X85925660Y-152303480D01*
X85968840Y-152397460D01*
X86268560Y-152897840D01*
X86352380Y-152986740D01*
X86352380Y-150235920D01*
X86680040Y-150235920D01*
X86873080Y-150238460D01*
X86967060Y-150263860D01*
X87002620Y-150329900D01*
X87007700Y-150418800D01*
X86989920Y-150581360D01*
X86921340Y-150660100D01*
X86771480Y-150677880D01*
X86654640Y-150672800D01*
X86487000Y-150652480D01*
X86405720Y-150599140D01*
X86377780Y-150482300D01*
X86372700Y-150444200D01*
X86352380Y-150235920D01*
X86352380Y-152986740D01*
X86360000Y-152996900D01*
X86360000Y-152427940D01*
X86360000Y-152204420D01*
X86360000Y-151978360D01*
X86360000Y-151848820D01*
X86360000Y-151622760D01*
X86360000Y-151396700D01*
X86360000Y-151267160D01*
X86360000Y-151043640D01*
X86360000Y-150817580D01*
X86682580Y-150817580D01*
X87007700Y-150817580D01*
X87007700Y-151043640D01*
X87007700Y-151267160D01*
X86682580Y-151267160D01*
X86360000Y-151267160D01*
X86360000Y-151396700D01*
X86682580Y-151396700D01*
X87007700Y-151396700D01*
X87007700Y-151622760D01*
X87007700Y-151848820D01*
X86682580Y-151848820D01*
X86360000Y-151848820D01*
X86360000Y-151978360D01*
X86682580Y-151978360D01*
X87007700Y-151978360D01*
X87007700Y-152204420D01*
X87007700Y-152427940D01*
X86682580Y-152427940D01*
X86360000Y-152427940D01*
X86360000Y-152996900D01*
X86641940Y-153296620D01*
X87071200Y-153583640D01*
X87071200Y-152786080D01*
X87071200Y-150172420D01*
X87071200Y-149844760D01*
X87071200Y-149517100D01*
X87279480Y-149537420D01*
X87406480Y-149557740D01*
X87472520Y-149613620D01*
X87500460Y-149738080D01*
X87510620Y-149865080D01*
X87528400Y-150172420D01*
X87299800Y-150172420D01*
X87071200Y-150172420D01*
X87071200Y-152786080D01*
X87076280Y-152605740D01*
X87109300Y-152521920D01*
X87195660Y-152493980D01*
X87297260Y-152493980D01*
X87436960Y-152499060D01*
X87500460Y-152539700D01*
X87520780Y-152654000D01*
X87520780Y-152786080D01*
X87518240Y-152963880D01*
X87485220Y-153045160D01*
X87398860Y-153073100D01*
X87297260Y-153075640D01*
X87157560Y-153068020D01*
X87091520Y-153027380D01*
X87073740Y-152913080D01*
X87071200Y-152786080D01*
X87071200Y-153583640D01*
X87101680Y-153606500D01*
X87503000Y-153784300D01*
X87650320Y-153827480D01*
X87650320Y-152786080D01*
X87650320Y-150172420D01*
X87650320Y-149849840D01*
X87650320Y-149524720D01*
X87876380Y-149524720D01*
X88102440Y-149524720D01*
X88102440Y-149849840D01*
X88102440Y-150172420D01*
X87876380Y-150172420D01*
X87650320Y-150172420D01*
X87650320Y-152786080D01*
X87657940Y-152605740D01*
X87690960Y-152521920D01*
X87777320Y-152493980D01*
X87876380Y-152493980D01*
X88016080Y-152499060D01*
X88082120Y-152539700D01*
X88102440Y-152654000D01*
X88102440Y-152786080D01*
X88097360Y-152963880D01*
X88064340Y-153045160D01*
X87977980Y-153073100D01*
X87876380Y-153075640D01*
X87739220Y-153068020D01*
X87673180Y-153027380D01*
X87652860Y-152913080D01*
X87650320Y-152786080D01*
X87650320Y-153827480D01*
X87739220Y-153857960D01*
X87950040Y-153898600D01*
X88196420Y-153908760D01*
X88247220Y-153906220D01*
X88247220Y-152786080D01*
X88252300Y-152605740D01*
X88265000Y-152565100D01*
X88265000Y-149959060D01*
X88265000Y-149849840D01*
X88270080Y-149669500D01*
X88305640Y-149580600D01*
X88394540Y-149547580D01*
X88473280Y-149537420D01*
X88681560Y-149517100D01*
X88681560Y-149849840D01*
X88681560Y-150180040D01*
X88473280Y-150157180D01*
X88343740Y-150139400D01*
X88285320Y-150086060D01*
X88265000Y-149959060D01*
X88265000Y-152565100D01*
X88280240Y-152521920D01*
X88366600Y-152493980D01*
X88463120Y-152493980D01*
X88600280Y-152499060D01*
X88663780Y-152542240D01*
X88681560Y-152656540D01*
X88681560Y-152786080D01*
X88679020Y-152963880D01*
X88646000Y-153045160D01*
X88559640Y-153073100D01*
X88468200Y-153075640D01*
X88336120Y-153068020D01*
X88272620Y-153022300D01*
X88252300Y-152908000D01*
X88247220Y-152786080D01*
X88247220Y-153906220D01*
X88478360Y-153901140D01*
X88798400Y-153878280D01*
X88859360Y-153865580D01*
X88859360Y-152915620D01*
X88861900Y-152882600D01*
X88861900Y-149606000D01*
X88905080Y-149567900D01*
X89034620Y-149539960D01*
X89049860Y-149539960D01*
X89258140Y-149517100D01*
X89275920Y-149890480D01*
X89296240Y-150263860D01*
X89329260Y-150261320D01*
X89329260Y-149946360D01*
X89329260Y-149687280D01*
X89359740Y-149654260D01*
X89392760Y-149687280D01*
X89359740Y-149717760D01*
X89329260Y-149687280D01*
X89329260Y-149946360D01*
X89359740Y-149913340D01*
X89392760Y-149946360D01*
X89359740Y-149979380D01*
X89329260Y-149946360D01*
X89329260Y-150261320D01*
X89634060Y-150243540D01*
X89832180Y-150235920D01*
X89933780Y-150253700D01*
X89969340Y-150312120D01*
X89974420Y-150418800D01*
X89964260Y-150543260D01*
X89908380Y-150604220D01*
X89771220Y-150629620D01*
X89700100Y-150634700D01*
X89489280Y-150644860D01*
X89377520Y-150629620D01*
X89334340Y-150576280D01*
X89329260Y-150522940D01*
X89301320Y-150441660D01*
X89281000Y-150436580D01*
X89131140Y-150431500D01*
X89080340Y-150350220D01*
X89090500Y-150299420D01*
X89087960Y-150197820D01*
X88999060Y-150172420D01*
X88917780Y-150147020D01*
X88884760Y-150053040D01*
X88877140Y-149913340D01*
X88874600Y-149735540D01*
X88864440Y-149621240D01*
X88861900Y-149606000D01*
X88861900Y-152882600D01*
X88866980Y-152786080D01*
X88887300Y-152605740D01*
X88930480Y-152519380D01*
X89016840Y-152493980D01*
X89077800Y-152493980D01*
X89192100Y-152501600D01*
X89245440Y-152552400D01*
X89263220Y-152679400D01*
X89263220Y-152786080D01*
X89260680Y-152963880D01*
X89227660Y-153045160D01*
X89141300Y-153073100D01*
X89054940Y-153075640D01*
X88927940Y-153068020D01*
X88869520Y-153027380D01*
X88859360Y-152915620D01*
X88859360Y-153865580D01*
X89039700Y-153837640D01*
X89260680Y-153766520D01*
X89321640Y-153736040D01*
X89321640Y-150817580D01*
X89646760Y-150817580D01*
X89839800Y-150820120D01*
X89936320Y-150845520D01*
X89969340Y-150911560D01*
X89974420Y-151003000D01*
X89956640Y-151135080D01*
X89882980Y-151203660D01*
X89730580Y-151231600D01*
X89560400Y-151229060D01*
X89418160Y-151206200D01*
X89357200Y-151127460D01*
X89341960Y-151020780D01*
X89321640Y-150817580D01*
X89321640Y-153736040D01*
X89359740Y-153720800D01*
X89359740Y-152204420D01*
X89359740Y-151622760D01*
X89369900Y-151505920D01*
X89418160Y-151444960D01*
X89542620Y-151419560D01*
X89667080Y-151409400D01*
X89974420Y-151389080D01*
X89974420Y-151622760D01*
X89974420Y-151856440D01*
X89667080Y-151836120D01*
X89481660Y-151818340D01*
X89392760Y-151782780D01*
X89364820Y-151704040D01*
X89359740Y-151622760D01*
X89359740Y-152204420D01*
X89369900Y-152085040D01*
X89418160Y-152026620D01*
X89542620Y-151998680D01*
X89667080Y-151988520D01*
X89974420Y-151970740D01*
X89974420Y-152204420D01*
X89974420Y-152435560D01*
X89667080Y-152417780D01*
X89481660Y-152400000D01*
X89392760Y-152361900D01*
X89364820Y-152283160D01*
X89359740Y-152204420D01*
X89359740Y-153720800D01*
X89471500Y-153670000D01*
X89697560Y-153548080D01*
X89885520Y-153428700D01*
X89999820Y-153337260D01*
X90070940Y-153271220D01*
X90136980Y-153255980D01*
X90230960Y-153296620D01*
X90230960Y-150604220D01*
X90274140Y-150253700D01*
X90418920Y-149920960D01*
X90665300Y-149628860D01*
X90802460Y-149519640D01*
X90952320Y-149433280D01*
X91114880Y-149385020D01*
X91335860Y-149367240D01*
X91495880Y-149364700D01*
X91749880Y-149369780D01*
X91922600Y-149392640D01*
X92057220Y-149451060D01*
X92196920Y-149552660D01*
X92209620Y-149562820D01*
X92428060Y-149783800D01*
X92605860Y-150058120D01*
X92720160Y-150337520D01*
X92748100Y-150522940D01*
X92720160Y-150784560D01*
X92651580Y-151043640D01*
X92552520Y-151246840D01*
X92506800Y-151305260D01*
X92440760Y-151386540D01*
X92466160Y-151452580D01*
X92560140Y-151526240D01*
X92661740Y-151617680D01*
X92829380Y-151782780D01*
X93037660Y-151996140D01*
X93266260Y-152239980D01*
X93294200Y-152270460D01*
X93870780Y-152897840D01*
X93715840Y-153022300D01*
X93560900Y-153149300D01*
X93136720Y-152709880D01*
X92910660Y-152468580D01*
X92682060Y-152224740D01*
X92491560Y-152011380D01*
X92448380Y-151960580D01*
X92184220Y-151653240D01*
X91953080Y-151752300D01*
X91577160Y-151841200D01*
X91193620Y-151805640D01*
X91020900Y-151749760D01*
X90683080Y-151546560D01*
X90439240Y-151272240D01*
X90286840Y-150952200D01*
X90230960Y-150604220D01*
X90230960Y-153296620D01*
X90233500Y-153299160D01*
X90398600Y-153410920D01*
X90413840Y-153426160D01*
X90886280Y-153687780D01*
X91409520Y-153852880D01*
X91953080Y-153918920D01*
X92483940Y-153880820D01*
X92877640Y-153771600D01*
X93390720Y-153512520D01*
X93822520Y-153164540D01*
X94157800Y-152740360D01*
X94394020Y-152255220D01*
X94523560Y-151726900D01*
X94536260Y-151163020D01*
X94493080Y-150868380D01*
X94381320Y-150449280D01*
X94208600Y-150091140D01*
X93954600Y-149750780D01*
X93837760Y-149621240D01*
X93431360Y-149278340D01*
X92961460Y-149026880D01*
X92453460Y-148879560D01*
X91927680Y-148828760D01*
X91406980Y-148882100D01*
X90909140Y-149037040D01*
X90459560Y-149296120D01*
X90357960Y-149377400D01*
X90170000Y-149534880D01*
X89959180Y-149377400D01*
X89494360Y-149092920D01*
X88976200Y-148912580D01*
X88755220Y-148869400D01*
X88193880Y-148833840D01*
X87652860Y-148922740D01*
X87147400Y-149118320D01*
X86695280Y-149418040D01*
X86311740Y-149816820D01*
X86014560Y-150296880D01*
X86012020Y-150299420D01*
X85920580Y-150502620D01*
X85862160Y-150672800D01*
X85829140Y-150853140D01*
X85816440Y-151079200D01*
X85811360Y-151396700D01*
X85811360Y-151396700D01*
X85811360Y-151396700D01*
G37*
X85811360Y-151396700D02*
X85818980Y-151724360D01*
X85834220Y-151958040D01*
X85869780Y-152138380D01*
X85925660Y-152303480D01*
X85968840Y-152397460D01*
X86268560Y-152897840D01*
X86352380Y-152986740D01*
X86352380Y-150235920D01*
X86680040Y-150235920D01*
X86873080Y-150238460D01*
X86967060Y-150263860D01*
X87002620Y-150329900D01*
X87007700Y-150418800D01*
X86989920Y-150581360D01*
X86921340Y-150660100D01*
X86771480Y-150677880D01*
X86654640Y-150672800D01*
X86487000Y-150652480D01*
X86405720Y-150599140D01*
X86377780Y-150482300D01*
X86372700Y-150444200D01*
X86352380Y-150235920D01*
X86352380Y-152986740D01*
X86360000Y-152996900D01*
X86360000Y-152427940D01*
X86360000Y-152204420D01*
X86360000Y-151978360D01*
X86360000Y-151848820D01*
X86360000Y-151622760D01*
X86360000Y-151396700D01*
X86360000Y-151267160D01*
X86360000Y-151043640D01*
X86360000Y-150817580D01*
X86682580Y-150817580D01*
X87007700Y-150817580D01*
X87007700Y-151043640D01*
X87007700Y-151267160D01*
X86682580Y-151267160D01*
X86360000Y-151267160D01*
X86360000Y-151396700D01*
X86682580Y-151396700D01*
X87007700Y-151396700D01*
X87007700Y-151622760D01*
X87007700Y-151848820D01*
X86682580Y-151848820D01*
X86360000Y-151848820D01*
X86360000Y-151978360D01*
X86682580Y-151978360D01*
X87007700Y-151978360D01*
X87007700Y-152204420D01*
X87007700Y-152427940D01*
X86682580Y-152427940D01*
X86360000Y-152427940D01*
X86360000Y-152996900D01*
X86641940Y-153296620D01*
X87071200Y-153583640D01*
X87071200Y-152786080D01*
X87071200Y-150172420D01*
X87071200Y-149844760D01*
X87071200Y-149517100D01*
X87279480Y-149537420D01*
X87406480Y-149557740D01*
X87472520Y-149613620D01*
X87500460Y-149738080D01*
X87510620Y-149865080D01*
X87528400Y-150172420D01*
X87299800Y-150172420D01*
X87071200Y-150172420D01*
X87071200Y-152786080D01*
X87076280Y-152605740D01*
X87109300Y-152521920D01*
X87195660Y-152493980D01*
X87297260Y-152493980D01*
X87436960Y-152499060D01*
X87500460Y-152539700D01*
X87520780Y-152654000D01*
X87520780Y-152786080D01*
X87518240Y-152963880D01*
X87485220Y-153045160D01*
X87398860Y-153073100D01*
X87297260Y-153075640D01*
X87157560Y-153068020D01*
X87091520Y-153027380D01*
X87073740Y-152913080D01*
X87071200Y-152786080D01*
X87071200Y-153583640D01*
X87101680Y-153606500D01*
X87503000Y-153784300D01*
X87650320Y-153827480D01*
X87650320Y-152786080D01*
X87650320Y-150172420D01*
X87650320Y-149849840D01*
X87650320Y-149524720D01*
X87876380Y-149524720D01*
X88102440Y-149524720D01*
X88102440Y-149849840D01*
X88102440Y-150172420D01*
X87876380Y-150172420D01*
X87650320Y-150172420D01*
X87650320Y-152786080D01*
X87657940Y-152605740D01*
X87690960Y-152521920D01*
X87777320Y-152493980D01*
X87876380Y-152493980D01*
X88016080Y-152499060D01*
X88082120Y-152539700D01*
X88102440Y-152654000D01*
X88102440Y-152786080D01*
X88097360Y-152963880D01*
X88064340Y-153045160D01*
X87977980Y-153073100D01*
X87876380Y-153075640D01*
X87739220Y-153068020D01*
X87673180Y-153027380D01*
X87652860Y-152913080D01*
X87650320Y-152786080D01*
X87650320Y-153827480D01*
X87739220Y-153857960D01*
X87950040Y-153898600D01*
X88196420Y-153908760D01*
X88247220Y-153906220D01*
X88247220Y-152786080D01*
X88252300Y-152605740D01*
X88265000Y-152565100D01*
X88265000Y-149959060D01*
X88265000Y-149849840D01*
X88270080Y-149669500D01*
X88305640Y-149580600D01*
X88394540Y-149547580D01*
X88473280Y-149537420D01*
X88681560Y-149517100D01*
X88681560Y-149849840D01*
X88681560Y-150180040D01*
X88473280Y-150157180D01*
X88343740Y-150139400D01*
X88285320Y-150086060D01*
X88265000Y-149959060D01*
X88265000Y-152565100D01*
X88280240Y-152521920D01*
X88366600Y-152493980D01*
X88463120Y-152493980D01*
X88600280Y-152499060D01*
X88663780Y-152542240D01*
X88681560Y-152656540D01*
X88681560Y-152786080D01*
X88679020Y-152963880D01*
X88646000Y-153045160D01*
X88559640Y-153073100D01*
X88468200Y-153075640D01*
X88336120Y-153068020D01*
X88272620Y-153022300D01*
X88252300Y-152908000D01*
X88247220Y-152786080D01*
X88247220Y-153906220D01*
X88478360Y-153901140D01*
X88798400Y-153878280D01*
X88859360Y-153865580D01*
X88859360Y-152915620D01*
X88861900Y-152882600D01*
X88861900Y-149606000D01*
X88905080Y-149567900D01*
X89034620Y-149539960D01*
X89049860Y-149539960D01*
X89258140Y-149517100D01*
X89275920Y-149890480D01*
X89296240Y-150263860D01*
X89329260Y-150261320D01*
X89329260Y-149946360D01*
X89329260Y-149687280D01*
X89359740Y-149654260D01*
X89392760Y-149687280D01*
X89359740Y-149717760D01*
X89329260Y-149687280D01*
X89329260Y-149946360D01*
X89359740Y-149913340D01*
X89392760Y-149946360D01*
X89359740Y-149979380D01*
X89329260Y-149946360D01*
X89329260Y-150261320D01*
X89634060Y-150243540D01*
X89832180Y-150235920D01*
X89933780Y-150253700D01*
X89969340Y-150312120D01*
X89974420Y-150418800D01*
X89964260Y-150543260D01*
X89908380Y-150604220D01*
X89771220Y-150629620D01*
X89700100Y-150634700D01*
X89489280Y-150644860D01*
X89377520Y-150629620D01*
X89334340Y-150576280D01*
X89329260Y-150522940D01*
X89301320Y-150441660D01*
X89281000Y-150436580D01*
X89131140Y-150431500D01*
X89080340Y-150350220D01*
X89090500Y-150299420D01*
X89087960Y-150197820D01*
X88999060Y-150172420D01*
X88917780Y-150147020D01*
X88884760Y-150053040D01*
X88877140Y-149913340D01*
X88874600Y-149735540D01*
X88864440Y-149621240D01*
X88861900Y-149606000D01*
X88861900Y-152882600D01*
X88866980Y-152786080D01*
X88887300Y-152605740D01*
X88930480Y-152519380D01*
X89016840Y-152493980D01*
X89077800Y-152493980D01*
X89192100Y-152501600D01*
X89245440Y-152552400D01*
X89263220Y-152679400D01*
X89263220Y-152786080D01*
X89260680Y-152963880D01*
X89227660Y-153045160D01*
X89141300Y-153073100D01*
X89054940Y-153075640D01*
X88927940Y-153068020D01*
X88869520Y-153027380D01*
X88859360Y-152915620D01*
X88859360Y-153865580D01*
X89039700Y-153837640D01*
X89260680Y-153766520D01*
X89321640Y-153736040D01*
X89321640Y-150817580D01*
X89646760Y-150817580D01*
X89839800Y-150820120D01*
X89936320Y-150845520D01*
X89969340Y-150911560D01*
X89974420Y-151003000D01*
X89956640Y-151135080D01*
X89882980Y-151203660D01*
X89730580Y-151231600D01*
X89560400Y-151229060D01*
X89418160Y-151206200D01*
X89357200Y-151127460D01*
X89341960Y-151020780D01*
X89321640Y-150817580D01*
X89321640Y-153736040D01*
X89359740Y-153720800D01*
X89359740Y-152204420D01*
X89359740Y-151622760D01*
X89369900Y-151505920D01*
X89418160Y-151444960D01*
X89542620Y-151419560D01*
X89667080Y-151409400D01*
X89974420Y-151389080D01*
X89974420Y-151622760D01*
X89974420Y-151856440D01*
X89667080Y-151836120D01*
X89481660Y-151818340D01*
X89392760Y-151782780D01*
X89364820Y-151704040D01*
X89359740Y-151622760D01*
X89359740Y-152204420D01*
X89369900Y-152085040D01*
X89418160Y-152026620D01*
X89542620Y-151998680D01*
X89667080Y-151988520D01*
X89974420Y-151970740D01*
X89974420Y-152204420D01*
X89974420Y-152435560D01*
X89667080Y-152417780D01*
X89481660Y-152400000D01*
X89392760Y-152361900D01*
X89364820Y-152283160D01*
X89359740Y-152204420D01*
X89359740Y-153720800D01*
X89471500Y-153670000D01*
X89697560Y-153548080D01*
X89885520Y-153428700D01*
X89999820Y-153337260D01*
X90070940Y-153271220D01*
X90136980Y-153255980D01*
X90230960Y-153296620D01*
X90230960Y-150604220D01*
X90274140Y-150253700D01*
X90418920Y-149920960D01*
X90665300Y-149628860D01*
X90802460Y-149519640D01*
X90952320Y-149433280D01*
X91114880Y-149385020D01*
X91335860Y-149367240D01*
X91495880Y-149364700D01*
X91749880Y-149369780D01*
X91922600Y-149392640D01*
X92057220Y-149451060D01*
X92196920Y-149552660D01*
X92209620Y-149562820D01*
X92428060Y-149783800D01*
X92605860Y-150058120D01*
X92720160Y-150337520D01*
X92748100Y-150522940D01*
X92720160Y-150784560D01*
X92651580Y-151043640D01*
X92552520Y-151246840D01*
X92506800Y-151305260D01*
X92440760Y-151386540D01*
X92466160Y-151452580D01*
X92560140Y-151526240D01*
X92661740Y-151617680D01*
X92829380Y-151782780D01*
X93037660Y-151996140D01*
X93266260Y-152239980D01*
X93294200Y-152270460D01*
X93870780Y-152897840D01*
X93715840Y-153022300D01*
X93560900Y-153149300D01*
X93136720Y-152709880D01*
X92910660Y-152468580D01*
X92682060Y-152224740D01*
X92491560Y-152011380D01*
X92448380Y-151960580D01*
X92184220Y-151653240D01*
X91953080Y-151752300D01*
X91577160Y-151841200D01*
X91193620Y-151805640D01*
X91020900Y-151749760D01*
X90683080Y-151546560D01*
X90439240Y-151272240D01*
X90286840Y-150952200D01*
X90230960Y-150604220D01*
X90230960Y-153296620D01*
X90233500Y-153299160D01*
X90398600Y-153410920D01*
X90413840Y-153426160D01*
X90886280Y-153687780D01*
X91409520Y-153852880D01*
X91953080Y-153918920D01*
X92483940Y-153880820D01*
X92877640Y-153771600D01*
X93390720Y-153512520D01*
X93822520Y-153164540D01*
X94157800Y-152740360D01*
X94394020Y-152255220D01*
X94523560Y-151726900D01*
X94536260Y-151163020D01*
X94493080Y-150868380D01*
X94381320Y-150449280D01*
X94208600Y-150091140D01*
X93954600Y-149750780D01*
X93837760Y-149621240D01*
X93431360Y-149278340D01*
X92961460Y-149026880D01*
X92453460Y-148879560D01*
X91927680Y-148828760D01*
X91406980Y-148882100D01*
X90909140Y-149037040D01*
X90459560Y-149296120D01*
X90357960Y-149377400D01*
X90170000Y-149534880D01*
X89959180Y-149377400D01*
X89494360Y-149092920D01*
X88976200Y-148912580D01*
X88755220Y-148869400D01*
X88193880Y-148833840D01*
X87652860Y-148922740D01*
X87147400Y-149118320D01*
X86695280Y-149418040D01*
X86311740Y-149816820D01*
X86014560Y-150296880D01*
X86012020Y-150299420D01*
X85920580Y-150502620D01*
X85862160Y-150672800D01*
X85829140Y-150853140D01*
X85816440Y-151079200D01*
X85811360Y-151396700D01*
X85811360Y-151396700D01*
G36*
X90632280Y-150456900D02*
X90650060Y-150751540D01*
X90756740Y-151028400D01*
X90939620Y-151257000D01*
X91183460Y-151409400D01*
X91457780Y-151460200D01*
X91625420Y-151432260D01*
X91818460Y-151361140D01*
X91838780Y-151348440D01*
X92102940Y-151150320D01*
X92268040Y-150898860D01*
X92334080Y-150614380D01*
X92301060Y-150324820D01*
X92163900Y-150058120D01*
X91927680Y-149839680D01*
X91899740Y-149821900D01*
X91625420Y-149727920D01*
X91330780Y-149738080D01*
X91048840Y-149839680D01*
X90817700Y-150022560D01*
X90718640Y-150164800D01*
X90632280Y-150456900D01*
X90632280Y-150456900D01*
X90632280Y-150456900D01*
G37*
X90632280Y-150456900D02*
X90650060Y-150751540D01*
X90756740Y-151028400D01*
X90939620Y-151257000D01*
X91183460Y-151409400D01*
X91457780Y-151460200D01*
X91625420Y-151432260D01*
X91818460Y-151361140D01*
X91838780Y-151348440D01*
X92102940Y-151150320D01*
X92268040Y-150898860D01*
X92334080Y-150614380D01*
X92301060Y-150324820D01*
X92163900Y-150058120D01*
X91927680Y-149839680D01*
X91899740Y-149821900D01*
X91625420Y-149727920D01*
X91330780Y-149738080D01*
X91048840Y-149839680D01*
X90817700Y-150022560D01*
X90718640Y-150164800D01*
X90632280Y-150456900D01*
X90632280Y-150456900D01*
M02*
