G04 #@! TF.FileFunction,Copper,L2,Bot,Signal*
%FSLAX46Y46*%
G04 Gerber Fmt 4.6, Leading zero omitted, Abs format (unit mm)*
G04 Created by KiCad (PCBNEW 4.0.4-stable) date 01/19/17 13:05:08*
%MOMM*%
%LPD*%
G01*
G04 APERTURE LIST*
%ADD10C,0.100000*%
%ADD11C,0.150000*%
%ADD12C,0.800000*%
%ADD13C,1.879600*%
%ADD14C,4.000000*%
%ADD15O,5.100000X4.000000*%
%ADD16O,4.000000X5.100000*%
%ADD17C,0.600000*%
%ADD18C,0.250000*%
G04 APERTURE END LIST*
D10*
D11*
X107358112Y-144526000D02*
G75*
G03X107358112Y-144526000I-23030112J0D01*
G01*
D12*
X81788000Y-147574000D03*
X86360000Y-147574000D03*
X85852000Y-145288000D03*
X84074000Y-143764000D03*
X86360000Y-143002000D03*
X84074000Y-145288000D03*
X82042000Y-145288000D03*
X81788000Y-143002000D03*
D13*
X96012000Y-152908000D03*
X96012000Y-150368000D03*
X96012000Y-147828000D03*
X96012000Y-145288000D03*
X96012000Y-142748000D03*
X96012000Y-140208000D03*
D14*
X70882934Y-130408328D02*
X70105116Y-131186146D01*
D10*
G36*
X69769948Y-126537624D02*
X72598376Y-129366052D01*
X69062842Y-132901586D01*
X66234414Y-130073158D01*
X69769948Y-126537624D01*
X69769948Y-126537624D01*
G37*
D14*
X98699672Y-131334934D02*
X97921854Y-130557116D01*
D10*
G36*
X102570376Y-130221948D02*
X99741948Y-133050376D01*
X96206414Y-129514842D01*
X99034842Y-126686414D01*
X102570376Y-130221948D01*
X102570376Y-130221948D01*
G37*
D14*
X92386995Y-126740505D02*
X91374439Y-126310701D01*
D10*
G36*
X95558916Y-124258572D02*
X93995992Y-127940592D01*
X89393468Y-125986936D01*
X90956392Y-122304916D01*
X95558916Y-124258572D01*
X95558916Y-124258572D01*
G37*
D14*
X97773066Y-158643672D02*
X98550884Y-157865854D01*
D10*
G36*
X98886052Y-162514376D02*
X96057624Y-159685948D01*
X99593158Y-156150414D01*
X102421586Y-158978842D01*
X98886052Y-162514376D01*
X98886052Y-162514376D01*
G37*
D15*
X84327999Y-124968000D03*
D10*
G36*
X86828000Y-121444000D02*
X86828000Y-125444000D01*
X81828000Y-125444000D01*
X81828000Y-121444000D01*
X86828000Y-121444000D01*
X86828000Y-121444000D01*
G37*
D14*
X102583855Y-137751346D02*
X102171787Y-136731444D01*
D10*
G36*
X106581734Y-138239241D02*
X102872999Y-139737668D01*
X100999966Y-135101749D01*
X104708701Y-133603322D01*
X106581734Y-138239241D01*
X106581734Y-138239241D01*
G37*
D16*
X103886000Y-144525999D03*
D10*
G36*
X107410000Y-147026000D02*
X103410000Y-147026000D01*
X103410000Y-142026000D01*
X107410000Y-142026000D01*
X107410000Y-147026000D01*
X107410000Y-147026000D01*
G37*
D16*
X64770000Y-144526001D03*
D10*
G36*
X61246000Y-142026000D02*
X65246000Y-142026000D01*
X65246000Y-147026000D01*
X61246000Y-147026000D01*
X61246000Y-142026000D01*
X61246000Y-142026000D01*
G37*
D14*
X66303329Y-136895091D02*
X65927107Y-137928753D01*
D10*
G36*
X63658792Y-133857410D02*
X67417563Y-135225491D01*
X65707462Y-139923954D01*
X61948691Y-138555873D01*
X63658792Y-133857410D01*
X63658792Y-133857410D01*
G37*
D14*
X102108088Y-152357545D02*
X102520156Y-151337643D01*
D10*
G36*
X104645001Y-155485668D02*
X100936266Y-153987241D01*
X102809299Y-149351322D01*
X106518034Y-150849749D01*
X104645001Y-155485668D01*
X104645001Y-155485668D01*
G37*
D14*
X91334057Y-162796807D02*
X92346613Y-162367003D01*
D10*
G36*
X90916008Y-166802592D02*
X89353084Y-163120572D01*
X93955608Y-161166916D01*
X95518532Y-164848936D01*
X90916008Y-166802592D01*
X90916008Y-166802592D01*
G37*
D14*
X76523005Y-162311495D02*
X77535561Y-162741299D01*
D10*
G36*
X73351084Y-164793428D02*
X74914008Y-161111408D01*
X79516532Y-163065064D01*
X77953608Y-166747084D01*
X73351084Y-164793428D01*
X73351084Y-164793428D01*
G37*
D14*
X70210328Y-157971066D02*
X70988146Y-158748884D01*
D10*
G36*
X66339624Y-159084052D02*
X69168052Y-156255624D01*
X72703586Y-159791158D01*
X69875158Y-162619586D01*
X66339624Y-159084052D01*
X66339624Y-159084052D01*
G37*
D14*
X66026119Y-151487664D02*
X66490999Y-152484602D01*
D10*
G36*
X62008184Y-151209669D02*
X65633415Y-149519196D01*
X67746506Y-154050735D01*
X64121275Y-155741208D01*
X62008184Y-151209669D01*
X62008184Y-151209669D01*
G37*
D14*
X77575943Y-126255193D02*
X76563387Y-126684997D01*
D10*
G36*
X77993992Y-122249408D02*
X79556916Y-125931428D01*
X74954392Y-127885084D01*
X73391468Y-124203064D01*
X77993992Y-122249408D01*
X77993992Y-122249408D01*
G37*
D17*
X68199000Y-145897600D03*
X96164400Y-155092400D03*
X99237800Y-153441400D03*
X76682600Y-148183600D03*
X67132200Y-148818600D03*
X77546200Y-158369000D03*
X94564200Y-155829000D03*
X92354400Y-155575000D03*
X76885800Y-140081000D03*
X93319600Y-134391400D03*
X99314000Y-140970000D03*
X99314000Y-142748000D03*
X89306400Y-159258000D03*
X89535000Y-157251400D03*
X99364800Y-151638000D03*
X94589600Y-151638000D03*
X90576400Y-148971000D03*
X71374000Y-155448000D03*
X89484200Y-148031200D03*
X67513200Y-147751800D03*
X91084400Y-151485600D03*
X74041000Y-155219400D03*
X77063600Y-143840200D03*
X77622400Y-142849600D03*
X69342000Y-153085800D03*
X73279000Y-149148800D03*
X73279000Y-150266400D03*
X90881200Y-147929600D03*
X90957400Y-146380200D03*
X89865200Y-143941800D03*
X89408000Y-137414000D03*
X90932000Y-138684000D03*
X88214200Y-159588200D03*
X88239600Y-157073600D03*
D18*
X81635600Y-145694400D02*
X82042000Y-145288000D01*
X68402200Y-145694400D02*
X81635600Y-145694400D01*
X68199000Y-145897600D02*
X68402200Y-145694400D01*
X96012000Y-152908000D02*
X96012000Y-154940000D01*
X96012000Y-154940000D02*
X96164400Y-155092400D01*
X98704400Y-152908000D02*
X96012000Y-152908000D01*
X99237800Y-153441400D02*
X98704400Y-152908000D01*
X76403200Y-148463000D02*
X76682600Y-148183600D01*
X67487800Y-148463000D02*
X76403200Y-148463000D01*
X67132200Y-148818600D02*
X67487800Y-148463000D01*
X78409800Y-158369000D02*
X77546200Y-158369000D01*
X80568800Y-160528000D02*
X78409800Y-158369000D01*
X89865200Y-160528000D02*
X80568800Y-160528000D01*
X94564200Y-155829000D02*
X89865200Y-160528000D01*
X92735400Y-150368000D02*
X96012000Y-150368000D01*
X92303600Y-150799800D02*
X92735400Y-150368000D01*
X92303600Y-155524200D02*
X92303600Y-150799800D01*
X92354400Y-155575000D02*
X92303600Y-155524200D01*
X76885800Y-137388600D02*
X76885800Y-140081000D01*
X79883000Y-134391400D02*
X76885800Y-137388600D01*
X87122000Y-134391400D02*
X79883000Y-134391400D01*
X93319600Y-134391400D02*
X87122000Y-134391400D01*
X99314000Y-142748000D02*
X99314000Y-140970000D01*
X89306400Y-157480000D02*
X89306400Y-159258000D01*
X89535000Y-157251400D02*
X89306400Y-157480000D01*
X98161974Y-158254764D02*
X99239605Y-159332395D01*
X99364800Y-151638000D02*
X94919800Y-151638000D01*
X94919800Y-151638000D02*
X94589600Y-151638000D01*
X75590400Y-148971000D02*
X90576400Y-148971000D01*
X71348600Y-153212800D02*
X75590400Y-148971000D01*
X71348600Y-155422600D02*
X71348600Y-153212800D01*
X71374000Y-155448000D02*
X71348600Y-155422600D01*
X88994402Y-148520998D02*
X89484200Y-148031200D01*
X79026598Y-148520998D02*
X88994402Y-148520998D01*
X77952600Y-147447000D02*
X79026598Y-148520998D01*
X75209400Y-147447000D02*
X77952600Y-147447000D01*
X75082400Y-147574000D02*
X75209400Y-147447000D01*
X67691000Y-147574000D02*
X75082400Y-147574000D01*
X67513200Y-147751800D02*
X67691000Y-147574000D01*
X77774800Y-151485600D02*
X91084400Y-151485600D01*
X74041000Y-155219400D02*
X77774800Y-151485600D01*
X63246000Y-144526000D02*
X76377800Y-144526000D01*
X76377800Y-144526000D02*
X77063600Y-143840200D01*
X64683127Y-136890682D02*
X66050082Y-136890682D01*
X66050082Y-136890682D02*
X72009000Y-142849600D01*
X72009000Y-142849600D02*
X77622400Y-142849600D01*
X73279000Y-149148800D02*
X69342000Y-153085800D01*
X69418200Y-154127200D02*
X66374343Y-154127200D01*
X73279000Y-150266400D02*
X69418200Y-154127200D01*
X66374343Y-154127200D02*
X64877345Y-152630202D01*
X105410000Y-144526000D02*
X103936800Y-144526000D01*
X103936800Y-144526000D02*
X99364800Y-149098000D01*
X99364800Y-149098000D02*
X92049600Y-149098000D01*
X92049600Y-149098000D02*
X90881200Y-147929600D01*
X103790850Y-136670495D02*
X98914505Y-136670495D01*
X90678000Y-146100800D02*
X90957400Y-146380200D01*
X90678000Y-143662400D02*
X90678000Y-146100800D01*
X96037400Y-138303000D02*
X90678000Y-143662400D01*
X97282000Y-138303000D02*
X96037400Y-138303000D01*
X98914505Y-136670495D02*
X97282000Y-138303000D01*
X99388395Y-129868395D02*
X99388395Y-133707405D01*
X89865200Y-143230600D02*
X89865200Y-143941800D01*
X99388395Y-133707405D02*
X89865200Y-143230600D01*
X89408000Y-137414000D02*
X90932000Y-138938000D01*
X90932000Y-138938000D02*
X90932000Y-138684000D01*
X88214200Y-159588200D02*
X88239600Y-159562800D01*
X88239600Y-159562800D02*
X88239600Y-157073600D01*
G36*
X93664761Y-151453199D02*
X93664440Y-151821187D01*
X93804966Y-152161286D01*
X94064945Y-152421720D01*
X94404799Y-152562839D01*
X94463347Y-152562890D01*
X94427633Y-152660293D01*
X94453442Y-153285459D01*
X94643030Y-153743162D01*
X94902836Y-153834731D01*
X95829566Y-152908000D01*
X95815424Y-152893858D01*
X95997858Y-152711424D01*
X96012000Y-152725566D01*
X96026142Y-152711424D01*
X96208576Y-152893858D01*
X96194434Y-152908000D01*
X96208576Y-152922142D01*
X96026142Y-153104576D01*
X96012000Y-153090434D01*
X95085269Y-154017164D01*
X95176838Y-154276970D01*
X95354378Y-154342067D01*
X94905842Y-154827982D01*
X94805997Y-154927827D01*
X94749001Y-154904161D01*
X94381013Y-154903840D01*
X94040914Y-155044366D01*
X93780480Y-155304345D01*
X93639361Y-155644199D01*
X93639318Y-155693222D01*
X92509408Y-156823132D01*
X91457169Y-157445886D01*
X90056400Y-158119673D01*
X90056400Y-158036813D01*
X90058286Y-158036034D01*
X90318720Y-157776055D01*
X90459839Y-157436201D01*
X90460160Y-157068213D01*
X90319634Y-156728114D01*
X90059655Y-156467680D01*
X89719801Y-156326561D01*
X89351813Y-156326240D01*
X89011714Y-156466766D01*
X88976211Y-156502207D01*
X88764255Y-156289880D01*
X88424401Y-156148761D01*
X88056413Y-156148440D01*
X87716314Y-156288966D01*
X87455880Y-156548945D01*
X87314761Y-156888799D01*
X87314440Y-157256787D01*
X87454966Y-157596886D01*
X87489600Y-157631581D01*
X87489600Y-158948973D01*
X87274456Y-159008323D01*
X85284536Y-159285400D01*
X83748751Y-159285400D01*
X82163974Y-159159624D01*
X79619412Y-158517952D01*
X78940130Y-157838670D01*
X78696813Y-157676090D01*
X78409800Y-157619000D01*
X78104516Y-157619000D01*
X78070855Y-157585280D01*
X77731001Y-157444161D01*
X77363013Y-157443840D01*
X77266801Y-157483594D01*
X76646932Y-157119757D01*
X75184617Y-156161689D01*
X74777642Y-155791051D01*
X74824720Y-155744055D01*
X74965839Y-155404201D01*
X74965882Y-155355178D01*
X78085460Y-152235600D01*
X90526084Y-152235600D01*
X90559745Y-152269320D01*
X90899599Y-152410439D01*
X91267587Y-152410760D01*
X91553600Y-152292582D01*
X91553600Y-155091478D01*
X91429561Y-155390199D01*
X91429240Y-155758187D01*
X91569766Y-156098286D01*
X91829745Y-156358720D01*
X92169599Y-156499839D01*
X92537587Y-156500160D01*
X92877686Y-156359634D01*
X93138120Y-156099655D01*
X93279239Y-155759801D01*
X93279560Y-155391813D01*
X93139034Y-155051714D01*
X93053600Y-154966130D01*
X93053600Y-151118000D01*
X93803947Y-151118000D01*
X93664761Y-151453199D01*
X93664761Y-151453199D01*
G37*
X93664761Y-151453199D02*
X93664440Y-151821187D01*
X93804966Y-152161286D01*
X94064945Y-152421720D01*
X94404799Y-152562839D01*
X94463347Y-152562890D01*
X94427633Y-152660293D01*
X94453442Y-153285459D01*
X94643030Y-153743162D01*
X94902836Y-153834731D01*
X95829566Y-152908000D01*
X95815424Y-152893858D01*
X95997858Y-152711424D01*
X96012000Y-152725566D01*
X96026142Y-152711424D01*
X96208576Y-152893858D01*
X96194434Y-152908000D01*
X96208576Y-152922142D01*
X96026142Y-153104576D01*
X96012000Y-153090434D01*
X95085269Y-154017164D01*
X95176838Y-154276970D01*
X95354378Y-154342067D01*
X94905842Y-154827982D01*
X94805997Y-154927827D01*
X94749001Y-154904161D01*
X94381013Y-154903840D01*
X94040914Y-155044366D01*
X93780480Y-155304345D01*
X93639361Y-155644199D01*
X93639318Y-155693222D01*
X92509408Y-156823132D01*
X91457169Y-157445886D01*
X90056400Y-158119673D01*
X90056400Y-158036813D01*
X90058286Y-158036034D01*
X90318720Y-157776055D01*
X90459839Y-157436201D01*
X90460160Y-157068213D01*
X90319634Y-156728114D01*
X90059655Y-156467680D01*
X89719801Y-156326561D01*
X89351813Y-156326240D01*
X89011714Y-156466766D01*
X88976211Y-156502207D01*
X88764255Y-156289880D01*
X88424401Y-156148761D01*
X88056413Y-156148440D01*
X87716314Y-156288966D01*
X87455880Y-156548945D01*
X87314761Y-156888799D01*
X87314440Y-157256787D01*
X87454966Y-157596886D01*
X87489600Y-157631581D01*
X87489600Y-158948973D01*
X87274456Y-159008323D01*
X85284536Y-159285400D01*
X83748751Y-159285400D01*
X82163974Y-159159624D01*
X79619412Y-158517952D01*
X78940130Y-157838670D01*
X78696813Y-157676090D01*
X78409800Y-157619000D01*
X78104516Y-157619000D01*
X78070855Y-157585280D01*
X77731001Y-157444161D01*
X77363013Y-157443840D01*
X77266801Y-157483594D01*
X76646932Y-157119757D01*
X75184617Y-156161689D01*
X74777642Y-155791051D01*
X74824720Y-155744055D01*
X74965839Y-155404201D01*
X74965882Y-155355178D01*
X78085460Y-152235600D01*
X90526084Y-152235600D01*
X90559745Y-152269320D01*
X90899599Y-152410439D01*
X91267587Y-152410760D01*
X91553600Y-152292582D01*
X91553600Y-155091478D01*
X91429561Y-155390199D01*
X91429240Y-155758187D01*
X91569766Y-156098286D01*
X91829745Y-156358720D01*
X92169599Y-156499839D01*
X92537587Y-156500160D01*
X92877686Y-156359634D01*
X93138120Y-156099655D01*
X93279239Y-155759801D01*
X93279560Y-155391813D01*
X93139034Y-155051714D01*
X93053600Y-154966130D01*
X93053600Y-151118000D01*
X93803947Y-151118000D01*
X93664761Y-151453199D01*
G36*
X86013719Y-129841958D02*
X87904231Y-130194853D01*
X89642148Y-130748972D01*
X91505288Y-131605009D01*
X93800452Y-133168747D01*
X94754373Y-134047359D01*
X95989501Y-135433726D01*
X96237730Y-135797410D01*
X89334870Y-142700270D01*
X89172290Y-142943587D01*
X89115200Y-143230600D01*
X89115200Y-143383484D01*
X89081480Y-143417145D01*
X88940361Y-143756999D01*
X88940040Y-144124987D01*
X89080566Y-144465086D01*
X89340545Y-144725520D01*
X89680399Y-144866639D01*
X89928000Y-144866855D01*
X89928000Y-146100800D01*
X89985090Y-146387813D01*
X90032331Y-146458515D01*
X90032240Y-146563387D01*
X90172766Y-146903486D01*
X90397497Y-147128611D01*
X90357914Y-147144966D01*
X90131822Y-147370663D01*
X90008855Y-147247480D01*
X89669001Y-147106361D01*
X89301013Y-147106040D01*
X88960914Y-147246566D01*
X88700480Y-147506545D01*
X88590670Y-147770998D01*
X87381494Y-147770998D01*
X87406540Y-147692587D01*
X87372258Y-147283066D01*
X87281496Y-147063947D01*
X87077460Y-147038973D01*
X86542434Y-147574000D01*
X86556576Y-147588142D01*
X86374142Y-147770576D01*
X86360000Y-147756434D01*
X86345858Y-147770576D01*
X86163424Y-147588142D01*
X86177566Y-147574000D01*
X85642540Y-147038973D01*
X85438504Y-147063947D01*
X85313460Y-147455413D01*
X85339878Y-147770998D01*
X82809494Y-147770998D01*
X82834540Y-147692587D01*
X82800258Y-147283066D01*
X82709496Y-147063947D01*
X82505460Y-147038973D01*
X81970434Y-147574000D01*
X81984576Y-147588142D01*
X81802142Y-147770576D01*
X81788000Y-147756434D01*
X81773858Y-147770576D01*
X81591424Y-147588142D01*
X81605566Y-147574000D01*
X81070540Y-147038973D01*
X80866504Y-147063947D01*
X80741460Y-147455413D01*
X80767878Y-147770998D01*
X79337258Y-147770998D01*
X78482930Y-146916670D01*
X78392940Y-146856540D01*
X81252973Y-146856540D01*
X81788000Y-147391566D01*
X82323027Y-146856540D01*
X85824973Y-146856540D01*
X86360000Y-147391566D01*
X86895027Y-146856540D01*
X86870053Y-146652504D01*
X86478587Y-146527460D01*
X86069066Y-146561742D01*
X85849947Y-146652504D01*
X85824973Y-146856540D01*
X82323027Y-146856540D01*
X82298053Y-146652504D01*
X81906587Y-146527460D01*
X81497066Y-146561742D01*
X81277947Y-146652504D01*
X81252973Y-146856540D01*
X78392940Y-146856540D01*
X78239613Y-146754090D01*
X77952600Y-146697000D01*
X75209400Y-146697000D01*
X74922387Y-146754090D01*
X74817760Y-146824000D01*
X69745384Y-146824000D01*
X69646765Y-146005460D01*
X81506973Y-146005460D01*
X81531947Y-146209496D01*
X81923413Y-146334540D01*
X82332934Y-146300258D01*
X82552053Y-146209496D01*
X82577027Y-146005460D01*
X83538973Y-146005460D01*
X83563947Y-146209496D01*
X83955413Y-146334540D01*
X84364934Y-146300258D01*
X84584053Y-146209496D01*
X84609027Y-146005460D01*
X85316973Y-146005460D01*
X85341947Y-146209496D01*
X85733413Y-146334540D01*
X86142934Y-146300258D01*
X86362053Y-146209496D01*
X86387027Y-146005460D01*
X85852000Y-145470434D01*
X85316973Y-146005460D01*
X84609027Y-146005460D01*
X84074000Y-145470434D01*
X83538973Y-146005460D01*
X82577027Y-146005460D01*
X82042000Y-145470434D01*
X81506973Y-146005460D01*
X69646765Y-146005460D01*
X69568758Y-145358003D01*
X69570484Y-145276000D01*
X76377800Y-145276000D01*
X76664813Y-145218910D01*
X76738890Y-145169413D01*
X80995460Y-145169413D01*
X81029742Y-145578934D01*
X81120504Y-145798053D01*
X81324540Y-145823027D01*
X81859566Y-145288000D01*
X82224434Y-145288000D01*
X82759460Y-145823027D01*
X82963496Y-145798053D01*
X83055875Y-145508849D01*
X83061742Y-145578934D01*
X83152504Y-145798053D01*
X83356540Y-145823027D01*
X83891566Y-145288000D01*
X84256434Y-145288000D01*
X84791460Y-145823027D01*
X84963000Y-145802031D01*
X85134540Y-145823027D01*
X85669566Y-145288000D01*
X86034434Y-145288000D01*
X86569460Y-145823027D01*
X86773496Y-145798053D01*
X86898540Y-145406587D01*
X86864258Y-144997066D01*
X86773496Y-144777947D01*
X86569460Y-144752973D01*
X86034434Y-145288000D01*
X85669566Y-145288000D01*
X85134540Y-144752973D01*
X84963000Y-144773969D01*
X84791460Y-144752973D01*
X84256434Y-145288000D01*
X83891566Y-145288000D01*
X83356540Y-144752973D01*
X83152504Y-144777947D01*
X83060125Y-145067151D01*
X83054258Y-144997066D01*
X82963496Y-144777947D01*
X82759460Y-144752973D01*
X82224434Y-145288000D01*
X81859566Y-145288000D01*
X81324540Y-144752973D01*
X81120504Y-144777947D01*
X80995460Y-145169413D01*
X76738890Y-145169413D01*
X76908130Y-145056330D01*
X77199142Y-144765318D01*
X77246787Y-144765360D01*
X77586886Y-144624834D01*
X77641275Y-144570540D01*
X81506973Y-144570540D01*
X82042000Y-145105566D01*
X82577027Y-144570540D01*
X82566124Y-144481460D01*
X83538973Y-144481460D01*
X83544425Y-144526000D01*
X83538973Y-144570540D01*
X83551397Y-144582964D01*
X83563947Y-144685496D01*
X83696162Y-144727729D01*
X84074000Y-145105566D01*
X84430444Y-144749123D01*
X84584053Y-144685496D01*
X84596603Y-144582964D01*
X84609027Y-144570540D01*
X85316973Y-144570540D01*
X85852000Y-145105566D01*
X86387027Y-144570540D01*
X86362053Y-144366504D01*
X85970587Y-144241460D01*
X85561066Y-144275742D01*
X85341947Y-144366504D01*
X85316973Y-144570540D01*
X84609027Y-144570540D01*
X84603575Y-144526000D01*
X84609027Y-144481460D01*
X84596603Y-144469036D01*
X84584053Y-144366504D01*
X84451838Y-144324271D01*
X84074000Y-143946434D01*
X83717556Y-144302877D01*
X83563947Y-144366504D01*
X83551397Y-144469036D01*
X83538973Y-144481460D01*
X82566124Y-144481460D01*
X82552053Y-144366504D01*
X82160587Y-144241460D01*
X81751066Y-144275742D01*
X81531947Y-144366504D01*
X81506973Y-144570540D01*
X77641275Y-144570540D01*
X77847320Y-144364855D01*
X77988439Y-144025001D01*
X77988705Y-143719460D01*
X81252973Y-143719460D01*
X81277947Y-143923496D01*
X81669413Y-144048540D01*
X82078934Y-144014258D01*
X82298053Y-143923496D01*
X82323027Y-143719460D01*
X82248980Y-143645413D01*
X83027460Y-143645413D01*
X83061742Y-144054934D01*
X83152504Y-144274053D01*
X83356540Y-144299027D01*
X83891566Y-143764000D01*
X84256434Y-143764000D01*
X84791460Y-144299027D01*
X84995496Y-144274053D01*
X85120540Y-143882587D01*
X85106885Y-143719460D01*
X85824973Y-143719460D01*
X85849947Y-143923496D01*
X86241413Y-144048540D01*
X86650934Y-144014258D01*
X86870053Y-143923496D01*
X86895027Y-143719460D01*
X86360000Y-143184434D01*
X85824973Y-143719460D01*
X85106885Y-143719460D01*
X85086258Y-143473066D01*
X84995496Y-143253947D01*
X84791460Y-143228973D01*
X84256434Y-143764000D01*
X83891566Y-143764000D01*
X83356540Y-143228973D01*
X83152504Y-143253947D01*
X83027460Y-143645413D01*
X82248980Y-143645413D01*
X81788000Y-143184434D01*
X81252973Y-143719460D01*
X77988705Y-143719460D01*
X77988723Y-143699090D01*
X78145686Y-143634234D01*
X78406120Y-143374255D01*
X78547239Y-143034401D01*
X78547370Y-142883413D01*
X80741460Y-142883413D01*
X80775742Y-143292934D01*
X80866504Y-143512053D01*
X81070540Y-143537027D01*
X81605566Y-143002000D01*
X81970434Y-143002000D01*
X82505460Y-143537027D01*
X82709496Y-143512053D01*
X82834540Y-143120587D01*
X82828342Y-143046540D01*
X83538973Y-143046540D01*
X84074000Y-143581566D01*
X84609027Y-143046540D01*
X84589061Y-142883413D01*
X85313460Y-142883413D01*
X85347742Y-143292934D01*
X85438504Y-143512053D01*
X85642540Y-143537027D01*
X86177566Y-143002000D01*
X86542434Y-143002000D01*
X87077460Y-143537027D01*
X87281496Y-143512053D01*
X87406540Y-143120587D01*
X87372258Y-142711066D01*
X87281496Y-142491947D01*
X87077460Y-142466973D01*
X86542434Y-143002000D01*
X86177566Y-143002000D01*
X85642540Y-142466973D01*
X85438504Y-142491947D01*
X85313460Y-142883413D01*
X84589061Y-142883413D01*
X84584053Y-142842504D01*
X84192587Y-142717460D01*
X83783066Y-142751742D01*
X83563947Y-142842504D01*
X83538973Y-143046540D01*
X82828342Y-143046540D01*
X82800258Y-142711066D01*
X82709496Y-142491947D01*
X82505460Y-142466973D01*
X81970434Y-143002000D01*
X81605566Y-143002000D01*
X81070540Y-142466973D01*
X80866504Y-142491947D01*
X80741460Y-142883413D01*
X78547370Y-142883413D01*
X78547560Y-142666413D01*
X78407034Y-142326314D01*
X78365333Y-142284540D01*
X81252973Y-142284540D01*
X81788000Y-142819566D01*
X82323027Y-142284540D01*
X85824973Y-142284540D01*
X86360000Y-142819566D01*
X86895027Y-142284540D01*
X86870053Y-142080504D01*
X86478587Y-141955460D01*
X86069066Y-141989742D01*
X85849947Y-142080504D01*
X85824973Y-142284540D01*
X82323027Y-142284540D01*
X82298053Y-142080504D01*
X81906587Y-141955460D01*
X81497066Y-141989742D01*
X81277947Y-142080504D01*
X81252973Y-142284540D01*
X78365333Y-142284540D01*
X78147055Y-142065880D01*
X77807201Y-141924761D01*
X77439213Y-141924440D01*
X77099114Y-142064966D01*
X77064419Y-142099600D01*
X72319660Y-142099600D01*
X70484247Y-140264187D01*
X75960640Y-140264187D01*
X76101166Y-140604286D01*
X76361145Y-140864720D01*
X76700999Y-141005839D01*
X77068987Y-141006160D01*
X77409086Y-140865634D01*
X77669520Y-140605655D01*
X77810639Y-140265801D01*
X77810960Y-139897813D01*
X77670434Y-139557714D01*
X77635800Y-139523019D01*
X77635800Y-137699260D01*
X77737873Y-137597187D01*
X88482840Y-137597187D01*
X88623366Y-137937286D01*
X88883345Y-138197720D01*
X89223199Y-138338839D01*
X89272222Y-138338882D01*
X90401670Y-139468330D01*
X90644987Y-139630910D01*
X90932000Y-139688000D01*
X91219013Y-139630910D01*
X91462330Y-139468330D01*
X91475830Y-139448126D01*
X91715720Y-139208655D01*
X91856839Y-138868801D01*
X91857160Y-138500813D01*
X91716634Y-138160714D01*
X91456655Y-137900280D01*
X91116801Y-137759161D01*
X90813556Y-137758896D01*
X90333118Y-137278458D01*
X90333160Y-137230813D01*
X90192634Y-136890714D01*
X89932655Y-136630280D01*
X89592801Y-136489161D01*
X89224813Y-136488840D01*
X88884714Y-136629366D01*
X88624280Y-136889345D01*
X88483161Y-137229199D01*
X88482840Y-137597187D01*
X77737873Y-137597187D01*
X80193660Y-135141400D01*
X92761284Y-135141400D01*
X92794945Y-135175120D01*
X93134799Y-135316239D01*
X93502787Y-135316560D01*
X93842886Y-135176034D01*
X94103320Y-134916055D01*
X94244439Y-134576201D01*
X94244760Y-134208213D01*
X94104234Y-133868114D01*
X93844255Y-133607680D01*
X93504401Y-133466561D01*
X93136413Y-133466240D01*
X92796314Y-133606766D01*
X92761619Y-133641400D01*
X79883000Y-133641400D01*
X79595987Y-133698490D01*
X79361563Y-133855128D01*
X79352670Y-133861070D01*
X76355470Y-136858270D01*
X76192890Y-137101587D01*
X76135800Y-137388600D01*
X76135800Y-139522684D01*
X76102080Y-139556345D01*
X75960961Y-139896199D01*
X75960640Y-140264187D01*
X70484247Y-140264187D01*
X70238324Y-140018264D01*
X71004852Y-138101944D01*
X71733912Y-136744385D01*
X73146356Y-134827496D01*
X74151768Y-133771813D01*
X75311544Y-132813737D01*
X75964371Y-132336671D01*
X77602601Y-131353734D01*
X79667883Y-130497397D01*
X82063123Y-129917497D01*
X83546944Y-129766600D01*
X84983829Y-129766600D01*
X86013719Y-129841958D01*
X86013719Y-129841958D01*
G37*
X86013719Y-129841958D02*
X87904231Y-130194853D01*
X89642148Y-130748972D01*
X91505288Y-131605009D01*
X93800452Y-133168747D01*
X94754373Y-134047359D01*
X95989501Y-135433726D01*
X96237730Y-135797410D01*
X89334870Y-142700270D01*
X89172290Y-142943587D01*
X89115200Y-143230600D01*
X89115200Y-143383484D01*
X89081480Y-143417145D01*
X88940361Y-143756999D01*
X88940040Y-144124987D01*
X89080566Y-144465086D01*
X89340545Y-144725520D01*
X89680399Y-144866639D01*
X89928000Y-144866855D01*
X89928000Y-146100800D01*
X89985090Y-146387813D01*
X90032331Y-146458515D01*
X90032240Y-146563387D01*
X90172766Y-146903486D01*
X90397497Y-147128611D01*
X90357914Y-147144966D01*
X90131822Y-147370663D01*
X90008855Y-147247480D01*
X89669001Y-147106361D01*
X89301013Y-147106040D01*
X88960914Y-147246566D01*
X88700480Y-147506545D01*
X88590670Y-147770998D01*
X87381494Y-147770998D01*
X87406540Y-147692587D01*
X87372258Y-147283066D01*
X87281496Y-147063947D01*
X87077460Y-147038973D01*
X86542434Y-147574000D01*
X86556576Y-147588142D01*
X86374142Y-147770576D01*
X86360000Y-147756434D01*
X86345858Y-147770576D01*
X86163424Y-147588142D01*
X86177566Y-147574000D01*
X85642540Y-147038973D01*
X85438504Y-147063947D01*
X85313460Y-147455413D01*
X85339878Y-147770998D01*
X82809494Y-147770998D01*
X82834540Y-147692587D01*
X82800258Y-147283066D01*
X82709496Y-147063947D01*
X82505460Y-147038973D01*
X81970434Y-147574000D01*
X81984576Y-147588142D01*
X81802142Y-147770576D01*
X81788000Y-147756434D01*
X81773858Y-147770576D01*
X81591424Y-147588142D01*
X81605566Y-147574000D01*
X81070540Y-147038973D01*
X80866504Y-147063947D01*
X80741460Y-147455413D01*
X80767878Y-147770998D01*
X79337258Y-147770998D01*
X78482930Y-146916670D01*
X78392940Y-146856540D01*
X81252973Y-146856540D01*
X81788000Y-147391566D01*
X82323027Y-146856540D01*
X85824973Y-146856540D01*
X86360000Y-147391566D01*
X86895027Y-146856540D01*
X86870053Y-146652504D01*
X86478587Y-146527460D01*
X86069066Y-146561742D01*
X85849947Y-146652504D01*
X85824973Y-146856540D01*
X82323027Y-146856540D01*
X82298053Y-146652504D01*
X81906587Y-146527460D01*
X81497066Y-146561742D01*
X81277947Y-146652504D01*
X81252973Y-146856540D01*
X78392940Y-146856540D01*
X78239613Y-146754090D01*
X77952600Y-146697000D01*
X75209400Y-146697000D01*
X74922387Y-146754090D01*
X74817760Y-146824000D01*
X69745384Y-146824000D01*
X69646765Y-146005460D01*
X81506973Y-146005460D01*
X81531947Y-146209496D01*
X81923413Y-146334540D01*
X82332934Y-146300258D01*
X82552053Y-146209496D01*
X82577027Y-146005460D01*
X83538973Y-146005460D01*
X83563947Y-146209496D01*
X83955413Y-146334540D01*
X84364934Y-146300258D01*
X84584053Y-146209496D01*
X84609027Y-146005460D01*
X85316973Y-146005460D01*
X85341947Y-146209496D01*
X85733413Y-146334540D01*
X86142934Y-146300258D01*
X86362053Y-146209496D01*
X86387027Y-146005460D01*
X85852000Y-145470434D01*
X85316973Y-146005460D01*
X84609027Y-146005460D01*
X84074000Y-145470434D01*
X83538973Y-146005460D01*
X82577027Y-146005460D01*
X82042000Y-145470434D01*
X81506973Y-146005460D01*
X69646765Y-146005460D01*
X69568758Y-145358003D01*
X69570484Y-145276000D01*
X76377800Y-145276000D01*
X76664813Y-145218910D01*
X76738890Y-145169413D01*
X80995460Y-145169413D01*
X81029742Y-145578934D01*
X81120504Y-145798053D01*
X81324540Y-145823027D01*
X81859566Y-145288000D01*
X82224434Y-145288000D01*
X82759460Y-145823027D01*
X82963496Y-145798053D01*
X83055875Y-145508849D01*
X83061742Y-145578934D01*
X83152504Y-145798053D01*
X83356540Y-145823027D01*
X83891566Y-145288000D01*
X84256434Y-145288000D01*
X84791460Y-145823027D01*
X84963000Y-145802031D01*
X85134540Y-145823027D01*
X85669566Y-145288000D01*
X86034434Y-145288000D01*
X86569460Y-145823027D01*
X86773496Y-145798053D01*
X86898540Y-145406587D01*
X86864258Y-144997066D01*
X86773496Y-144777947D01*
X86569460Y-144752973D01*
X86034434Y-145288000D01*
X85669566Y-145288000D01*
X85134540Y-144752973D01*
X84963000Y-144773969D01*
X84791460Y-144752973D01*
X84256434Y-145288000D01*
X83891566Y-145288000D01*
X83356540Y-144752973D01*
X83152504Y-144777947D01*
X83060125Y-145067151D01*
X83054258Y-144997066D01*
X82963496Y-144777947D01*
X82759460Y-144752973D01*
X82224434Y-145288000D01*
X81859566Y-145288000D01*
X81324540Y-144752973D01*
X81120504Y-144777947D01*
X80995460Y-145169413D01*
X76738890Y-145169413D01*
X76908130Y-145056330D01*
X77199142Y-144765318D01*
X77246787Y-144765360D01*
X77586886Y-144624834D01*
X77641275Y-144570540D01*
X81506973Y-144570540D01*
X82042000Y-145105566D01*
X82577027Y-144570540D01*
X82566124Y-144481460D01*
X83538973Y-144481460D01*
X83544425Y-144526000D01*
X83538973Y-144570540D01*
X83551397Y-144582964D01*
X83563947Y-144685496D01*
X83696162Y-144727729D01*
X84074000Y-145105566D01*
X84430444Y-144749123D01*
X84584053Y-144685496D01*
X84596603Y-144582964D01*
X84609027Y-144570540D01*
X85316973Y-144570540D01*
X85852000Y-145105566D01*
X86387027Y-144570540D01*
X86362053Y-144366504D01*
X85970587Y-144241460D01*
X85561066Y-144275742D01*
X85341947Y-144366504D01*
X85316973Y-144570540D01*
X84609027Y-144570540D01*
X84603575Y-144526000D01*
X84609027Y-144481460D01*
X84596603Y-144469036D01*
X84584053Y-144366504D01*
X84451838Y-144324271D01*
X84074000Y-143946434D01*
X83717556Y-144302877D01*
X83563947Y-144366504D01*
X83551397Y-144469036D01*
X83538973Y-144481460D01*
X82566124Y-144481460D01*
X82552053Y-144366504D01*
X82160587Y-144241460D01*
X81751066Y-144275742D01*
X81531947Y-144366504D01*
X81506973Y-144570540D01*
X77641275Y-144570540D01*
X77847320Y-144364855D01*
X77988439Y-144025001D01*
X77988705Y-143719460D01*
X81252973Y-143719460D01*
X81277947Y-143923496D01*
X81669413Y-144048540D01*
X82078934Y-144014258D01*
X82298053Y-143923496D01*
X82323027Y-143719460D01*
X82248980Y-143645413D01*
X83027460Y-143645413D01*
X83061742Y-144054934D01*
X83152504Y-144274053D01*
X83356540Y-144299027D01*
X83891566Y-143764000D01*
X84256434Y-143764000D01*
X84791460Y-144299027D01*
X84995496Y-144274053D01*
X85120540Y-143882587D01*
X85106885Y-143719460D01*
X85824973Y-143719460D01*
X85849947Y-143923496D01*
X86241413Y-144048540D01*
X86650934Y-144014258D01*
X86870053Y-143923496D01*
X86895027Y-143719460D01*
X86360000Y-143184434D01*
X85824973Y-143719460D01*
X85106885Y-143719460D01*
X85086258Y-143473066D01*
X84995496Y-143253947D01*
X84791460Y-143228973D01*
X84256434Y-143764000D01*
X83891566Y-143764000D01*
X83356540Y-143228973D01*
X83152504Y-143253947D01*
X83027460Y-143645413D01*
X82248980Y-143645413D01*
X81788000Y-143184434D01*
X81252973Y-143719460D01*
X77988705Y-143719460D01*
X77988723Y-143699090D01*
X78145686Y-143634234D01*
X78406120Y-143374255D01*
X78547239Y-143034401D01*
X78547370Y-142883413D01*
X80741460Y-142883413D01*
X80775742Y-143292934D01*
X80866504Y-143512053D01*
X81070540Y-143537027D01*
X81605566Y-143002000D01*
X81970434Y-143002000D01*
X82505460Y-143537027D01*
X82709496Y-143512053D01*
X82834540Y-143120587D01*
X82828342Y-143046540D01*
X83538973Y-143046540D01*
X84074000Y-143581566D01*
X84609027Y-143046540D01*
X84589061Y-142883413D01*
X85313460Y-142883413D01*
X85347742Y-143292934D01*
X85438504Y-143512053D01*
X85642540Y-143537027D01*
X86177566Y-143002000D01*
X86542434Y-143002000D01*
X87077460Y-143537027D01*
X87281496Y-143512053D01*
X87406540Y-143120587D01*
X87372258Y-142711066D01*
X87281496Y-142491947D01*
X87077460Y-142466973D01*
X86542434Y-143002000D01*
X86177566Y-143002000D01*
X85642540Y-142466973D01*
X85438504Y-142491947D01*
X85313460Y-142883413D01*
X84589061Y-142883413D01*
X84584053Y-142842504D01*
X84192587Y-142717460D01*
X83783066Y-142751742D01*
X83563947Y-142842504D01*
X83538973Y-143046540D01*
X82828342Y-143046540D01*
X82800258Y-142711066D01*
X82709496Y-142491947D01*
X82505460Y-142466973D01*
X81970434Y-143002000D01*
X81605566Y-143002000D01*
X81070540Y-142466973D01*
X80866504Y-142491947D01*
X80741460Y-142883413D01*
X78547370Y-142883413D01*
X78547560Y-142666413D01*
X78407034Y-142326314D01*
X78365333Y-142284540D01*
X81252973Y-142284540D01*
X81788000Y-142819566D01*
X82323027Y-142284540D01*
X85824973Y-142284540D01*
X86360000Y-142819566D01*
X86895027Y-142284540D01*
X86870053Y-142080504D01*
X86478587Y-141955460D01*
X86069066Y-141989742D01*
X85849947Y-142080504D01*
X85824973Y-142284540D01*
X82323027Y-142284540D01*
X82298053Y-142080504D01*
X81906587Y-141955460D01*
X81497066Y-141989742D01*
X81277947Y-142080504D01*
X81252973Y-142284540D01*
X78365333Y-142284540D01*
X78147055Y-142065880D01*
X77807201Y-141924761D01*
X77439213Y-141924440D01*
X77099114Y-142064966D01*
X77064419Y-142099600D01*
X72319660Y-142099600D01*
X70484247Y-140264187D01*
X75960640Y-140264187D01*
X76101166Y-140604286D01*
X76361145Y-140864720D01*
X76700999Y-141005839D01*
X77068987Y-141006160D01*
X77409086Y-140865634D01*
X77669520Y-140605655D01*
X77810639Y-140265801D01*
X77810960Y-139897813D01*
X77670434Y-139557714D01*
X77635800Y-139523019D01*
X77635800Y-137699260D01*
X77737873Y-137597187D01*
X88482840Y-137597187D01*
X88623366Y-137937286D01*
X88883345Y-138197720D01*
X89223199Y-138338839D01*
X89272222Y-138338882D01*
X90401670Y-139468330D01*
X90644987Y-139630910D01*
X90932000Y-139688000D01*
X91219013Y-139630910D01*
X91462330Y-139468330D01*
X91475830Y-139448126D01*
X91715720Y-139208655D01*
X91856839Y-138868801D01*
X91857160Y-138500813D01*
X91716634Y-138160714D01*
X91456655Y-137900280D01*
X91116801Y-137759161D01*
X90813556Y-137758896D01*
X90333118Y-137278458D01*
X90333160Y-137230813D01*
X90192634Y-136890714D01*
X89932655Y-136630280D01*
X89592801Y-136489161D01*
X89224813Y-136488840D01*
X88884714Y-136629366D01*
X88624280Y-136889345D01*
X88483161Y-137229199D01*
X88482840Y-137597187D01*
X77737873Y-137597187D01*
X80193660Y-135141400D01*
X92761284Y-135141400D01*
X92794945Y-135175120D01*
X93134799Y-135316239D01*
X93502787Y-135316560D01*
X93842886Y-135176034D01*
X94103320Y-134916055D01*
X94244439Y-134576201D01*
X94244760Y-134208213D01*
X94104234Y-133868114D01*
X93844255Y-133607680D01*
X93504401Y-133466561D01*
X93136413Y-133466240D01*
X92796314Y-133606766D01*
X92761619Y-133641400D01*
X79883000Y-133641400D01*
X79595987Y-133698490D01*
X79361563Y-133855128D01*
X79352670Y-133861070D01*
X76355470Y-136858270D01*
X76192890Y-137101587D01*
X76135800Y-137388600D01*
X76135800Y-139522684D01*
X76102080Y-139556345D01*
X75960961Y-139896199D01*
X75960640Y-140264187D01*
X70484247Y-140264187D01*
X70238324Y-140018264D01*
X71004852Y-138101944D01*
X71733912Y-136744385D01*
X73146356Y-134827496D01*
X74151768Y-133771813D01*
X75311544Y-132813737D01*
X75964371Y-132336671D01*
X77602601Y-131353734D01*
X79667883Y-130497397D01*
X82063123Y-129917497D01*
X83546944Y-129766600D01*
X84983829Y-129766600D01*
X86013719Y-129841958D01*
M02*
